<svg xmlns="http://www.w3.org/2000/svg" viewBox="0 0 489 489" width="489" height="489" role="img" aria-labelledby="title desc">
<title>Simcha Poems favicon quill</title>
<desc>Custom vector asset generated from approved Simcha Poems logo concept.</desc>
<path d="M 64.0 294.0 L 66.0 294.0 L 68.0 294.0 L 70.0 294.0 L 72.0 294.0 L 74.0 294.0 L 76.0 294.0 L 78.0 294.0 L 80.0 294.0 L 82.0 294.0 L 84.0 294.0 L 85.5 293.5 L 87.0 293.0 L 89.0 293.0 L 91.0 293.0 L 93.0 293.0 L 95.0 293.0 L 96.0 292.0 L 98.0 292.0 L 100.0 292.0 L 102.0 292.0 L 104.0 292.0 L 105.5 291.5 L 107.0 291.0 L 109.0 291.0 L 111.0 291.0 L 113.0 291.0 L 115.0 291.0 L 116.5 290.5 L 118.0 290.0 L 120.0 290.0 L 122.0 290.0 L 124.0 290.0 L 125.0 289.0 L 127.0 289.0 L 129.0 289.0 L 130.0 288.0 L 132.0 288.0 L 134.0 288.0 L 135.0 287.0 L 137.0 287.0 L 139.0 287.0 L 141.0 287.0 L 142.0 286.0 L 144.0 286.0 L 146.0 286.0 L 147.0 285.0 L 149.0 285.0 L 150.0 284.0 L 152.0 284.0 L 154.0 284.0 L 155.0 283.0 L 157.0 283.0 L 158.5 282.5 L 160.0 282.0 L 162.0 282.0 L 163.0 281.0 L 165.0 281.0 L 166.0 280.0 L 168.0 280.0 L 169.5 279.5 L 171.0 279.0 L 173.0 279.0 L 174.0 278.0 L 176.0 278.0 L 177.0 277.0 L 178.5 276.5 L 180.0 276.0 L 181.5 275.5 L 183.0 275.0 L 184.5 274.5 L 186.0 274.0 L 187.5 273.5 L 189.0 273.0 L 190.0 272.0 L 191.5 271.5 L 193.0 271.0 L 194.5 270.5 L 196.0 270.0 L 197.0 269.0 L 198.5 268.5 L 200.0 268.0 L 201.0 267.0 L 202.5 266.5 L 204.0 266.0 L 205.0 265.0 L 206.0 264.0 L 207.5 263.5 L 209.0 263.0 L 210.0 262.0 L 211.0 261.0 L 212.5 260.5 L 213.5 259.5 L 214.5 258.5 L 216.0 258.0 L 217.0 257.0 L 218.0 256.0 L 219.0 255.0 L 220.0 254.0 L 221.0 253.0 L 222.0 252.0 L 223.0 251.0 L 224.0 250.0 L 225.5 249.5 L 226.5 248.5 L 227.5 247.5 L 228.5 246.5 L 229.5 245.5 L 230.5 244.5 L 231.5 243.5 L 233.0 243.0 L 234.0 242.0 L 235.0 241.0 L 236.0 240.0 L 237.0 239.0 L 238.0 238.0 L 239.5 237.5 L 240.5 236.5 L 241.5 235.5 L 242.5 234.5 L 243.5 233.5 L 244.5 232.5 L 245.5 231.5 L 246.5 230.5 L 248.0 230.0 L 249.0 229.0 L 250.0 228.0 L 251.0 227.0 L 252.0 226.0 L 253.0 225.0 L 254.0 224.0 L 255.0 223.0 L 256.5 222.5 L 257.5 221.5 L 258.5 220.5 L 259.5 219.5 L 261.0 219.0 L 262.0 218.0 L 263.0 217.0 L 264.0 216.0 L 265.0 215.0 L 266.0 214.0 L 267.5 213.5 L 268.5 212.5 L 269.5 211.5 L 270.5 210.5 L 271.5 209.5 L 272.5 208.5 L 274.0 208.0 L 275.0 207.0 L 276.0 206.0 L 277.0 205.0 L 278.0 204.0 L 279.0 203.0 L 280.0 202.0 L 281.5 201.5 L 282.5 200.5 L 283.5 199.5 L 284.5 198.5 L 286.0 198.0 L 286.5 196.5 L 287.5 195.5 L 289.0 195.0 L 290.0 194.0 L 291.0 193.0 L 292.0 192.0 L 293.0 191.0 L 294.0 190.0 L 295.5 189.5 L 296.5 188.5 L 297.5 187.5 L 298.5 186.5 L 300.0 186.0 L 301.0 185.0 L 302.0 184.0 L 303.0 183.0 L 304.0 182.0 L 305.5 181.5 L 306.5 180.5 L 307.5 179.5 L 308.5 178.5 L 309.5 177.5 L 310.5 176.5 L 312.0 176.0 L 313.0 175.0 L 314.0 174.0 L 315.0 173.0 L 316.0 172.0 L 317.5 171.5 L 318.5 170.5 L 319.5 169.5 L 321.0 169.0 L 322.0 168.0 L 323.0 167.0 L 324.0 166.0 L 325.5 165.5 L 326.5 164.5 L 327.5 163.5 L 329.0 163.0 L 330.0 162.0 L 331.0 161.0 L 332.0 160.0 L 333.5 159.5 L 334.5 158.5 L 336.0 158.0 L 337.0 157.0 L 338.0 156.0 L 339.0 155.0 L 340.5 154.5 L 341.5 153.5 L 342.5 152.5 L 344.0 152.0 L 345.0 151.0 L 346.5 150.5 L 347.5 149.5 L 348.5 148.5 L 350.0 148.0 L 351.0 147.0 L 352.5 146.5 L 353.5 145.5 L 354.5 144.5 L 356.0 144.0 L 357.0 143.0 L 358.5 142.5 L 359.5 141.5 L 358.0 142.0 L 356.5 142.5 L 355.0 143.0 L 354.0 144.0 L 353.0 145.0 L 351.5 145.5 L 350.0 146.0 L 349.0 147.0 L 348.0 148.0 L 346.5 148.5 L 345.0 149.0 L 344.0 150.0 L 343.0 151.0 L 342.0 152.0 L 340.5 152.5 L 339.0 153.0 L 338.0 154.0 L 336.5 154.5 L 335.5 155.5 L 334.0 156.0 L 333.0 157.0 L 332.0 158.0 L 330.5 158.5 L 329.5 159.5 L 328.5 160.5 L 327.0 161.0 L 326.0 162.0 L 325.0 163.0 L 324.0 164.0 L 322.5 164.5 L 321.5 165.5 L 320.0 166.0 L 319.0 167.0 L 318.0 168.0 L 317.0 169.0 L 315.5 169.5 L 314.5 170.5 L 313.0 171.0 L 312.0 172.0 L 311.0 173.0 L 310.0 174.0 L 308.5 174.5 L 307.5 175.5 L 306.5 176.5 L 305.5 177.5 L 304.0 178.0 L 303.0 179.0 L 302.0 180.0 L 301.0 181.0 L 299.5 181.5 L 298.5 182.5 L 297.5 183.5 L 296.5 184.5 L 295.5 185.5 L 294.0 186.0 L 293.0 187.0 L 292.0 188.0 L 291.0 189.0 L 289.5 189.5 L 288.5 190.5 L 287.5 191.5 L 286.5 192.5 L 285.5 193.5 L 284.5 194.5 L 283.5 195.5 L 282.0 196.0 L 281.0 197.0 L 280.0 198.0 L 279.0 199.0 L 278.0 200.0 L 277.0 201.0 L 276.0 202.0 L 274.5 202.5 L 273.5 203.5 L 272.5 204.5 L 271.5 205.5 L 270.0 206.0 L 270.5 204.5 L 271.5 203.5 L 272.5 202.5 L 273.5 201.5 L 274.5 200.5 L 275.5 199.5 L 277.0 199.0 L 278.0 198.0 L 279.0 197.0 L 280.0 196.0 L 281.0 195.0 L 282.5 194.5 L 283.5 193.5 L 284.0 192.0 L 285.5 191.5 L 286.5 190.5 L 287.5 189.5 L 288.5 188.5 L 290.0 188.0 L 291.0 187.0 L 292.0 186.0 L 293.0 185.0 L 294.0 184.0 L 295.5 183.5 L 296.5 182.5 L 297.5 181.5 L 297.5 179.5 L 298.0 178.0 L 298.5 176.5 L 298.5 174.5 L 299.5 173.5 L 299.5 171.5 L 299.5 169.5 L 300.0 168.0 L 300.5 166.5 L 300.5 164.5 L 301.5 163.5 L 301.5 161.5 L 301.5 159.5 L 302.5 158.5 L 302.5 156.5 L 302.5 154.5 L 303.5 153.5 L 303.5 151.5 L 304.0 150.0 L 304.5 148.5 L 305.5 147.5 L 306.0 146.0 L 305.0 145.0 L 304.5 146.5 L 303.5 147.5 L 302.0 148.0 L 301.0 149.0 L 300.0 150.0 L 299.0 151.0 L 298.0 152.0 L 297.0 153.0 L 295.5 153.5 L 295.0 155.0 L 294.0 156.0 L 293.0 157.0 L 292.5 158.5 L 291.5 159.5 L 291.0 161.0 L 290.5 162.5 L 289.5 163.5 L 289.5 165.5 L 289.0 167.0 L 288.5 168.5 L 288.5 170.5 L 288.0 172.0 L 287.5 173.5 L 287.5 175.5 L 287.5 177.5 L 287.5 179.5 L 287.0 181.0 L 286.5 182.5 L 286.5 184.5 L 285.5 185.5 L 285.5 187.5 L 284.5 188.5 L 283.5 187.5 L 283.5 185.5 L 283.5 183.5 L 283.5 181.5 L 283.5 179.5 L 283.5 177.5 L 283.0 176.0 L 282.5 174.5 L 282.5 172.5 L 282.5 170.5 L 283.0 169.0 L 283.5 167.5 L 283.5 165.5 L 284.0 164.0 L 284.5 162.5 L 285.0 161.0 L 285.5 159.5 L 286.0 158.0 L 286.5 156.5 L 285.0 157.0 L 284.0 158.0 L 283.0 159.0 L 282.0 160.0 L 281.0 161.0 L 280.0 162.0 L 280.5 163.5 L 280.5 165.5 L 280.5 167.5 L 280.0 169.0 L 279.5 170.5 L 279.5 172.5 L 279.5 174.5 L 278.5 175.5 L 278.5 177.5 L 278.5 179.5 L 278.5 181.5 L 278.5 183.5 L 278.5 185.5 L 278.5 187.5 L 278.5 189.5 L 278.0 191.0 L 277.5 192.5 L 277.5 194.5 L 276.0 195.0 L 275.5 193.5 L 275.5 191.5 L 275.5 189.5 L 275.5 187.5 L 275.5 185.5 L 275.5 183.5 L 275.5 181.5 L 275.5 179.5 L 276.0 178.0 L 276.5 176.5 L 276.5 174.5 L 276.5 172.5 L 276.5 170.5 L 277.5 169.5 L 277.5 167.5 L 278.0 166.0 L 278.5 164.5 L 277.0 165.0 L 275.5 165.5 L 275.0 167.0 L 274.0 168.0 L 272.5 168.5 L 271.5 169.5 L 270.5 170.5 L 269.5 171.5 L 268.5 172.5 L 267.5 173.5 L 267.0 175.0 L 266.0 176.0 L 265.0 177.0 L 264.5 178.5 L 263.5 179.5 L 262.5 180.5 L 261.5 181.5 L 261.0 183.0 L 260.5 184.5 L 259.5 185.5 L 259.5 187.5 L 258.5 188.5 L 257.5 189.5 L 257.0 191.0 L 256.5 192.5 L 256.0 194.0 L 255.5 195.5 L 255.0 197.0 L 254.5 198.5 L 253.5 199.5 L 253.5 201.5 L 253.0 203.0 L 252.5 204.5 L 252.5 206.5 L 251.5 207.5 L 251.5 209.5 L 251.5 211.5 L 250.5 212.5 L 250.0 214.0 L 249.5 215.5 L 249.0 217.0 L 248.5 218.5 L 248.0 220.0 L 247.5 221.5 L 247.0 223.0 L 248.0 224.0 L 249.0 223.0 L 250.0 222.0 L 251.0 221.0 L 252.0 220.0 L 253.0 219.0 L 254.5 218.5 L 255.0 217.0 L 256.0 216.0 L 257.5 215.5 L 258.5 214.5 L 259.5 213.5 L 260.5 212.5 L 261.5 211.5 L 263.0 211.0 L 264.0 210.0 L 265.0 209.0 L 266.0 208.0 L 267.0 207.0 L 268.0 206.0 L 269.5 206.5 L 268.5 207.5 L 267.5 208.5 L 266.5 209.5 L 265.5 210.5 L 264.5 211.5 L 263.5 212.5 L 262.0 213.0 L 261.0 214.0 L 260.0 215.0 L 259.0 216.0 L 258.0 217.0 L 257.0 218.0 L 256.0 219.0 L 255.0 220.0 L 254.0 221.0 L 252.5 221.5 L 251.5 222.5 L 250.5 223.5 L 249.5 224.5 L 248.5 225.5 L 247.5 226.5 L 246.5 227.5 L 245.5 228.5 L 244.0 229.0 L 242.5 228.5 L 243.0 227.0 L 243.5 225.5 L 244.5 224.5 L 245.0 223.0 L 245.5 221.5 L 246.5 220.5 L 246.5 218.5 L 247.0 217.0 L 247.5 215.5 L 248.0 214.0 L 248.5 212.5 L 249.0 211.0 L 249.5 209.5 L 249.5 207.5 L 250.5 206.5 L 250.5 204.5 L 251.0 203.0 L 251.5 201.5 L 252.0 200.0 L 252.5 198.5 L 253.0 197.0 L 253.5 195.5 L 254.0 194.0 L 254.5 192.5 L 255.5 191.5 L 255.5 189.5 L 256.5 188.5 L 257.5 187.5 L 258.0 186.0 L 258.5 184.5 L 259.0 183.0 L 260.0 182.0 L 260.5 180.5 L 261.5 179.5 L 262.5 178.5 L 263.0 177.0 L 264.0 176.0 L 265.0 175.0 L 265.5 173.5 L 266.5 172.5 L 267.5 171.5 L 268.5 170.5 L 269.5 169.5 L 270.5 168.5 L 271.5 167.5 L 272.5 166.5 L 273.5 165.5 L 274.5 164.5 L 275.5 163.5 L 276.5 162.5 L 277.5 161.5 L 278.5 160.5 L 279.5 159.5 L 280.5 158.5 L 282.0 158.0 L 283.0 157.0 L 284.0 156.0 L 285.0 155.0 L 286.0 154.0 L 287.5 153.5 L 289.0 153.0 L 289.5 154.5 L 288.5 155.5 L 288.5 157.5 L 287.5 158.5 L 287.0 160.0 L 286.5 161.5 L 286.0 163.0 L 285.5 164.5 L 285.5 166.5 L 285.0 168.0 L 284.5 169.5 L 284.5 171.5 L 284.5 173.5 L 284.5 175.5 L 285.5 174.5 L 286.5 173.5 L 286.5 171.5 L 286.5 169.5 L 287.0 168.0 L 287.5 166.5 L 287.5 164.5 L 288.5 163.5 L 288.5 161.5 L 289.5 160.5 L 290.0 159.0 L 290.5 157.5 L 291.5 156.5 L 292.0 155.0 L 293.0 154.0 L 294.0 153.0 L 295.0 152.0 L 296.0 151.0 L 297.0 150.0 L 298.0 149.0 L 299.0 148.0 L 300.5 147.5 L 301.5 146.5 L 302.5 145.5 L 303.5 144.5 L 305.0 144.0 L 306.0 143.0 L 307.0 142.0 L 308.5 141.5 L 310.0 141.0 L 311.5 141.5 L 310.5 142.5 L 309.5 143.5 L 308.5 144.5 L 308.0 146.0 L 307.5 147.5 L 306.5 148.5 L 306.0 150.0 L 305.5 151.5 L 305.0 153.0 L 304.5 154.5 L 304.5 156.5 L 304.0 158.0 L 303.5 159.5 L 303.5 161.5 L 303.5 163.5 L 302.5 164.5 L 302.5 166.5 L 303.5 165.5 L 304.0 164.0 L 304.5 162.5 L 305.5 161.5 L 305.5 159.5 L 306.0 158.0 L 306.5 156.5 L 307.0 155.0 L 307.5 153.5 L 308.0 152.0 L 309.0 151.0 L 309.5 149.5 L 310.5 148.5 L 311.0 147.0 L 312.0 146.0 L 313.0 145.0 L 314.0 144.0 L 315.0 143.0 L 316.0 142.0 L 317.0 141.0 L 318.5 140.5 L 319.5 139.5 L 321.0 139.0 L 322.0 138.0 L 323.0 137.0 L 324.5 136.5 L 325.5 135.5 L 327.0 135.0 L 328.5 134.5 L 330.0 134.0 L 331.0 133.0 L 332.5 132.5 L 334.0 132.0 L 335.0 131.0 L 337.0 131.0 L 338.0 130.0 L 339.5 129.5 L 341.0 129.0 L 342.0 128.0 L 343.5 127.5 L 345.0 127.0 L 346.5 126.5 L 348.0 126.0 L 350.0 126.0 L 351.0 125.0 L 352.5 125.5 L 353.0 127.0 L 354.0 126.0 L 355.5 125.5 L 356.5 124.5 L 358.0 124.0 L 359.0 123.0 L 360.5 122.5 L 362.0 122.0 L 363.5 121.5 L 365.0 121.0 L 366.5 120.5 L 368.0 120.0 L 370.0 120.0 L 371.0 119.0 L 373.0 119.0 L 375.0 119.0 L 376.0 118.0 L 378.0 118.0 L 379.5 117.5 L 381.0 117.0 L 382.5 116.5 L 384.0 116.0 L 386.0 116.0 L 387.5 115.5 L 389.0 115.0 L 391.0 115.0 L 393.0 115.0 L 394.0 114.0 L 396.0 114.0 L 398.0 114.0 L 400.0 114.0 L 402.0 114.0 L 403.5 113.5 L 405.0 113.0 L 407.0 113.0 L 409.0 113.0 L 410.0 114.0 L 412.0 114.0 L 413.5 114.5 L 413.0 116.0 L 412.5 117.5 L 412.0 119.0 L 411.5 120.5 L 410.5 121.5 L 409.5 122.5 L 408.5 123.5 L 408.0 125.0 L 407.0 126.0 L 406.0 127.0 L 405.5 128.5 L 404.5 129.5 L 403.5 130.5 L 402.5 131.5 L 401.5 132.5 L 400.5 133.5 L 400.0 135.0 L 399.0 136.0 L 398.0 137.0 L 397.0 138.0 L 396.0 139.0 L 395.0 140.0 L 394.0 141.0 L 393.0 142.0 L 392.0 143.0 L 391.0 144.0 L 390.0 145.0 L 388.5 145.5 L 387.0 146.0 L 386.0 147.0 L 388.0 147.0 L 389.5 146.5 L 391.0 146.0 L 393.0 146.0 L 392.5 147.5 L 392.0 149.0 L 391.0 150.0 L 390.0 151.0 L 389.0 152.0 L 388.0 153.0 L 387.0 154.0 L 386.0 155.0 L 385.0 156.0 L 384.0 157.0 L 382.5 157.5 L 381.5 158.5 L 380.0 159.0 L 379.0 160.0 L 377.0 160.0 L 376.0 161.0 L 374.0 161.0 L 372.0 161.0 L 371.0 162.0 L 369.0 162.0 L 367.0 162.0 L 365.5 162.5 L 364.0 163.0 L 362.0 163.0 L 360.0 163.0 L 359.0 164.0 L 357.0 164.0 L 355.0 164.0 L 356.0 165.0 L 358.0 165.0 L 360.0 165.0 L 362.0 165.0 L 364.0 165.0 L 366.0 165.0 L 368.0 165.0 L 370.0 165.0 L 372.0 165.0 L 374.0 165.0 L 376.0 165.0 L 378.0 165.0 L 380.0 165.0 L 381.5 165.5 L 380.5 166.5 L 380.0 168.0 L 378.5 168.5 L 377.5 169.5 L 376.5 170.5 L 375.5 171.5 L 374.0 172.0 L 373.0 173.0 L 372.0 174.0 L 371.0 175.0 L 370.0 176.0 L 369.0 177.0 L 368.0 178.0 L 367.5 179.5 L 366.5 180.5 L 365.5 181.5 L 364.5 182.5 L 363.5 183.5 L 362.5 184.5 L 361.5 185.5 L 360.5 186.5 L 359.5 187.5 L 358.5 188.5 L 357.5 189.5 L 356.5 190.5 L 355.5 191.5 L 354.0 192.0 L 353.0 193.0 L 352.0 194.0 L 351.0 195.0 L 350.0 196.0 L 348.5 196.5 L 347.0 197.0 L 346.0 198.0 L 344.5 198.5 L 343.0 199.0 L 342.0 200.0 L 340.5 200.5 L 340.0 202.0 L 338.5 202.5 L 337.0 203.0 L 335.5 203.5 L 334.0 204.0 L 332.0 204.0 L 331.0 205.0 L 329.0 205.0 L 327.0 205.0 L 325.0 205.0 L 324.0 206.0 L 322.0 206.0 L 320.0 206.0 L 318.0 206.0 L 316.0 206.0 L 314.0 206.0 L 312.0 206.0 L 310.0 206.0 L 308.0 206.0 L 306.0 206.0 L 305.0 207.0 L 303.0 207.0 L 301.0 207.0 L 299.0 207.0 L 297.0 207.0 L 295.0 207.0 L 293.5 207.5 L 292.0 208.0 L 290.0 208.0 L 291.0 209.0 L 293.0 209.0 L 295.0 209.0 L 297.0 209.0 L 298.0 210.0 L 300.0 210.0 L 302.0 210.0 L 304.0 210.0 L 306.0 210.0 L 307.5 210.5 L 309.0 211.0 L 311.0 211.0 L 313.0 211.0 L 315.0 211.0 L 317.0 211.0 L 319.0 211.0 L 320.5 210.5 L 322.0 210.0 L 324.0 210.0 L 326.0 210.0 L 327.0 209.0 L 329.0 209.0 L 330.0 208.0 L 332.0 208.0 L 333.0 207.0 L 335.0 207.0 L 336.5 207.5 L 336.0 209.0 L 335.0 210.0 L 334.0 211.0 L 333.0 212.0 L 331.5 212.5 L 330.5 213.5 L 329.0 214.0 L 328.0 215.0 L 327.0 216.0 L 326.0 217.0 L 324.5 217.5 L 323.0 218.0 L 322.0 219.0 L 321.0 220.0 L 319.5 220.5 L 318.0 221.0 L 316.5 221.5 L 315.0 222.0 L 314.0 223.0 L 312.5 223.5 L 311.0 224.0 L 309.0 224.0 L 308.0 225.0 L 306.0 225.0 L 305.0 226.0 L 304.0 227.0 L 303.0 228.0 L 301.0 228.0 L 299.5 228.5 L 298.0 229.0 L 296.0 229.0 L 294.0 229.0 L 292.0 229.0 L 290.0 229.0 L 288.0 229.0 L 286.0 229.0 L 284.0 229.0 L 282.0 229.0 L 280.0 229.0 L 278.0 229.0 L 276.0 229.0 L 274.0 229.0 L 272.5 229.5 L 274.0 230.0 L 276.0 230.0 L 278.0 230.0 L 280.0 230.0 L 282.0 230.0 L 284.0 230.0 L 286.0 230.0 L 288.0 230.0 L 290.0 230.0 L 292.0 230.0 L 294.0 230.0 L 296.0 230.0 L 298.0 230.0 L 300.0 230.0 L 301.5 230.5 L 300.0 231.0 L 299.0 232.0 L 297.5 232.5 L 296.0 233.0 L 294.5 233.5 L 293.0 234.0 L 291.5 234.5 L 290.0 235.0 L 288.5 235.5 L 287.0 236.0 L 285.5 236.5 L 284.0 237.0 L 282.0 237.0 L 280.0 237.0 L 278.5 237.5 L 277.0 238.0 L 275.0 238.0 L 273.0 238.0 L 271.0 238.0 L 269.0 238.0 L 268.0 239.0 L 266.0 239.0 L 264.0 239.0 L 262.0 239.0 L 260.5 239.5 L 259.0 240.0 L 257.0 240.0 L 255.0 240.0 L 254.0 241.0 L 252.0 241.0 L 250.5 241.5 L 249.0 242.0 L 248.0 243.0 L 246.5 243.5 L 245.0 244.0 L 244.0 245.0 L 242.5 245.5 L 241.0 246.0 L 240.0 247.0 L 239.0 248.0 L 238.0 249.0 L 236.5 249.5 L 235.5 250.5 L 234.5 251.5 L 233.0 252.0 L 232.0 253.0 L 231.0 254.0 L 230.0 255.0 L 229.0 256.0 L 227.5 256.5 L 226.5 257.5 L 225.5 258.5 L 224.5 259.5 L 223.5 260.5 L 222.5 261.5 L 221.0 262.0 L 220.0 263.0 L 219.0 264.0 L 218.0 265.0 L 217.0 266.0 L 215.5 266.5 L 214.5 267.5 L 213.0 268.0 L 212.0 269.0 L 210.5 269.5 L 209.0 270.0 L 208.0 271.0 L 207.0 272.0 L 205.0 272.0 L 204.0 273.0 L 202.5 273.5 L 201.0 274.0 L 199.5 274.5 L 198.5 275.5 L 197.0 276.0 L 195.5 276.5 L 194.0 277.0 L 192.5 277.5 L 191.0 278.0 L 190.0 279.0 L 188.5 279.5 L 187.0 280.0 L 186.0 281.0 L 184.0 281.0 L 183.0 282.0 L 181.0 282.0 L 180.0 283.0 L 178.5 283.5 L 177.0 284.0 L 175.5 284.5 L 174.0 285.0 L 172.5 285.5 L 171.0 286.0 L 169.5 286.5 L 168.0 287.0 L 166.5 287.5 L 165.0 288.0 L 163.5 288.5 L 162.0 289.0 L 160.0 289.0 L 159.0 290.0 L 157.0 290.0 L 156.0 291.0 L 154.0 291.0 L 153.0 292.0 L 151.0 292.0 L 149.5 292.5 L 148.0 293.0 L 146.0 293.0 L 144.5 293.5 L 143.0 294.0 L 141.0 294.0 L 139.5 294.5 L 138.0 295.0 L 136.0 295.0 L 135.0 296.0 L 133.0 296.0 L 131.5 296.5 L 130.0 297.0 L 128.0 297.0 L 126.0 297.0 L 124.5 297.5 L 123.0 298.0 L 121.0 298.0 L 119.0 298.0 L 118.0 299.0 L 116.0 299.0 L 114.5 299.5 L 113.0 300.0 L 111.0 300.0 L 109.0 300.0 L 107.5 300.5 L 106.0 301.0 L 104.0 301.0 L 102.0 301.0 L 100.0 301.0 L 98.0 301.0 L 97.0 302.0 L 95.0 302.0 L 93.0 302.0 L 91.0 302.0 L 89.0 302.0 L 88.0 303.0 L 86.0 303.0 L 84.0 303.0 L 82.0 303.0 L 80.0 303.0 L 79.0 304.0 L 77.0 304.0 L 75.0 304.0 L 73.0 304.0 L 71.0 304.0 L 69.0 304.0 L 67.0 304.0 L 65.0 304.0 L 64.0 305.0 Z" fill="#5B4037"/>
<path d="M 64.0 303.0 L 66.0 303.0 L 68.0 303.0 L 69.0 302.0 L 71.0 302.0 L 73.0 302.0 L 75.0 302.0 L 77.0 302.0 L 79.0 302.0 L 81.0 302.0 L 82.0 301.0 L 84.0 301.0 L 86.0 301.0 L 88.0 301.0 L 89.5 300.5 L 91.0 300.0 L 93.0 300.0 L 95.0 300.0 L 97.0 300.0 L 99.0 300.0 L 100.0 299.0 L 102.0 299.0 L 104.0 299.0 L 106.0 299.0 L 108.0 299.0 L 109.5 298.5 L 111.0 298.0 L 113.0 298.0 L 115.0 298.0 L 116.0 297.0 L 118.0 297.0 L 119.5 296.5 L 121.0 296.0 L 123.0 296.0 L 125.0 296.0 L 126.0 295.0 L 128.0 295.0 L 130.0 295.0 L 131.5 294.5 L 133.0 294.0 L 135.0 294.0 L 136.5 293.5 L 138.0 293.0 L 139.0 292.0 L 141.0 292.0 L 143.0 292.0 L 144.5 291.5 L 146.0 291.0 L 148.0 291.0 L 150.0 291.0 L 151.0 290.0 L 153.0 290.0 L 154.5 289.5 L 156.0 289.0 L 157.0 288.0 L 159.0 288.0 L 160.5 287.5 L 162.0 287.0 L 164.0 287.0 L 165.0 286.0 L 167.0 286.0 L 168.0 285.0 L 169.5 284.5 L 171.0 284.0 L 172.5 283.5 L 174.0 283.0 L 175.5 282.5 L 177.0 282.0 L 178.5 281.5 L 180.0 281.0 L 181.0 280.0 L 183.0 280.0 L 184.0 279.0 L 186.0 279.0 L 187.0 278.0 L 188.5 277.5 L 190.0 277.0 L 191.0 276.0 L 192.5 275.5 L 194.0 275.0 L 195.5 274.5 L 194.5 273.5 L 196.0 273.0 L 197.5 272.5 L 199.0 272.0 L 201.0 272.0 L 202.0 271.0 L 204.0 271.0 L 205.5 270.5 L 207.0 270.0 L 208.0 269.0 L 209.0 268.0 L 210.5 267.5 L 212.0 267.0 L 213.0 266.0 L 214.5 265.5 L 215.0 264.0 L 216.5 263.5 L 218.0 263.0 L 219.0 262.0 L 220.0 261.0 L 221.0 260.0 L 222.0 259.0 L 223.0 258.0 L 224.5 257.5 L 225.5 256.5 L 226.5 255.5 L 227.5 254.5 L 229.0 254.0 L 230.0 253.0 L 231.0 252.0 L 232.0 251.0 L 233.5 250.5 L 234.5 249.5 L 235.5 248.5 L 236.5 247.5 L 238.0 247.0 L 239.0 246.0 L 240.0 245.0 L 241.5 244.5 L 242.5 243.5 L 244.0 243.0 L 245.5 242.5 L 246.5 241.5 L 248.0 241.0 L 249.0 240.0 L 251.0 240.0 L 252.0 239.0 L 254.0 239.0 L 256.0 239.0 L 257.0 238.0 L 259.0 238.0 L 261.0 238.0 L 262.5 237.5 L 264.0 237.0 L 266.0 237.0 L 268.0 237.0 L 269.5 236.5 L 271.0 236.0 L 273.0 236.0 L 275.0 236.0 L 277.0 236.0 L 279.0 236.0 L 280.5 235.5 L 282.0 235.0 L 284.0 235.0 L 285.5 234.5 L 287.0 234.0 L 289.0 234.0 L 290.0 233.0 L 292.0 233.0 L 291.0 232.0 L 289.0 232.0 L 287.0 232.0 L 285.0 232.0 L 283.0 232.0 L 281.0 232.0 L 279.0 232.0 L 278.0 231.0 L 276.0 231.0 L 274.0 231.0 L 272.0 231.0 L 270.0 231.0 L 268.0 231.0 L 266.0 231.0 L 264.0 231.0 L 262.0 231.0 L 260.0 231.0 L 259.5 229.5 L 260.0 228.0 L 262.0 228.0 L 264.0 228.0 L 266.0 228.0 L 268.0 228.0 L 269.0 227.0 L 271.0 227.0 L 273.0 227.0 L 275.0 227.0 L 277.0 227.0 L 279.0 227.0 L 281.0 227.0 L 282.0 228.0 L 284.0 228.0 L 286.0 228.0 L 288.0 228.0 L 290.0 228.0 L 292.0 228.0 L 294.0 228.0 L 295.0 227.0 L 297.0 227.0 L 299.0 227.0 L 301.0 227.0 L 300.0 226.0 L 298.0 226.0 L 296.0 226.0 L 294.0 226.0 L 292.0 226.0 L 290.0 226.0 L 288.5 225.5 L 287.0 225.0 L 285.0 225.0 L 283.0 225.0 L 281.0 225.0 L 279.0 225.0 L 277.0 225.0 L 275.0 225.0 L 273.0 225.0 L 271.0 225.0 L 269.0 225.0 L 268.0 226.0 L 266.0 226.0 L 265.0 227.0 L 263.5 226.5 L 264.0 225.0 L 265.0 224.0 L 266.5 223.5 L 268.0 223.0 L 269.5 222.5 L 271.0 222.0 L 273.0 222.0 L 275.0 222.0 L 277.0 222.0 L 279.0 222.0 L 281.0 222.0 L 283.0 222.0 L 285.0 222.0 L 287.0 222.0 L 289.0 222.0 L 290.5 222.5 L 292.0 223.0 L 294.0 223.0 L 296.0 223.0 L 298.0 223.0 L 300.0 223.0 L 302.0 223.0 L 304.0 223.0 L 306.0 223.0 L 308.0 223.0 L 309.0 222.0 L 311.0 222.0 L 312.5 221.5 L 314.0 221.0 L 315.0 220.0 L 317.0 220.0 L 318.0 219.0 L 319.5 218.5 L 321.0 218.0 L 322.0 217.0 L 323.0 216.0 L 324.5 215.5 L 326.0 215.0 L 327.0 214.0 L 328.0 213.0 L 329.5 212.5 L 330.5 211.5 L 331.5 210.5 L 330.0 210.0 L 329.0 211.0 L 327.0 211.0 L 325.5 211.5 L 324.0 212.0 L 322.0 212.0 L 320.0 212.0 L 318.0 212.0 L 317.0 213.0 L 315.0 213.0 L 313.0 213.0 L 311.5 212.5 L 310.0 212.0 L 308.0 212.0 L 306.0 212.0 L 304.0 212.0 L 302.0 212.0 L 300.0 212.0 L 299.0 211.0 L 297.0 211.0 L 295.0 211.0 L 293.0 211.0 L 292.0 210.0 L 290.0 210.0 L 289.0 211.0 L 287.0 211.0 L 285.0 211.0 L 283.5 211.5 L 282.0 212.0 L 280.5 211.5 L 279.5 210.5 L 280.5 209.5 L 281.5 208.5 L 283.0 208.0 L 284.5 207.5 L 286.0 207.0 L 288.0 207.0 L 289.5 206.5 L 291.0 206.0 L 293.0 206.0 L 295.0 206.0 L 296.0 205.0 L 298.0 205.0 L 300.0 205.0 L 302.0 205.0 L 304.0 205.0 L 306.0 205.0 L 308.0 205.0 L 310.0 205.0 L 311.5 204.5 L 313.0 204.0 L 315.0 204.0 L 317.0 204.0 L 319.0 204.0 L 321.0 204.0 L 323.0 204.0 L 325.0 204.0 L 327.0 204.0 L 328.0 203.0 L 330.0 203.0 L 332.0 203.0 L 331.0 202.0 L 329.0 202.0 L 327.0 202.0 L 325.0 202.0 L 323.0 202.0 L 321.0 202.0 L 319.0 202.0 L 317.0 202.0 L 315.0 202.0 L 313.0 202.0 L 311.0 202.0 L 309.0 202.0 L 307.0 202.0 L 305.0 202.0 L 303.0 202.0 L 301.0 202.0 L 299.0 202.0 L 297.5 202.5 L 296.0 203.0 L 294.0 203.0 L 292.5 203.5 L 291.0 204.0 L 290.5 202.5 L 291.0 201.0 L 292.5 200.5 L 294.0 200.0 L 296.0 200.0 L 297.5 199.5 L 299.0 199.0 L 301.0 199.0 L 303.0 199.0 L 305.0 199.0 L 307.0 199.0 L 309.0 199.0 L 311.0 199.0 L 313.0 199.0 L 315.0 199.0 L 317.0 199.0 L 319.0 199.0 L 321.0 199.0 L 323.0 199.0 L 325.0 199.0 L 327.0 199.0 L 329.0 199.0 L 331.0 199.0 L 333.0 199.0 L 335.0 199.0 L 337.0 199.0 L 338.5 198.5 L 340.0 198.0 L 342.0 198.0 L 343.0 197.0 L 344.5 196.5 L 346.0 196.0 L 347.0 195.0 L 349.0 195.0 L 350.0 194.0 L 351.0 193.0 L 352.0 192.0 L 353.0 191.0 L 354.5 190.5 L 355.5 189.5 L 356.0 188.0 L 357.5 187.5 L 358.5 186.5 L 359.5 185.5 L 360.5 184.5 L 361.5 183.5 L 362.5 182.5 L 363.5 181.5 L 364.0 180.0 L 365.5 179.5 L 366.0 178.0 L 367.0 177.0 L 368.0 176.0 L 369.0 175.0 L 370.0 174.0 L 371.0 173.0 L 372.0 172.0 L 373.0 171.0 L 374.5 170.5 L 375.5 169.5 L 376.5 168.5 L 377.5 167.5 L 376.0 167.0 L 374.0 167.0 L 372.0 167.0 L 370.0 167.0 L 368.0 167.0 L 366.0 167.0 L 364.0 167.0 L 362.0 167.0 L 361.0 166.0 L 359.0 166.0 L 357.0 166.0 L 355.0 166.0 L 353.0 166.0 L 351.0 166.0 L 349.0 166.0 L 347.0 166.0 L 345.0 166.0 L 344.0 167.0 L 342.0 167.0 L 340.0 167.0 L 339.0 168.0 L 337.0 168.0 L 335.5 168.5 L 334.0 169.0 L 333.5 167.5 L 334.5 166.5 L 336.0 166.0 L 337.5 165.5 L 339.0 165.0 L 340.0 164.0 L 342.0 164.0 L 343.0 163.0 L 345.0 163.0 L 347.0 163.0 L 349.0 163.0 L 350.5 162.5 L 352.0 162.0 L 354.0 162.0 L 356.0 162.0 L 358.0 162.0 L 360.0 162.0 L 361.5 161.5 L 363.0 161.0 L 365.0 161.0 L 367.0 161.0 L 368.5 160.5 L 370.0 160.0 L 372.0 160.0 L 373.5 159.5 L 375.0 159.0 L 377.0 159.0 L 378.0 158.0 L 379.5 157.5 L 381.0 157.0 L 382.0 156.0 L 383.0 155.0 L 384.5 154.5 L 385.5 153.5 L 386.5 152.5 L 387.5 151.5 L 388.5 150.5 L 389.5 149.5 L 388.0 149.0 L 386.0 149.0 L 385.0 150.0 L 383.0 150.0 L 381.0 150.0 L 380.0 151.0 L 378.0 151.0 L 376.0 151.0 L 374.0 151.0 L 372.0 151.0 L 370.5 151.5 L 369.0 152.0 L 367.0 152.0 L 365.0 152.0 L 363.0 152.0 L 361.0 152.0 L 359.0 152.0 L 357.5 151.5 L 356.5 150.5 L 357.5 149.5 L 359.0 149.0 L 361.0 149.0 L 363.0 149.0 L 365.0 149.0 L 366.5 148.5 L 368.0 148.0 L 370.0 148.0 L 372.0 148.0 L 374.0 148.0 L 376.0 148.0 L 377.5 147.5 L 379.0 147.0 L 381.0 147.0 L 382.5 146.5 L 384.0 146.0 L 385.5 145.5 L 386.5 144.5 L 388.0 144.0 L 389.0 143.0 L 390.5 142.5 L 391.5 141.5 L 392.5 140.5 L 393.5 139.5 L 394.5 138.5 L 395.5 137.5 L 396.5 136.5 L 397.5 135.5 L 398.5 134.5 L 399.5 133.5 L 400.0 132.0 L 401.0 131.0 L 402.0 130.0 L 402.5 128.5 L 403.5 127.5 L 404.5 126.5 L 405.5 125.5 L 406.5 124.5 L 407.0 123.0 L 408.0 122.0 L 409.0 121.0 L 409.5 119.5 L 410.5 118.5 L 411.0 117.0 L 411.5 115.5 L 410.0 115.0 L 408.0 115.0 L 406.0 115.0 L 404.0 115.0 L 402.0 115.0 L 400.0 115.0 L 399.0 116.0 L 397.0 116.0 L 395.0 116.0 L 393.0 116.0 L 392.0 117.0 L 390.0 117.0 L 388.0 117.0 L 386.5 117.5 L 385.0 118.0 L 383.0 118.0 L 382.0 119.0 L 380.5 119.5 L 379.0 120.0 L 377.0 120.0 L 375.5 120.5 L 374.0 121.0 L 372.0 121.0 L 370.0 121.0 L 369.0 122.0 L 367.0 122.0 L 365.5 122.5 L 364.0 123.0 L 363.0 124.0 L 361.0 124.0 L 360.0 125.0 L 358.0 125.0 L 357.0 126.0 L 356.0 127.0 L 355.0 128.0 L 353.5 128.5 L 352.5 129.5 L 351.5 130.5 L 350.0 131.0 L 349.0 132.0 L 348.0 133.0 L 347.0 134.0 L 346.0 135.0 L 345.5 136.5 L 344.5 137.5 L 343.5 138.5 L 342.5 139.5 L 341.5 140.5 L 340.0 141.0 L 339.5 139.5 L 340.5 138.5 L 341.5 137.5 L 342.5 136.5 L 343.0 135.0 L 344.0 134.0 L 345.0 133.0 L 345.5 131.5 L 346.5 130.5 L 347.5 129.5 L 348.5 128.5 L 347.0 128.0 L 346.0 129.0 L 344.0 129.0 L 343.0 130.0 L 341.5 130.5 L 340.0 131.0 L 339.0 132.0 L 337.0 132.0 L 336.0 133.0 L 334.5 133.5 L 333.0 134.0 L 331.5 134.5 L 330.5 135.5 L 329.0 136.0 L 328.0 137.0 L 326.0 137.0 L 325.0 138.0 L 323.5 138.5 L 322.5 139.5 L 321.5 140.5 L 320.0 141.0 L 319.0 142.0 L 317.5 142.5 L 316.5 143.5 L 315.5 144.5 L 314.5 145.5 L 313.5 146.5 L 312.5 147.5 L 312.0 149.0 L 311.0 150.0 L 310.5 151.5 L 309.5 152.5 L 309.0 154.0 L 308.5 155.5 L 308.5 157.5 L 307.5 158.5 L 307.5 160.5 L 307.0 162.0 L 306.5 163.5 L 305.5 164.5 L 305.5 166.5 L 304.5 167.5 L 304.5 169.5 L 304.0 171.0 L 303.5 172.5 L 303.0 174.0 L 302.5 175.5 L 301.5 176.5 L 301.0 178.0 L 302.5 177.5 L 303.5 176.5 L 304.5 175.5 L 306.0 175.0 L 307.0 174.0 L 308.0 173.0 L 309.0 172.0 L 310.0 171.0 L 311.5 170.5 L 312.5 169.5 L 313.5 168.5 L 315.0 168.0 L 316.0 167.0 L 317.5 166.5 L 318.5 165.5 L 319.5 164.5 L 321.0 164.0 L 322.0 163.0 L 323.0 162.0 L 324.5 161.5 L 325.5 160.5 L 326.5 159.5 L 328.0 159.0 L 329.0 158.0 L 330.0 157.0 L 331.0 156.0 L 332.5 155.5 L 334.0 155.0 L 335.0 154.0 L 336.0 153.0 L 337.5 152.5 L 338.5 151.5 L 340.0 151.0 L 341.0 150.0 L 342.5 149.5 L 343.5 148.5 L 345.0 148.0 L 346.0 147.0 L 347.0 146.0 L 348.5 145.5 L 349.5 144.5 L 351.0 144.0 L 352.0 143.0 L 353.5 142.5 L 355.0 142.0 L 356.0 141.0 L 357.0 140.0 L 358.5 139.5 L 360.0 139.0 L 361.0 138.0 L 362.5 137.5 L 363.5 136.5 L 365.0 136.0 L 366.5 135.5 L 368.0 135.0 L 369.0 134.0 L 370.5 133.5 L 371.5 132.5 L 373.0 132.0 L 374.0 131.0 L 376.0 131.0 L 377.0 130.0 L 378.5 129.5 L 379.5 128.5 L 381.0 128.0 L 382.0 127.0 L 384.0 127.0 L 385.0 126.0 L 387.0 126.0 L 388.0 125.0 L 389.0 124.0 L 391.0 124.0 L 392.0 123.0 L 393.5 122.5 L 395.0 122.0 L 395.5 123.5 L 394.5 124.5 L 393.0 125.0 L 392.0 126.0 L 390.5 126.5 L 389.0 127.0 L 388.0 128.0 L 386.5 128.5 L 385.0 129.0 L 384.0 130.0 L 382.5 130.5 L 381.5 131.5 L 380.0 132.0 L 379.0 133.0 L 377.0 133.0 L 376.0 134.0 L 375.0 135.0 L 373.5 135.5 L 372.0 136.0 L 371.0 137.0 L 369.5 137.5 L 368.5 138.5 L 367.0 139.0 L 366.0 140.0 L 364.5 140.5 L 363.0 141.0 L 362.0 142.0 L 361.0 143.0 L 359.5 143.5 L 358.5 144.5 L 357.0 145.0 L 356.0 146.0 L 355.0 147.0 L 353.5 147.5 L 352.5 148.5 L 351.0 149.0 L 350.0 150.0 L 348.5 150.5 L 347.5 151.5 L 346.0 152.0 L 345.0 153.0 L 344.0 154.0 L 342.5 154.5 L 341.5 155.5 L 340.5 156.5 L 339.0 157.0 L 338.0 158.0 L 337.0 159.0 L 336.0 160.0 L 334.5 160.5 L 333.5 161.5 L 332.0 162.0 L 331.0 163.0 L 330.0 164.0 L 329.0 165.0 L 327.5 165.5 L 326.5 166.5 L 325.5 167.5 L 324.0 168.0 L 323.0 169.0 L 322.0 170.0 L 320.5 170.5 L 319.5 171.5 L 318.5 172.5 L 317.0 173.0 L 316.0 174.0 L 315.0 175.0 L 314.0 176.0 L 313.0 177.0 L 312.0 178.0 L 310.5 178.5 L 309.5 179.5 L 308.5 180.5 L 307.5 181.5 L 306.5 182.5 L 305.5 183.5 L 304.5 184.5 L 303.0 185.0 L 302.0 186.0 L 301.0 187.0 L 300.0 188.0 L 298.5 188.5 L 297.5 189.5 L 296.5 190.5 L 295.5 191.5 L 294.0 192.0 L 293.0 193.0 L 292.0 194.0 L 291.0 195.0 L 290.0 196.0 L 289.0 197.0 L 288.0 198.0 L 287.0 199.0 L 285.5 199.5 L 284.5 200.5 L 283.5 201.5 L 282.5 202.5 L 281.5 203.5 L 280.5 204.5 L 279.0 205.0 L 278.0 206.0 L 277.0 207.0 L 276.0 208.0 L 275.0 209.0 L 273.5 209.5 L 272.5 210.5 L 272.0 212.0 L 270.5 212.5 L 269.5 213.5 L 268.5 214.5 L 267.5 215.5 L 266.0 216.0 L 265.0 217.0 L 264.0 218.0 L 263.0 219.0 L 262.0 220.0 L 261.0 221.0 L 259.5 221.5 L 258.5 222.5 L 257.5 223.5 L 256.5 224.5 L 255.0 225.0 L 254.0 226.0 L 253.0 227.0 L 252.0 228.0 L 251.0 229.0 L 250.0 230.0 L 249.0 231.0 L 248.0 232.0 L 247.0 233.0 L 245.5 233.5 L 245.0 235.0 L 244.0 236.0 L 243.0 237.0 L 241.5 237.5 L 240.5 238.5 L 239.5 239.5 L 238.5 240.5 L 237.0 241.0 L 236.0 242.0 L 235.0 243.0 L 234.0 244.0 L 233.0 245.0 L 232.0 246.0 L 231.0 247.0 L 230.0 248.0 L 228.5 248.5 L 227.5 249.5 L 226.5 250.5 L 225.5 251.5 L 224.5 252.5 L 223.5 253.5 L 222.0 254.0 L 221.5 255.5 L 220.5 256.5 L 219.0 257.0 L 218.0 258.0 L 217.0 259.0 L 216.0 260.0 L 215.0 261.0 L 213.5 261.5 L 212.5 262.5 L 211.5 263.5 L 210.0 264.0 L 209.0 265.0 L 207.5 265.5 L 206.5 266.5 L 205.0 267.0 L 204.0 268.0 L 202.5 268.5 L 201.0 269.0 L 200.0 270.0 L 198.5 270.5 L 197.5 271.5 L 196.0 272.0 L 194.5 272.5 L 193.0 273.0 L 191.5 273.5 L 190.0 274.0 L 188.5 274.5 L 187.5 275.5 L 186.0 276.0 L 184.5 276.5 L 183.0 277.0 L 181.5 277.5 L 180.0 278.0 L 178.5 278.5 L 177.0 279.0 L 176.0 280.0 L 174.0 280.0 L 172.5 280.5 L 171.0 281.0 L 169.0 281.0 L 168.0 282.0 L 166.0 282.0 L 165.0 283.0 L 163.0 283.0 L 162.0 284.0 L 160.0 284.0 L 158.5 284.5 L 157.0 285.0 L 155.0 285.0 L 153.5 285.5 L 152.0 286.0 L 150.0 286.0 L 149.0 287.0 L 147.5 287.5 L 146.0 288.0 L 144.0 288.0 L 142.0 288.0 L 141.0 289.0 L 139.0 289.0 L 137.0 289.0 L 135.5 289.5 L 134.0 290.0 L 132.0 290.0 L 130.0 290.0 L 129.0 291.0 L 127.0 291.0 L 126.0 292.0 L 124.0 292.0 L 122.0 292.0 L 120.0 292.0 L 118.5 292.5 L 117.0 293.0 L 115.0 293.0 L 113.0 293.0 L 111.0 293.0 L 109.0 293.0 L 107.0 293.0 L 105.5 293.5 L 104.0 294.0 L 102.0 294.0 L 100.0 294.0 L 98.0 294.0 L 96.5 294.5 L 95.0 295.0 L 93.0 295.0 L 91.0 295.0 L 89.0 295.0 L 87.0 295.0 L 85.5 295.5 L 84.0 296.0 L 82.0 296.0 L 80.0 296.0 L 78.0 296.0 L 76.0 296.0 L 74.0 296.0 L 72.0 296.0 L 70.0 296.0 L 68.0 296.0 L 66.0 296.0 L 64.0 296.0 Z" fill="#5B4037"/>
<path d="M 329.0 154.0 L 327.0 154.0 L 326.5 152.5 L 327.0 151.0 L 327.5 149.5 L 328.5 148.5 L 329.5 147.5 L 330.0 146.0 L 330.5 144.5 L 331.5 143.5 L 332.0 142.0 L 333.0 141.0 L 334.0 140.0 L 334.5 138.5 L 335.5 137.5 L 336.5 136.5 L 337.5 135.5 L 338.5 134.5 L 339.5 133.5 L 341.0 133.0 L 340.5 134.5 L 339.5 135.5 L 339.0 137.0 L 338.0 138.0 L 337.0 139.0 L 336.5 140.5 L 335.5 141.5 L 334.5 142.5 L 333.5 143.5 L 333.0 145.0 L 332.5 146.5 L 331.5 147.5 L 331.0 149.0 L 330.5 150.5 L 329.5 151.5 L 329.5 153.5 Z" fill="#5B4037"/>
<path d="M 307.0 192.0 L 305.5 191.5 L 306.0 190.0 L 307.5 189.5 L 309.0 189.0 L 310.0 188.0 L 311.5 187.5 L 313.0 187.0 L 315.0 187.0 L 316.5 186.5 L 318.0 186.0 L 320.0 186.0 L 321.5 185.5 L 323.0 185.0 L 325.0 185.0 L 326.0 184.0 L 328.0 184.0 L 330.0 184.0 L 331.5 183.5 L 333.0 183.0 L 335.0 183.0 L 337.0 183.0 L 339.0 183.0 L 340.0 182.0 L 342.0 182.0 L 344.0 182.0 L 346.0 182.0 L 348.0 182.0 L 350.0 182.0 L 352.0 182.0 L 354.0 182.0 L 356.0 182.0 L 355.0 183.0 L 353.5 183.5 L 352.0 184.0 L 350.0 184.0 L 348.0 184.0 L 346.0 184.0 L 345.0 185.0 L 343.0 185.0 L 341.0 185.0 L 339.0 185.0 L 337.0 185.0 L 335.5 185.5 L 334.0 186.0 L 332.0 186.0 L 330.0 186.0 L 328.5 186.5 L 327.0 187.0 L 325.0 187.0 L 324.0 188.0 L 322.0 188.0 L 320.5 188.5 L 319.0 189.0 L 317.0 189.0 L 315.0 189.0 L 314.0 190.0 L 312.0 190.0 L 310.0 190.0 L 309.0 191.0 L 307.5 191.5 Z" fill="#5B4037"/>
<path d="M 64.0 185.0 L 66.0 185.0 L 67.0 186.0 L 69.0 186.0 L 70.0 187.0 L 71.0 188.0 L 72.0 189.0 L 72.5 190.5 L 72.5 192.5 L 72.5 194.5 L 72.5 196.5 L 72.5 198.5 L 71.5 199.5 L 71.0 201.0 L 70.0 202.0 L 69.0 203.0 L 68.5 204.5 L 67.0 205.0 L 66.0 206.0 L 65.0 207.0 L 64.0 208.0 Z" fill="#5B4037"/>
<path d="M 64.0 231.0 L 65.5 230.5 L 66.5 229.5 L 67.0 228.0 L 68.0 227.0 L 69.5 226.5 L 70.0 225.0 L 71.0 224.0 L 72.0 223.0 L 73.0 222.0 L 73.5 220.5 L 74.5 219.5 L 75.0 218.0 L 77.0 218.0 L 77.5 219.5 L 76.5 220.5 L 76.0 222.0 L 75.5 223.5 L 75.0 225.0 L 74.5 226.5 L 74.0 228.0 L 73.5 229.5 L 73.0 231.0 L 72.5 232.5 L 72.5 234.5 L 71.5 235.5 L 71.5 237.5 L 70.5 238.5 L 70.5 240.5 L 69.5 241.5 L 69.5 243.5 L 68.5 244.5 L 69.0 246.0 L 71.0 246.0 L 73.0 246.0 L 75.0 246.0 L 76.0 245.0 L 78.0 245.0 L 79.0 244.0 L 80.0 243.0 L 80.5 241.5 L 81.5 240.5 L 82.5 239.5 L 83.0 238.0 L 83.5 236.5 L 84.5 235.5 L 85.5 234.5 L 86.0 233.0 L 86.5 231.5 L 87.5 230.5 L 88.5 229.5 L 89.5 228.5 L 90.0 227.0 L 90.5 225.5 L 91.5 224.5 L 92.5 223.5 L 93.5 222.5 L 94.0 221.0 L 94.5 219.5 L 95.5 218.5 L 96.5 217.5 L 97.5 216.5 L 98.0 215.0 L 99.0 214.0 L 100.0 213.0 L 101.0 212.0 L 101.5 210.5 L 102.5 209.5 L 103.5 208.5 L 104.5 207.5 L 105.5 206.5 L 106.5 205.5 L 107.0 204.0 L 108.0 203.0 L 109.5 202.5 L 110.5 201.5 L 111.0 200.0 L 112.0 199.0 L 113.5 198.5 L 114.5 197.5 L 116.0 197.0 L 117.5 197.5 L 118.5 198.5 L 118.5 200.5 L 118.5 202.5 L 118.5 204.5 L 117.5 205.5 L 117.5 207.5 L 117.0 209.0 L 116.5 210.5 L 116.5 212.5 L 115.5 213.5 L 115.5 215.5 L 114.5 216.5 L 113.5 217.5 L 113.0 219.0 L 112.5 220.5 L 112.0 222.0 L 111.5 223.5 L 111.0 225.0 L 110.0 226.0 L 109.5 227.5 L 109.0 229.0 L 108.5 230.5 L 108.0 232.0 L 107.5 233.5 L 107.0 235.0 L 106.5 236.5 L 105.5 237.5 L 105.0 239.0 L 104.5 240.5 L 104.5 242.5 L 103.5 243.5 L 104.5 244.5 L 106.0 245.0 L 108.0 245.0 L 110.0 245.0 L 112.0 245.0 L 113.0 244.0 L 114.5 243.5 L 115.5 242.5 L 116.0 241.0 L 117.0 240.0 L 117.5 238.5 L 118.5 237.5 L 119.0 236.0 L 120.0 235.0 L 121.0 234.0 L 121.5 232.5 L 122.5 231.5 L 123.5 230.5 L 124.0 229.0 L 125.0 228.0 L 125.5 226.5 L 126.5 225.5 L 127.0 224.0 L 128.0 223.0 L 128.5 221.5 L 129.5 220.5 L 130.5 219.5 L 131.0 218.0 L 132.0 217.0 L 133.0 216.0 L 134.0 215.0 L 134.5 213.5 L 135.5 212.5 L 136.5 211.5 L 137.5 210.5 L 138.5 209.5 L 139.0 208.0 L 140.0 207.0 L 141.0 206.0 L 142.0 205.0 L 142.5 203.5 L 143.5 202.5 L 144.5 201.5 L 145.5 200.5 L 146.5 199.5 L 147.5 198.5 L 149.0 198.0 L 150.0 197.0 L 151.0 196.0 L 153.0 196.0 L 155.0 196.0 L 155.5 197.5 L 155.5 199.5 L 155.5 201.5 L 155.0 203.0 L 154.5 204.5 L 153.5 205.5 L 153.0 207.0 L 152.5 208.5 L 151.5 209.5 L 151.5 211.5 L 150.5 212.5 L 149.5 213.5 L 149.0 215.0 L 148.5 216.5 L 148.0 218.0 L 147.5 219.5 L 146.5 220.5 L 146.0 222.0 L 145.5 223.5 L 144.5 224.5 L 144.5 226.5 L 144.0 228.0 L 143.5 229.5 L 143.5 231.5 L 142.5 232.5 L 142.0 234.0 L 141.5 235.5 L 141.5 237.5 L 141.5 239.5 L 141.5 241.5 L 142.0 243.0 L 143.0 244.0 L 144.0 245.0 L 145.0 246.0 L 146.5 246.5 L 148.0 247.0 L 150.0 247.0 L 151.5 246.5 L 153.0 246.0 L 154.5 245.5 L 156.0 245.0 L 157.0 244.0 L 158.5 243.5 L 159.5 242.5 L 161.0 242.0 L 162.0 241.0 L 163.0 240.0 L 164.5 239.5 L 165.5 238.5 L 167.0 238.0 L 168.5 238.5 L 168.5 240.5 L 168.5 242.5 L 169.5 243.5 L 169.5 245.5 L 170.5 246.5 L 171.5 247.5 L 172.5 248.5 L 173.5 249.5 L 174.5 250.5 L 176.0 251.0 L 177.0 252.0 L 179.0 252.0 L 180.0 253.0 L 182.0 253.0 L 183.0 254.0 L 185.0 254.0 L 187.0 254.0 L 189.0 254.0 L 191.0 254.0 L 192.0 253.0 L 194.0 253.0 L 195.0 252.0 L 197.0 252.0 L 198.0 251.0 L 200.0 251.0 L 201.0 250.0 L 202.0 249.0 L 203.0 248.0 L 204.5 247.5 L 205.5 246.5 L 206.5 245.5 L 207.5 244.5 L 208.0 243.0 L 209.0 242.0 L 209.5 240.5 L 210.5 239.5 L 210.5 237.5 L 210.5 235.5 L 210.5 233.5 L 210.5 231.5 L 210.5 229.5 L 210.5 227.5 L 209.5 226.5 L 209.0 225.0 L 208.0 224.0 L 207.5 222.5 L 207.0 221.0 L 206.0 220.0 L 205.5 218.5 L 204.5 217.5 L 203.5 216.5 L 203.0 215.0 L 202.5 213.5 L 201.5 212.5 L 200.5 211.5 L 199.5 210.5 L 199.0 209.0 L 198.5 207.5 L 198.0 206.0 L 197.5 204.5 L 197.5 202.5 L 197.5 200.5 L 197.5 198.5 L 198.0 197.0 L 198.5 195.5 L 199.5 194.5 L 200.0 193.0 L 201.0 192.0 L 202.5 191.5 L 204.0 191.0 L 205.0 190.0 L 207.0 190.0 L 209.0 190.0 L 211.0 190.0 L 212.5 190.5 L 214.0 191.0 L 215.0 192.0 L 216.5 192.5 L 217.0 194.0 L 218.0 195.0 L 218.5 196.5 L 219.5 197.5 L 219.5 199.5 L 221.0 199.0 L 221.5 197.5 L 222.5 196.5 L 222.5 194.5 L 221.5 193.5 L 221.0 192.0 L 220.0 191.0 L 219.0 190.0 L 218.0 189.0 L 216.5 188.5 L 215.0 188.0 L 213.0 188.0 L 211.0 188.0 L 209.0 188.0 L 207.0 188.0 L 205.0 188.0 L 203.0 188.0 L 202.0 189.0 L 200.0 189.0 L 199.0 190.0 L 197.5 190.5 L 196.5 191.5 L 195.0 192.0 L 194.0 193.0 L 193.0 194.0 L 192.0 195.0 L 191.0 196.0 L 190.0 197.0 L 189.5 198.5 L 188.5 199.5 L 188.5 201.5 L 188.0 203.0 L 187.5 204.5 L 187.5 206.5 L 187.5 208.5 L 187.5 210.5 L 187.5 212.5 L 188.5 213.5 L 189.0 215.0 L 190.0 216.0 L 190.5 217.5 L 191.5 218.5 L 192.5 219.5 L 193.0 221.0 L 193.5 222.5 L 194.5 223.5 L 195.5 224.5 L 196.0 226.0 L 196.5 227.5 L 197.5 228.5 L 198.5 229.5 L 199.0 231.0 L 199.5 232.5 L 200.0 234.0 L 200.5 235.5 L 200.5 237.5 L 200.5 239.5 L 200.0 241.0 L 199.5 242.5 L 199.5 244.5 L 198.5 245.5 L 197.5 246.5 L 196.5 247.5 L 196.0 249.0 L 194.5 249.5 L 193.0 250.0 L 192.0 251.0 L 191.0 252.0 L 189.0 252.0 L 187.0 252.0 L 185.0 252.0 L 183.5 251.5 L 182.0 251.0 L 181.0 250.0 L 179.5 249.5 L 178.5 248.5 L 177.5 247.5 L 176.5 246.5 L 175.5 245.5 L 175.0 244.0 L 174.5 242.5 L 174.0 241.0 L 173.5 239.5 L 173.5 237.5 L 173.5 235.5 L 174.0 234.0 L 174.5 232.5 L 174.5 230.5 L 175.5 229.5 L 176.0 228.0 L 177.0 227.0 L 178.0 226.0 L 178.5 224.5 L 179.5 223.5 L 180.5 222.5 L 181.5 221.5 L 182.0 220.0 L 183.0 219.0 L 183.5 217.5 L 182.0 218.0 L 181.5 216.5 L 182.5 215.5 L 183.5 214.5 L 185.0 214.0 L 185.5 212.5 L 185.5 210.5 L 185.5 208.5 L 185.5 206.5 L 185.5 204.5 L 186.0 203.0 L 186.5 201.5 L 186.5 199.5 L 187.5 198.5 L 188.0 197.0 L 189.0 196.0 L 190.0 195.0 L 191.0 194.0 L 191.5 192.5 L 193.0 192.0 L 194.0 191.0 L 195.0 190.0 L 196.0 189.0 L 197.5 188.5 L 199.0 188.0 L 200.0 187.0 L 202.0 187.0 L 203.0 186.0 L 205.0 186.0 L 207.0 186.0 L 208.0 185.0 L 210.0 185.0 L 212.0 185.0 L 213.0 186.0 L 215.0 186.0 L 216.5 186.5 L 218.0 187.0 L 219.0 188.0 L 220.5 188.5 L 221.0 190.0 L 222.0 191.0 L 223.0 192.0 L 223.5 193.5 L 223.5 195.5 L 223.5 197.5 L 223.0 199.0 L 222.0 200.0 L 221.0 201.0 L 220.0 202.0 L 218.5 201.5 L 217.5 200.5 L 217.5 198.5 L 217.5 196.5 L 216.5 195.5 L 215.5 194.5 L 214.5 193.5 L 213.0 193.0 L 212.0 192.0 L 210.0 192.0 L 209.0 191.0 L 207.5 191.5 L 206.0 192.0 L 204.5 192.5 L 203.0 193.0 L 202.0 194.0 L 201.0 195.0 L 200.0 196.0 L 199.5 197.5 L 199.5 199.5 L 198.5 200.5 L 198.5 202.5 L 199.5 203.5 L 199.5 205.5 L 200.5 206.5 L 200.5 208.5 L 201.5 209.5 L 202.0 211.0 L 203.0 212.0 L 203.5 213.5 L 204.5 214.5 L 205.5 215.5 L 206.0 217.0 L 207.0 218.0 L 207.5 219.5 L 208.5 220.5 L 209.0 222.0 L 210.0 223.0 L 210.5 224.5 L 211.5 225.5 L 211.5 227.5 L 212.5 228.5 L 212.5 230.5 L 212.5 232.5 L 212.5 234.5 L 212.5 236.5 L 212.5 238.5 L 211.5 239.5 L 211.5 241.5 L 210.5 242.5 L 209.5 243.5 L 209.0 245.0 L 208.0 246.0 L 207.5 247.5 L 206.0 248.0 L 205.0 249.0 L 204.0 250.0 L 203.0 251.0 L 201.5 251.5 L 200.5 252.5 L 199.0 253.0 L 197.5 253.5 L 196.0 254.0 L 194.5 254.5 L 193.0 255.0 L 191.0 255.0 L 189.0 255.0 L 188.0 256.0 L 186.0 256.0 L 184.5 255.5 L 183.0 255.0 L 181.0 255.0 L 180.0 254.0 L 178.0 254.0 L 177.0 253.0 L 175.0 253.0 L 174.0 252.0 L 173.0 251.0 L 172.0 250.0 L 170.5 249.5 L 170.0 248.0 L 169.0 247.0 L 168.5 245.5 L 167.5 244.5 L 167.5 242.5 L 166.5 241.5 L 166.0 240.0 L 165.0 241.0 L 164.0 242.0 L 162.5 242.5 L 161.5 243.5 L 160.0 244.0 L 159.0 245.0 L 157.5 245.5 L 156.0 246.0 L 155.0 247.0 L 153.5 247.5 L 152.0 248.0 L 150.0 248.0 L 148.0 248.0 L 146.0 248.0 L 144.5 247.5 L 143.0 247.0 L 142.0 246.0 L 141.5 244.5 L 140.5 243.5 L 139.5 242.5 L 139.5 240.5 L 139.5 238.5 L 139.5 236.5 L 139.5 234.5 L 140.5 233.5 L 140.5 231.5 L 141.5 230.5 L 141.5 228.5 L 142.5 227.5 L 142.5 225.5 L 143.5 224.5 L 143.5 222.5 L 144.5 221.5 L 145.0 220.0 L 145.5 218.5 L 146.5 217.5 L 147.0 216.0 L 147.5 214.5 L 148.5 213.5 L 149.0 212.0 L 149.5 210.5 L 150.5 209.5 L 150.5 207.5 L 151.5 206.5 L 151.5 204.5 L 152.5 203.5 L 153.0 202.0 L 153.5 200.5 L 153.5 198.5 L 152.0 198.0 L 150.5 198.5 L 149.5 199.5 L 148.5 200.5 L 147.5 201.5 L 146.5 202.5 L 145.5 203.5 L 144.5 204.5 L 143.5 205.5 L 142.5 206.5 L 141.5 207.5 L 140.5 208.5 L 139.5 209.5 L 139.0 211.0 L 138.0 212.0 L 137.0 213.0 L 136.5 214.5 L 135.5 215.5 L 134.5 216.5 L 133.5 217.5 L 132.5 218.5 L 132.0 220.0 L 131.0 221.0 L 130.0 222.0 L 129.5 223.5 L 128.5 224.5 L 128.0 226.0 L 127.0 227.0 L 126.5 228.5 L 125.5 229.5 L 124.5 230.5 L 124.0 232.0 L 123.5 233.5 L 122.5 234.5 L 121.5 235.5 L 121.0 237.0 L 120.0 238.0 L 119.5 239.5 L 118.5 240.5 L 117.5 241.5 L 117.0 243.0 L 116.0 244.0 L 115.0 245.0 L 114.0 246.0 L 112.5 246.5 L 111.0 247.0 L 109.0 247.0 L 107.0 247.0 L 105.0 247.0 L 104.0 246.0 L 102.5 245.5 L 102.5 243.5 L 102.5 241.5 L 103.0 240.0 L 103.5 238.5 L 104.0 237.0 L 104.5 235.5 L 105.5 234.5 L 105.5 232.5 L 106.5 231.5 L 106.5 229.5 L 107.5 228.5 L 108.0 227.0 L 108.5 225.5 L 109.5 224.5 L 109.5 222.5 L 110.5 221.5 L 110.5 219.5 L 111.5 218.5 L 112.0 217.0 L 112.5 215.5 L 113.5 214.5 L 113.5 212.5 L 114.5 211.5 L 114.5 209.5 L 115.5 208.5 L 115.5 206.5 L 116.5 205.5 L 116.5 203.5 L 117.0 202.0 L 117.5 200.5 L 116.5 199.5 L 115.0 199.0 L 114.0 200.0 L 113.0 201.0 L 112.0 202.0 L 111.0 203.0 L 110.0 204.0 L 109.0 205.0 L 108.0 206.0 L 107.0 207.0 L 106.0 208.0 L 105.0 209.0 L 104.0 210.0 L 103.5 211.5 L 102.5 212.5 L 101.5 213.5 L 100.5 214.5 L 99.5 215.5 L 99.0 217.0 L 98.0 218.0 L 97.0 219.0 L 96.5 220.5 L 95.5 221.5 L 94.5 222.5 L 94.0 224.0 L 93.0 225.0 L 92.5 226.5 L 91.5 227.5 L 91.0 229.0 L 90.0 230.0 L 89.5 231.5 L 88.5 232.5 L 87.5 233.5 L 87.0 235.0 L 86.0 236.0 L 85.5 237.5 L 84.5 238.5 L 84.0 240.0 L 83.5 241.5 L 82.5 242.5 L 81.5 243.5 L 80.5 244.5 L 80.0 246.0 L 78.5 246.5 L 77.0 247.0 L 75.0 247.0 L 73.0 247.0 L 72.0 248.0 L 70.0 248.0 L 68.5 247.5 L 67.0 247.0 L 66.5 245.5 L 67.0 244.0 L 67.5 242.5 L 68.0 241.0 L 68.5 239.5 L 69.0 238.0 L 69.5 236.5 L 70.0 235.0 L 70.5 233.5 L 70.5 231.5 L 71.5 230.5 L 71.5 228.5 L 72.5 227.5 L 73.0 226.0 L 73.5 224.5 L 72.0 225.0 L 71.5 226.5 L 70.5 227.5 L 69.5 228.5 L 68.5 229.5 L 67.5 230.5 L 66.5 231.5 L 65.5 232.5 L 64.5 233.5 Z" fill="#5B4037"/>
<path d="M 261.0 205.0 L 260.0 204.0 L 259.5 202.5 L 260.0 201.0 L 260.5 199.5 L 260.5 197.5 L 261.5 196.5 L 261.5 194.5 L 261.5 192.5 L 262.0 191.0 L 262.5 189.5 L 262.5 187.5 L 263.5 186.5 L 264.5 185.5 L 265.5 186.5 L 265.5 188.5 L 264.5 189.5 L 264.5 191.5 L 264.5 193.5 L 263.5 194.5 L 263.5 196.5 L 263.5 198.5 L 262.5 199.5 L 262.5 201.5 L 262.0 203.0 L 261.5 204.5 Z" fill="#5B4037"/>
<path d="M 64.0 206.0 L 65.0 205.0 L 66.0 204.0 L 67.0 203.0 L 68.0 202.0 L 69.0 201.0 L 69.5 199.5 L 70.5 198.5 L 70.5 196.5 L 71.0 195.0 L 71.5 193.5 L 70.5 192.5 L 70.5 190.5 L 70.0 189.0 L 69.0 188.0 L 67.5 187.5 L 66.0 187.0 L 64.0 187.0 Z" fill="#5B4037"/>
<path d="M 64.0 227.0 L 65.0 226.0 L 66.0 225.0 L 66.5 223.5 L 67.5 222.5 L 68.5 221.5 L 69.5 220.5 L 70.5 219.5 L 71.5 218.5 L 72.5 217.5 L 73.0 216.0 L 74.0 215.0 L 75.0 214.0 L 75.5 212.5 L 76.5 211.5 L 77.5 210.5 L 77.5 208.5 L 78.5 207.5 L 79.0 206.0 L 79.5 204.5 L 80.0 203.0 L 80.5 201.5 L 81.5 200.5 L 82.0 199.0 L 82.5 197.5 L 83.0 196.0 L 83.5 194.5 L 84.5 193.5 L 85.5 192.5 L 86.0 191.0 L 87.0 190.0 L 88.5 189.5 L 89.5 188.5 L 91.0 188.0 L 93.0 188.0 L 94.5 187.5 L 96.0 187.0 L 98.0 187.0 L 99.5 187.5 L 100.5 188.5 L 100.5 190.5 L 100.0 192.0 L 99.5 193.5 L 98.5 194.5 L 98.5 196.5 L 97.5 197.5 L 97.5 199.5 L 96.5 200.5 L 96.5 202.5 L 95.5 203.5 L 95.0 205.0 L 94.5 206.5 L 93.5 207.5 L 93.5 209.5 L 92.5 210.5 L 92.5 212.5 L 91.5 213.5 L 91.5 215.5 L 90.5 216.5 L 90.0 218.0 L 89.5 219.5 L 90.5 218.5 L 91.5 217.5 L 92.5 216.5 L 93.5 215.5 L 94.5 214.5 L 95.0 213.0 L 96.0 212.0 L 97.0 211.0 L 98.0 210.0 L 98.5 208.5 L 99.5 207.5 L 100.5 206.5 L 101.5 205.5 L 102.5 204.5 L 103.0 203.0 L 104.0 202.0 L 105.0 201.0 L 106.0 200.0 L 107.0 199.0 L 108.0 198.0 L 109.0 197.0 L 110.0 196.0 L 111.0 195.0 L 112.5 194.5 L 113.5 193.5 L 114.5 192.5 L 115.5 191.5 L 117.0 191.0 L 118.0 190.0 L 119.0 189.0 L 120.5 188.5 L 122.0 188.0 L 123.5 187.5 L 125.0 187.0 L 126.0 188.0 L 128.0 188.0 L 129.0 189.0 L 130.0 190.0 L 130.5 191.5 L 131.5 192.5 L 132.0 194.0 L 132.5 195.5 L 132.5 197.5 L 132.0 199.0 L 131.5 200.5 L 131.5 202.5 L 130.5 203.5 L 130.0 205.0 L 129.5 206.5 L 129.0 208.0 L 128.5 209.5 L 128.0 211.0 L 127.5 212.5 L 127.0 214.0 L 126.5 215.5 L 125.5 216.5 L 125.0 218.0 L 124.5 219.5 L 125.0 221.0 L 125.5 219.5 L 126.5 218.5 L 127.5 217.5 L 128.0 216.0 L 129.0 215.0 L 130.0 214.0 L 130.5 212.5 L 131.5 211.5 L 132.5 210.5 L 133.5 209.5 L 134.5 208.5 L 135.0 207.0 L 136.0 206.0 L 137.0 205.0 L 138.0 204.0 L 139.0 203.0 L 140.0 202.0 L 141.0 201.0 L 142.0 200.0 L 143.0 199.0 L 144.0 198.0 L 145.0 197.0 L 146.0 196.0 L 147.0 195.0 L 148.0 194.0 L 149.0 193.0 L 150.0 192.0 L 151.5 191.5 L 153.0 191.0 L 154.0 190.0 L 155.0 189.0 L 156.5 188.5 L 158.0 188.0 L 160.0 188.0 L 162.0 188.0 L 164.0 188.0 L 165.0 189.0 L 166.0 190.0 L 167.0 191.0 L 167.5 192.5 L 168.5 193.5 L 168.5 195.5 L 168.5 197.5 L 168.5 199.5 L 168.5 201.5 L 167.5 202.5 L 167.5 204.5 L 167.0 206.0 L 166.5 207.5 L 165.5 208.5 L 165.0 210.0 L 164.5 211.5 L 164.0 213.0 L 163.5 214.5 L 162.5 215.5 L 162.0 217.0 L 161.5 218.5 L 160.5 219.5 L 160.5 221.5 L 159.5 222.5 L 159.0 224.0 L 158.0 225.0 L 157.5 226.5 L 157.0 228.0 L 156.5 229.5 L 156.0 231.0 L 155.5 232.5 L 155.0 234.0 L 154.5 235.5 L 154.0 237.0 L 153.5 238.5 L 155.0 239.0 L 156.0 240.0 L 157.0 239.0 L 159.0 239.0 L 160.0 238.0 L 161.5 237.5 L 162.5 236.5 L 163.5 235.5 L 165.0 235.0 L 166.0 234.0 L 166.5 232.5 L 168.0 232.0 L 169.0 231.0 L 170.0 230.0 L 171.0 229.0 L 172.0 228.0 L 173.0 227.0 L 174.0 226.0 L 175.0 225.0 L 175.5 223.5 L 177.0 223.0 L 177.5 221.5 L 178.5 220.5 L 179.5 219.5 L 180.5 218.5 L 181.5 219.5 L 180.5 220.5 L 179.5 221.5 L 179.0 223.0 L 178.0 224.0 L 177.0 225.0 L 176.0 226.0 L 175.0 227.0 L 174.0 228.0 L 173.0 229.0 L 172.0 230.0 L 171.0 231.0 L 170.0 232.0 L 169.0 233.0 L 168.0 234.0 L 167.0 235.0 L 166.0 236.0 L 165.0 237.0 L 163.5 237.5 L 162.5 238.5 L 161.5 239.5 L 160.0 240.0 L 159.0 241.0 L 157.0 241.0 L 155.0 241.0 L 153.5 240.5 L 152.5 239.5 L 152.5 237.5 L 152.5 235.5 L 153.0 234.0 L 153.5 232.5 L 154.0 231.0 L 154.5 229.5 L 155.0 228.0 L 155.5 226.5 L 156.0 225.0 L 157.0 224.0 L 157.5 222.5 L 158.5 221.5 L 158.5 219.5 L 159.5 218.5 L 160.0 217.0 L 160.5 215.5 L 161.5 214.5 L 162.0 213.0 L 162.5 211.5 L 163.0 210.0 L 163.5 208.5 L 164.0 207.0 L 165.0 206.0 L 165.5 204.5 L 166.0 203.0 L 166.5 201.5 L 166.5 199.5 L 166.5 197.5 L 166.5 195.5 L 166.5 193.5 L 165.5 192.5 L 165.0 191.0 L 163.5 190.5 L 162.0 190.0 L 160.0 190.0 L 158.0 190.0 L 156.5 190.5 L 155.5 191.5 L 154.0 192.0 L 152.5 192.5 L 151.5 193.5 L 150.5 194.5 L 149.5 195.5 L 148.0 196.0 L 147.0 197.0 L 146.0 198.0 L 145.0 199.0 L 144.0 200.0 L 143.0 201.0 L 142.0 202.0 L 141.0 203.0 L 140.0 204.0 L 139.0 205.0 L 138.0 206.0 L 137.5 207.5 L 136.5 208.5 L 135.5 209.5 L 134.5 210.5 L 133.5 211.5 L 132.5 212.5 L 132.0 214.0 L 131.0 215.0 L 130.0 216.0 L 129.5 217.5 L 128.5 218.5 L 127.5 219.5 L 127.0 221.0 L 126.0 222.0 L 125.0 223.0 L 124.5 224.5 L 123.5 225.5 L 122.0 226.0 L 121.5 224.5 L 121.5 222.5 L 122.5 221.5 L 122.5 219.5 L 123.0 218.0 L 123.5 216.5 L 124.0 215.0 L 125.0 214.0 L 125.5 212.5 L 126.5 211.5 L 126.5 209.5 L 127.5 208.5 L 127.5 206.5 L 128.5 205.5 L 129.0 204.0 L 129.5 202.5 L 129.5 200.5 L 130.5 199.5 L 130.5 197.5 L 130.5 195.5 L 130.0 194.0 L 129.5 192.5 L 128.5 191.5 L 127.5 190.5 L 126.5 189.5 L 125.0 189.0 L 123.0 189.0 L 122.0 190.0 L 120.5 190.5 L 119.0 191.0 L 118.0 192.0 L 117.0 193.0 L 115.5 193.5 L 114.5 194.5 L 113.5 195.5 L 112.5 196.5 L 111.0 197.0 L 110.0 198.0 L 109.0 199.0 L 108.0 200.0 L 107.0 201.0 L 106.0 202.0 L 105.5 203.5 L 104.5 204.5 L 103.5 205.5 L 102.5 206.5 L 101.5 207.5 L 100.5 208.5 L 99.5 209.5 L 99.0 211.0 L 98.0 212.0 L 97.0 213.0 L 96.5 214.5 L 95.5 215.5 L 94.5 216.5 L 93.5 217.5 L 92.5 218.5 L 92.0 220.0 L 91.0 221.0 L 90.0 222.0 L 89.5 223.5 L 88.5 224.5 L 87.0 225.0 L 85.5 224.5 L 86.5 223.5 L 86.5 221.5 L 87.5 220.5 L 87.5 218.5 L 88.5 217.5 L 89.0 216.0 L 89.5 214.5 L 90.5 213.5 L 90.5 211.5 L 91.5 210.5 L 91.5 208.5 L 92.5 207.5 L 93.0 206.0 L 93.5 204.5 L 94.0 203.0 L 94.5 201.5 L 95.0 200.0 L 95.5 198.5 L 96.0 197.0 L 96.5 195.5 L 97.5 194.5 L 97.5 192.5 L 98.5 191.5 L 98.5 189.5 L 97.0 189.0 L 95.0 189.0 L 93.0 189.0 L 92.0 190.0 L 90.0 190.0 L 89.0 191.0 L 88.0 192.0 L 87.0 193.0 L 86.0 194.0 L 85.5 195.5 L 84.5 196.5 L 84.0 198.0 L 83.5 199.5 L 83.0 201.0 L 82.5 202.5 L 81.5 203.5 L 81.0 205.0 L 80.5 206.5 L 80.0 208.0 L 79.5 209.5 L 79.0 211.0 L 78.5 212.5 L 77.5 213.5 L 76.5 214.5 L 75.5 215.5 L 75.0 217.0 L 74.0 218.0 L 73.0 219.0 L 72.0 220.0 L 71.0 221.0 L 70.0 222.0 L 69.5 223.5 L 68.5 224.5 L 67.5 225.5 L 66.5 226.5 L 65.5 227.5 L 64.5 228.5 Z" fill="#5B4037"/>
<path d="M 191.5 249.5 L 192.5 248.5 L 194.0 248.0 L 195.0 247.0 L 196.0 246.0 L 196.5 244.5 L 197.5 243.5 L 197.5 241.5 L 198.5 240.5 L 198.5 238.5 L 198.5 236.5 L 198.5 234.5 L 197.5 233.5 L 197.5 231.5 L 196.5 230.5 L 196.0 229.0 L 195.0 228.0 L 194.5 226.5 L 193.5 225.5 L 193.0 224.0 L 192.0 223.0 L 191.5 221.5 L 190.5 220.5 L 190.0 219.0 L 189.0 218.0 L 188.5 216.5 L 187.0 216.0 L 186.0 217.0 L 185.5 218.5 L 184.5 219.5 L 183.5 220.5 L 183.0 222.0 L 182.0 223.0 L 181.5 224.5 L 180.5 225.5 L 179.5 226.5 L 178.5 227.5 L 177.5 228.5 L 177.0 230.0 L 176.5 231.5 L 175.5 232.5 L 175.5 234.5 L 175.5 236.5 L 175.5 238.5 L 175.5 240.5 L 176.0 242.0 L 176.5 243.5 L 177.5 244.5 L 178.0 246.0 L 179.0 247.0 L 180.0 248.0 L 181.5 248.5 L 182.5 249.5 L 184.0 250.0 L 186.0 250.0 L 188.0 250.0 L 190.0 250.0 L 191.5 249.5 Z" fill="#5B4037"/>
<path d="M 64.0 350.0 L 64.5 351.5 L 65.0 353.0 L 65.5 354.5 L 66.0 356.0 L 66.5 357.5 L 67.5 358.5 L 68.0 360.0 L 68.5 361.5 L 69.0 363.0 L 70.0 362.0 L 70.5 360.5 L 71.0 359.0 L 71.5 357.5 L 72.5 356.5 L 73.5 355.5 L 73.5 353.5 L 74.5 352.5 L 74.5 350.5 L 75.5 349.5 L 76.0 348.0 L 76.5 346.5 L 77.5 345.5 L 77.5 343.5 L 79.0 343.0 L 80.0 342.0 L 82.0 342.0 L 84.0 342.0 L 86.0 342.0 L 86.5 343.5 L 85.5 344.5 L 84.5 345.5 L 83.5 346.5 L 84.0 348.0 L 84.5 349.5 L 84.5 351.5 L 84.5 353.5 L 84.5 355.5 L 84.5 357.5 L 84.5 359.5 L 84.5 361.5 L 84.5 363.5 L 84.5 365.5 L 84.5 367.5 L 84.5 369.5 L 85.5 370.5 L 86.0 372.0 L 87.5 372.5 L 88.5 373.5 L 87.5 374.5 L 86.0 375.0 L 84.0 375.0 L 82.0 375.0 L 80.0 375.0 L 78.0 375.0 L 76.5 374.5 L 75.5 373.5 L 76.0 372.0 L 77.0 371.0 L 78.5 370.5 L 78.5 368.5 L 78.5 366.5 L 78.5 364.5 L 78.5 362.5 L 78.5 360.5 L 78.5 358.5 L 78.5 356.5 L 78.5 354.5 L 78.0 353.0 L 76.5 353.5 L 76.0 355.0 L 75.5 356.5 L 75.0 358.0 L 74.5 359.5 L 73.5 360.5 L 73.0 362.0 L 72.5 363.5 L 72.0 365.0 L 71.5 366.5 L 70.5 367.5 L 70.0 369.0 L 69.5 370.5 L 68.5 371.5 L 67.0 372.0 L 66.0 371.0 L 65.5 369.5 L 65.0 368.0 L 64.5 366.5 Z" fill="#5B4037"/>
<path d="M 80.5 356.5 L 80.5 354.5 L 80.5 352.5 L 80.5 350.5 L 80.5 348.5 L 81.0 347.0 L 82.0 348.0 L 82.5 346.5 L 82.5 344.5 L 81.0 344.0 L 79.5 344.5 L 79.0 346.0 L 78.5 347.5 L 79.0 349.0 L 79.5 350.5 L 79.5 352.5 L 79.5 354.5 L 79.5 356.5 Z" fill="#5B4037"/>
<path d="M 107.0 375.0 L 105.0 375.0 L 103.0 375.0 L 101.5 374.5 L 100.0 374.0 L 98.5 373.5 L 97.5 372.5 L 96.0 372.0 L 95.5 370.5 L 94.5 369.5 L 93.5 368.5 L 93.5 366.5 L 92.5 365.5 L 92.5 363.5 L 92.5 361.5 L 92.5 359.5 L 93.5 358.5 L 93.5 356.5 L 94.5 355.5 L 95.0 354.0 L 96.0 353.0 L 97.0 352.0 L 98.5 351.5 L 100.0 351.0 L 101.5 350.5 L 103.0 350.0 L 105.0 350.0 L 107.0 350.0 L 108.0 351.0 L 110.0 351.0 L 111.5 351.5 L 112.5 352.5 L 113.5 353.5 L 114.5 354.5 L 115.5 355.5 L 116.0 357.0 L 116.5 358.5 L 117.0 360.0 L 117.5 361.5 L 117.5 363.5 L 117.0 365.0 L 116.5 366.5 L 116.0 368.0 L 115.0 369.0 L 114.5 370.5 L 113.5 371.5 L 112.5 372.5 L 111.0 373.0 L 110.0 374.0 L 108.0 374.0 L 107.0 375.0 Z" fill="#5B4037"/>
<path d="M 147.0 375.0 L 146.0 374.0 L 144.0 374.0 L 142.0 374.0 L 140.5 373.5 L 141.0 372.0 L 142.0 371.0 L 142.5 369.5 L 142.5 367.5 L 142.5 365.5 L 142.5 363.5 L 142.5 361.5 L 142.5 359.5 L 141.5 360.5 L 140.5 361.5 L 140.5 363.5 L 139.5 364.5 L 139.0 366.0 L 138.0 367.0 L 137.5 368.5 L 137.0 370.0 L 136.5 371.5 L 135.5 372.5 L 134.0 373.0 L 133.0 372.0 L 132.0 371.0 L 131.5 369.5 L 130.5 368.5 L 130.5 366.5 L 129.5 365.5 L 129.0 364.0 L 128.5 362.5 L 127.5 361.5 L 127.0 360.0 L 126.5 361.5 L 126.5 363.5 L 126.5 365.5 L 126.5 367.5 L 126.5 369.5 L 127.0 371.0 L 128.0 372.0 L 128.5 373.5 L 127.0 374.0 L 125.0 374.0 L 123.0 374.0 L 121.5 373.5 L 122.0 372.0 L 123.0 371.0 L 123.5 369.5 L 123.5 367.5 L 123.5 365.5 L 123.5 363.5 L 123.5 361.5 L 123.5 359.5 L 123.5 357.5 L 123.5 355.5 L 123.0 354.0 L 122.0 353.0 L 121.5 351.5 L 123.0 351.0 L 125.0 351.0 L 127.0 351.0 L 128.5 351.5 L 129.0 353.0 L 129.5 354.5 L 130.5 355.5 L 131.0 357.0 L 131.5 358.5 L 132.5 359.5 L 133.0 361.0 L 133.5 362.5 L 134.5 363.5 L 135.0 365.0 L 136.5 364.5 L 137.0 363.0 L 137.5 361.5 L 138.5 360.5 L 138.5 358.5 L 139.5 357.5 L 140.0 356.0 L 141.0 355.0 L 141.5 353.5 L 142.0 352.0 L 143.0 351.0 L 145.0 351.0 L 146.5 350.5 L 148.0 351.0 L 149.5 351.5 L 148.5 352.5 L 147.5 353.5 L 147.5 355.5 L 147.5 357.5 L 147.5 359.5 L 147.5 361.5 L 147.5 363.5 L 147.5 365.5 L 147.5 367.5 L 148.0 369.0 L 148.5 370.5 L 149.0 372.0 L 149.5 373.5 L 148.0 374.0 L 147.0 375.0 Z" fill="#5B4037"/>
<path d="M 223.0 374.0 L 221.0 374.0 L 219.0 374.0 L 217.0 374.0 L 215.0 374.0 L 213.5 373.5 L 214.0 372.0 L 215.5 371.5 L 215.5 369.5 L 215.5 367.5 L 215.5 365.5 L 215.5 363.5 L 215.5 361.5 L 215.5 359.5 L 215.5 357.5 L 215.5 355.5 L 215.0 354.0 L 214.0 353.0 L 212.5 353.5 L 211.0 354.0 L 210.5 355.5 L 209.5 356.5 L 208.0 356.0 L 207.5 354.5 L 207.5 352.5 L 208.0 351.0 L 209.0 350.0 L 210.5 350.5 L 212.0 351.0 L 214.0 351.0 L 216.0 351.0 L 218.0 351.0 L 220.0 351.0 L 222.0 351.0 L 224.0 351.0 L 226.0 351.0 L 228.0 351.0 L 228.5 352.5 L 229.5 353.5 L 229.5 355.5 L 228.0 356.0 L 226.5 355.5 L 226.0 354.0 L 224.0 354.0 L 223.0 353.0 L 221.5 353.5 L 220.5 354.5 L 220.5 356.5 L 220.5 358.5 L 220.5 360.5 L 220.5 362.5 L 220.5 364.5 L 220.5 366.5 L 220.5 368.5 L 220.5 370.5 L 221.5 371.5 L 222.5 372.5 L 223.5 373.5 Z" fill="#5B4037"/>
<path d="M 244.0 375.0 L 242.0 375.0 L 240.0 375.0 L 238.0 375.0 L 237.0 374.0 L 235.0 374.0 L 234.5 372.5 L 233.5 371.5 L 233.5 369.5 L 234.0 368.0 L 236.0 368.0 L 236.5 369.5 L 237.5 370.5 L 238.5 371.5 L 240.0 372.0 L 242.0 372.0 L 243.5 371.5 L 244.5 370.5 L 245.5 369.5 L 245.0 368.0 L 244.0 367.0 L 243.0 366.0 L 241.5 365.5 L 240.0 365.0 L 239.0 364.0 L 238.0 363.0 L 236.5 362.5 L 235.5 361.5 L 234.5 360.5 L 234.0 359.0 L 233.5 357.5 L 234.0 356.0 L 234.5 354.5 L 235.0 353.0 L 236.0 352.0 L 237.5 351.5 L 239.0 351.0 L 240.0 350.0 L 242.0 350.0 L 244.0 350.0 L 245.0 351.0 L 247.0 351.0 L 248.0 352.0 L 248.5 353.5 L 248.5 355.5 L 248.0 357.0 L 246.5 356.5 L 246.0 355.0 L 245.0 354.0 L 244.0 353.0 L 242.0 353.0 L 240.0 353.0 L 239.0 354.0 L 238.5 355.5 L 239.0 357.0 L 240.0 358.0 L 241.0 359.0 L 242.5 359.5 L 244.0 360.0 L 245.0 361.0 L 246.0 362.0 L 247.5 362.5 L 248.5 363.5 L 249.5 364.5 L 249.5 366.5 L 250.5 367.5 L 250.0 369.0 L 249.5 370.5 L 248.5 371.5 L 248.0 373.0 L 246.5 373.5 L 245.0 374.0 L 244.0 375.0 Z" fill="#5B4037"/>
<path d="M 173.0 374.0 L 171.0 374.0 L 169.0 374.0 L 167.0 374.0 L 165.0 374.0 L 163.0 374.0 L 161.0 374.0 L 159.0 374.0 L 157.0 374.0 L 155.5 373.5 L 156.5 372.5 L 157.5 371.5 L 158.5 370.5 L 158.5 368.5 L 158.5 366.5 L 158.5 364.5 L 158.5 362.5 L 158.5 360.5 L 158.5 358.5 L 158.5 356.5 L 158.5 354.5 L 157.5 353.5 L 156.5 352.5 L 155.5 351.5 L 157.0 351.0 L 159.0 351.0 L 161.0 351.0 L 163.0 351.0 L 165.0 351.0 L 167.0 351.0 L 169.0 351.0 L 171.0 351.0 L 172.5 351.5 L 173.0 353.0 L 173.5 354.5 L 172.5 355.5 L 171.0 355.0 L 170.0 354.0 L 168.0 354.0 L 166.5 353.5 L 165.0 353.0 L 164.0 354.0 L 162.5 354.5 L 162.5 356.5 L 162.5 358.5 L 163.0 360.0 L 165.0 360.0 L 167.0 360.0 L 168.0 359.0 L 169.0 358.0 L 169.5 359.5 L 169.5 361.5 L 169.5 363.5 L 169.0 365.0 L 167.5 364.5 L 166.5 363.5 L 165.0 363.0 L 163.5 363.5 L 162.5 364.5 L 162.5 366.5 L 162.5 368.5 L 162.5 370.5 L 164.0 371.0 L 166.0 371.0 L 168.0 371.0 L 170.0 371.0 L 170.5 369.5 L 171.5 368.5 L 173.0 368.0 L 173.5 369.5 L 173.5 371.5 L 173.5 373.5 Z" fill="#5B4037"/>
<path d="M 200.0 374.0 L 198.0 374.0 L 197.0 373.0 L 196.0 372.0 L 195.0 371.0 L 194.0 370.0 L 193.5 368.5 L 192.5 367.5 L 191.5 366.5 L 190.5 365.5 L 189.5 364.5 L 188.5 363.5 L 188.0 362.0 L 187.0 361.0 L 186.0 360.0 L 185.5 358.5 L 187.0 359.0 L 188.0 360.0 L 189.0 361.0 L 190.0 362.0 L 191.0 363.0 L 192.0 364.0 L 192.5 365.5 L 193.5 366.5 L 194.5 367.5 L 195.5 368.5 L 196.5 369.5 L 197.0 371.0 L 198.0 372.0 L 198.5 370.5 L 198.5 368.5 L 197.0 368.0 L 196.0 367.0 L 195.0 366.0 L 194.5 364.5 L 193.5 363.5 L 192.5 362.5 L 191.0 362.0 L 190.0 361.0 L 190.5 359.5 L 189.5 358.5 L 188.5 357.5 L 187.5 356.5 L 186.5 355.5 L 185.5 354.5 L 184.5 353.5 L 183.0 353.0 L 184.0 354.0 L 183.5 355.5 L 185.0 356.0 L 186.5 356.5 L 185.5 357.5 L 184.5 358.5 L 184.5 360.5 L 184.5 362.5 L 184.5 364.5 L 184.5 366.5 L 184.5 368.5 L 184.5 370.5 L 185.5 371.5 L 186.5 372.5 L 187.5 373.5 L 186.0 374.0 L 184.0 374.0 L 182.0 374.0 L 180.0 374.0 L 178.5 373.5 L 179.5 372.5 L 180.5 371.5 L 181.5 370.5 L 181.5 368.5 L 181.5 366.5 L 181.5 364.5 L 181.5 362.5 L 181.5 360.5 L 181.5 358.5 L 181.5 356.5 L 181.5 354.5 L 180.5 353.5 L 179.5 352.5 L 178.5 351.5 L 180.0 351.0 L 182.0 351.0 L 184.0 351.0 L 185.5 351.5 L 186.5 352.5 L 187.5 353.5 L 188.0 355.0 L 189.0 356.0 L 190.0 357.0 L 191.0 358.0 L 192.0 359.0 L 192.5 360.5 L 193.5 361.5 L 194.5 362.5 L 195.5 363.5 L 196.5 364.5 L 197.0 366.0 L 197.5 364.5 L 197.5 362.5 L 197.5 360.5 L 197.5 358.5 L 197.5 356.5 L 197.5 354.5 L 197.0 353.0 L 195.5 352.5 L 196.0 351.0 L 198.0 351.0 L 200.0 351.0 L 202.0 351.0 L 203.5 351.5 L 202.5 352.5 L 201.5 353.5 L 200.5 354.5 L 200.5 356.5 L 200.5 358.5 L 200.5 360.5 L 200.5 362.5 L 200.5 364.5 L 200.5 366.5 L 200.5 368.5 L 200.5 370.5 L 200.5 372.5 L 200.0 374.0 Z" fill="#5B4037"/>
<path d="M 107.5 371.5 L 109.0 371.0 L 110.0 370.0 L 110.5 368.5 L 111.0 367.0 L 111.5 365.5 L 111.5 363.5 L 111.5 361.5 L 111.5 359.5 L 111.0 358.0 L 110.5 356.5 L 110.0 355.0 L 109.0 354.0 L 107.5 353.5 L 106.0 353.0 L 104.0 353.0 L 102.0 353.0 L 100.5 353.5 L 99.5 354.5 L 99.0 356.0 L 98.5 357.5 L 97.5 358.5 L 97.5 360.5 L 97.5 362.5 L 97.5 364.5 L 98.5 365.5 L 98.5 367.5 L 99.5 368.5 L 100.0 370.0 L 101.0 371.0 L 102.5 371.5 L 104.0 372.0 L 106.0 372.0 L 107.5 371.5 Z" fill="#5B4037"/>
<path d="M 129.5 359.5 L 130.5 358.5 L 129.5 357.5 L 129.0 356.0 L 128.0 355.0 L 127.5 353.5 L 126.0 353.0 L 125.5 354.5 L 126.0 356.0 L 127.0 357.0 L 128.0 358.0 L 129.5 358.5 L 128.5 359.5 Z" fill="#5B4037"/>
<path d="M 64.0 361.0 L 64.5 362.5 L 65.0 364.0 L 65.5 365.5 L 66.5 366.5 L 67.0 368.0 L 68.0 369.0 L 69.0 368.0 L 67.5 367.5 L 67.0 366.0 L 66.5 364.5 L 68.0 365.0 L 67.5 363.5 L 67.0 362.0 L 66.0 363.0 L 65.5 361.5 L 66.5 360.5 L 66.0 359.0 L 65.5 357.5 L 64.5 356.5 L 64.0 355.0 Z" fill="#5B4037"/>
<path d="M 98.5 370.5 L 97.5 369.5 L 97.0 368.0 L 96.5 366.5 L 96.0 365.0 L 95.5 363.5 L 95.5 361.5 L 95.5 359.5 L 96.0 358.0 L 94.5 358.5 L 94.5 360.5 L 94.5 362.5 L 94.5 364.5 L 94.5 366.5 L 95.5 367.5 L 96.0 369.0 L 97.0 370.0 L 98.0 371.0 Z" fill="#5B4037"/>
<path d="M 247.5 366.5 L 247.0 365.0 L 246.0 364.0 L 245.0 363.0 L 244.0 362.0 L 242.5 361.5 L 241.0 361.0 L 240.0 360.0 L 238.5 359.5 L 237.5 358.5 L 237.0 357.0 L 235.5 357.5 L 236.0 359.0 L 236.5 360.5 L 237.5 361.5 L 239.0 362.0 L 240.0 363.0 L 242.0 363.0 L 243.0 364.0 L 244.5 364.5 L 245.5 365.5 L 246.5 366.5 Z" fill="#5B4037"/>
<path d="M 114.5 367.5 L 114.5 365.5 L 115.5 364.5 L 115.5 362.5 L 115.5 360.5 L 115.0 359.0 L 114.0 358.0 L 112.5 358.5 L 113.0 360.0 L 113.5 361.5 L 113.5 363.5 L 113.0 365.0 L 112.5 366.5 L 113.5 367.5 Z" fill="#5B4037"/>
<path d="M 132.5 366.5 L 133.5 365.5 L 133.0 364.0 L 132.5 362.5 L 131.0 363.0 L 130.5 361.5 L 131.5 360.5 L 130.0 361.0 L 129.5 362.5 L 130.5 363.5 L 131.0 365.0 L 132.0 364.0 L 132.5 365.5 L 131.5 366.5 Z" fill="#5B4037"/>
<path d="M 83.5 372.5 L 83.5 370.5 L 83.5 368.5 L 82.5 367.5 L 82.5 365.5 L 82.5 363.5 L 82.0 362.0 L 81.5 363.5 L 80.5 364.5 L 80.5 366.5 L 81.5 367.5 L 81.5 369.5 L 82.0 371.0 L 81.0 372.0 L 80.0 371.0 L 79.5 372.5 L 81.0 373.0 L 83.0 373.0 Z" fill="#5B4037"/>
</svg>