<svg xmlns="http://www.w3.org/2000/svg" viewBox="0 0 361 284" width="361" height="284" role="img" aria-labelledby="title desc">
<title>Simcha Poems quill light</title>
<desc>Custom vector asset generated from approved Simcha Poems logo concept.</desc>
<path d="M 0.0 191.5 L 2.0 191.5 L 4.0 191.5 L 6.0 191.5 L 8.0 191.5 L 10.0 191.5 L 12.0 191.5 L 14.0 191.5 L 16.0 191.5 L 18.0 191.5 L 20.0 191.5 L 21.5 191.0 L 23.0 190.5 L 25.0 190.5 L 27.0 190.5 L 29.0 190.5 L 31.0 190.5 L 32.0 189.5 L 34.0 189.5 L 36.0 189.5 L 38.0 189.5 L 40.0 189.5 L 41.5 189.0 L 43.0 188.5 L 45.0 188.5 L 47.0 188.5 L 49.0 188.5 L 51.0 188.5 L 52.5 188.0 L 54.0 187.5 L 56.0 187.5 L 58.0 187.5 L 60.0 187.5 L 61.0 186.5 L 63.0 186.5 L 65.0 186.5 L 66.0 185.5 L 68.0 185.5 L 70.0 185.5 L 71.0 184.5 L 73.0 184.5 L 75.0 184.5 L 77.0 184.5 L 78.0 183.5 L 80.0 183.5 L 82.0 183.5 L 83.0 182.5 L 85.0 182.5 L 86.0 181.5 L 88.0 181.5 L 90.0 181.5 L 91.0 180.5 L 93.0 180.5 L 94.5 180.0 L 96.0 179.5 L 98.0 179.5 L 99.0 178.5 L 101.0 178.5 L 102.0 177.5 L 104.0 177.5 L 105.5 177.0 L 107.0 176.5 L 109.0 176.5 L 110.0 175.5 L 112.0 175.5 L 113.0 174.5 L 114.5 174.0 L 116.0 173.5 L 117.5 173.0 L 119.0 172.5 L 120.5 172.0 L 122.0 171.5 L 123.5 171.0 L 125.0 170.5 L 126.0 169.5 L 127.5 169.0 L 129.0 168.5 L 130.5 168.0 L 132.0 167.5 L 133.0 166.5 L 134.5 166.0 L 136.0 165.5 L 137.0 164.5 L 138.5 164.0 L 140.0 163.5 L 141.0 162.5 L 142.0 161.5 L 143.5 161.0 L 145.0 160.5 L 146.0 159.5 L 147.0 158.5 L 148.5 158.0 L 149.5 157.0 L 150.5 156.0 L 152.0 155.5 L 153.0 154.5 L 154.0 153.5 L 155.0 152.5 L 156.0 151.5 L 157.0 150.5 L 158.0 149.5 L 159.0 148.5 L 160.0 147.5 L 161.5 147.0 L 162.5 146.0 L 163.5 145.0 L 164.5 144.0 L 165.5 143.0 L 166.5 142.0 L 167.5 141.0 L 169.0 140.5 L 170.0 139.5 L 171.0 138.5 L 172.0 137.5 L 173.0 136.5 L 174.0 135.5 L 175.5 135.0 L 176.5 134.0 L 177.5 133.0 L 178.5 132.0 L 179.5 131.0 L 180.5 130.0 L 181.5 129.0 L 182.5 128.0 L 184.0 127.5 L 185.0 126.5 L 186.0 125.5 L 187.0 124.5 L 188.0 123.5 L 189.0 122.5 L 190.0 121.5 L 191.0 120.5 L 192.5 120.0 L 193.5 119.0 L 194.5 118.0 L 195.5 117.0 L 197.0 116.5 L 198.0 115.5 L 199.0 114.5 L 200.0 113.5 L 201.0 112.5 L 202.0 111.5 L 203.5 111.0 L 204.5 110.0 L 205.5 109.0 L 206.5 108.0 L 207.5 107.0 L 208.5 106.0 L 210.0 105.5 L 211.0 104.5 L 212.0 103.5 L 213.0 102.5 L 214.0 101.5 L 215.0 100.5 L 216.0 99.5 L 217.5 99.0 L 218.5 98.0 L 219.5 97.0 L 220.5 96.0 L 222.0 95.5 L 222.5 94.0 L 223.5 93.0 L 225.0 92.5 L 226.0 91.5 L 227.0 90.5 L 228.0 89.5 L 229.0 88.5 L 230.0 87.5 L 231.5 87.0 L 232.5 86.0 L 233.5 85.0 L 234.5 84.0 L 236.0 83.5 L 237.0 82.5 L 238.0 81.5 L 239.0 80.5 L 240.0 79.5 L 241.5 79.0 L 242.5 78.0 L 243.5 77.0 L 244.5 76.0 L 245.5 75.0 L 246.5 74.0 L 248.0 73.5 L 249.0 72.5 L 250.0 71.5 L 251.0 70.5 L 252.0 69.5 L 253.5 69.0 L 254.5 68.0 L 255.5 67.0 L 257.0 66.5 L 258.0 65.5 L 259.0 64.5 L 260.0 63.5 L 261.5 63.0 L 262.5 62.0 L 263.5 61.0 L 265.0 60.5 L 266.0 59.5 L 267.0 58.5 L 268.0 57.5 L 269.5 57.0 L 270.5 56.0 L 272.0 55.5 L 273.0 54.5 L 274.0 53.5 L 275.0 52.5 L 276.5 52.0 L 277.5 51.0 L 278.5 50.0 L 280.0 49.5 L 281.0 48.5 L 282.5 48.0 L 283.5 47.0 L 284.5 46.0 L 286.0 45.5 L 287.0 44.5 L 288.5 44.0 L 289.5 43.0 L 290.5 42.0 L 292.0 41.5 L 293.0 40.5 L 294.5 40.0 L 295.5 39.0 L 294.0 39.5 L 292.5 40.0 L 291.0 40.5 L 290.0 41.5 L 289.0 42.5 L 287.5 43.0 L 286.0 43.5 L 285.0 44.5 L 284.0 45.5 L 282.5 46.0 L 281.0 46.5 L 280.0 47.5 L 279.0 48.5 L 278.0 49.5 L 276.5 50.0 L 275.0 50.5 L 274.0 51.5 L 272.5 52.0 L 271.5 53.0 L 270.0 53.5 L 269.0 54.5 L 268.0 55.5 L 266.5 56.0 L 265.5 57.0 L 264.5 58.0 L 263.0 58.5 L 262.0 59.5 L 261.0 60.5 L 260.0 61.5 L 258.5 62.0 L 257.5 63.0 L 256.0 63.5 L 255.0 64.5 L 254.0 65.5 L 253.0 66.5 L 251.5 67.0 L 250.5 68.0 L 249.0 68.5 L 248.0 69.5 L 247.0 70.5 L 246.0 71.5 L 244.5 72.0 L 243.5 73.0 L 242.5 74.0 L 241.5 75.0 L 240.0 75.5 L 239.0 76.5 L 238.0 77.5 L 237.0 78.5 L 235.5 79.0 L 234.5 80.0 L 233.5 81.0 L 232.5 82.0 L 231.5 83.0 L 230.0 83.5 L 229.0 84.5 L 228.0 85.5 L 227.0 86.5 L 225.5 87.0 L 224.5 88.0 L 223.5 89.0 L 222.5 90.0 L 221.5 91.0 L 220.5 92.0 L 219.5 93.0 L 218.0 93.5 L 217.0 94.5 L 216.0 95.5 L 215.0 96.5 L 214.0 97.5 L 213.0 98.5 L 212.0 99.5 L 210.5 100.0 L 209.5 101.0 L 208.5 102.0 L 207.5 103.0 L 206.0 103.5 L 206.5 102.0 L 207.5 101.0 L 208.5 100.0 L 209.5 99.0 L 210.5 98.0 L 211.5 97.0 L 213.0 96.5 L 214.0 95.5 L 215.0 94.5 L 216.0 93.5 L 217.0 92.5 L 218.5 92.0 L 219.5 91.0 L 220.0 89.5 L 221.5 89.0 L 222.5 88.0 L 223.5 87.0 L 224.5 86.0 L 226.0 85.5 L 227.0 84.5 L 228.0 83.5 L 229.0 82.5 L 230.0 81.5 L 231.5 81.0 L 232.5 80.0 L 233.5 79.0 L 233.5 77.0 L 234.0 75.5 L 234.5 74.0 L 234.5 72.0 L 235.5 71.0 L 235.5 69.0 L 235.5 67.0 L 236.0 65.5 L 236.5 64.0 L 236.5 62.0 L 237.5 61.0 L 237.5 59.0 L 237.5 57.0 L 238.5 56.0 L 238.5 54.0 L 238.5 52.0 L 239.5 51.0 L 239.5 49.0 L 240.0 47.5 L 240.5 46.0 L 241.5 45.0 L 242.0 43.5 L 241.0 42.5 L 240.5 44.0 L 239.5 45.0 L 238.0 45.5 L 237.0 46.5 L 236.0 47.5 L 235.0 48.5 L 234.0 49.5 L 233.0 50.5 L 231.5 51.0 L 231.0 52.5 L 230.0 53.5 L 229.0 54.5 L 228.5 56.0 L 227.5 57.0 L 227.0 58.5 L 226.5 60.0 L 225.5 61.0 L 225.5 63.0 L 225.0 64.5 L 224.5 66.0 L 224.5 68.0 L 224.0 69.5 L 223.5 71.0 L 223.5 73.0 L 223.5 75.0 L 223.5 77.0 L 223.0 78.5 L 222.5 80.0 L 222.5 82.0 L 221.5 83.0 L 221.5 85.0 L 220.5 86.0 L 219.5 85.0 L 219.5 83.0 L 219.5 81.0 L 219.5 79.0 L 219.5 77.0 L 219.5 75.0 L 219.0 73.5 L 218.5 72.0 L 218.5 70.0 L 218.5 68.0 L 219.0 66.5 L 219.5 65.0 L 219.5 63.0 L 220.0 61.5 L 220.5 60.0 L 221.0 58.5 L 221.5 57.0 L 222.0 55.5 L 222.5 54.0 L 221.0 54.5 L 220.0 55.5 L 219.0 56.5 L 218.0 57.5 L 217.0 58.5 L 216.0 59.5 L 216.5 61.0 L 216.5 63.0 L 216.5 65.0 L 216.0 66.5 L 215.5 68.0 L 215.5 70.0 L 215.5 72.0 L 214.5 73.0 L 214.5 75.0 L 214.5 77.0 L 214.5 79.0 L 214.5 81.0 L 214.5 83.0 L 214.5 85.0 L 214.5 87.0 L 214.0 88.5 L 213.5 90.0 L 213.5 92.0 L 212.0 92.5 L 211.5 91.0 L 211.5 89.0 L 211.5 87.0 L 211.5 85.0 L 211.5 83.0 L 211.5 81.0 L 211.5 79.0 L 211.5 77.0 L 212.0 75.5 L 212.5 74.0 L 212.5 72.0 L 212.5 70.0 L 212.5 68.0 L 213.5 67.0 L 213.5 65.0 L 214.0 63.5 L 214.5 62.0 L 213.0 62.5 L 211.5 63.0 L 211.0 64.5 L 210.0 65.5 L 208.5 66.0 L 207.5 67.0 L 206.5 68.0 L 205.5 69.0 L 204.5 70.0 L 203.5 71.0 L 203.0 72.5 L 202.0 73.5 L 201.0 74.5 L 200.5 76.0 L 199.5 77.0 L 198.5 78.0 L 197.5 79.0 L 197.0 80.5 L 196.5 82.0 L 195.5 83.0 L 195.5 85.0 L 194.5 86.0 L 193.5 87.0 L 193.0 88.5 L 192.5 90.0 L 192.0 91.5 L 191.5 93.0 L 191.0 94.5 L 190.5 96.0 L 189.5 97.0 L 189.5 99.0 L 189.0 100.5 L 188.5 102.0 L 188.5 104.0 L 187.5 105.0 L 187.5 107.0 L 187.5 109.0 L 186.5 110.0 L 186.0 111.5 L 185.5 113.0 L 185.0 114.5 L 184.5 116.0 L 184.0 117.5 L 183.5 119.0 L 183.0 120.5 L 184.0 121.5 L 185.0 120.5 L 186.0 119.5 L 187.0 118.5 L 188.0 117.5 L 189.0 116.5 L 190.5 116.0 L 191.0 114.5 L 192.0 113.5 L 193.5 113.0 L 194.5 112.0 L 195.5 111.0 L 196.5 110.0 L 197.5 109.0 L 199.0 108.5 L 200.0 107.5 L 201.0 106.5 L 202.0 105.5 L 203.0 104.5 L 204.0 103.5 L 205.5 104.0 L 204.5 105.0 L 203.5 106.0 L 202.5 107.0 L 201.5 108.0 L 200.5 109.0 L 199.5 110.0 L 198.0 110.5 L 197.0 111.5 L 196.0 112.5 L 195.0 113.5 L 194.0 114.5 L 193.0 115.5 L 192.0 116.5 L 191.0 117.5 L 190.0 118.5 L 188.5 119.0 L 187.5 120.0 L 186.5 121.0 L 185.5 122.0 L 184.5 123.0 L 183.5 124.0 L 182.5 125.0 L 181.5 126.0 L 180.0 126.5 L 178.5 126.0 L 179.0 124.5 L 179.5 123.0 L 180.5 122.0 L 181.0 120.5 L 181.5 119.0 L 182.5 118.0 L 182.5 116.0 L 183.0 114.5 L 183.5 113.0 L 184.0 111.5 L 184.5 110.0 L 185.0 108.5 L 185.5 107.0 L 185.5 105.0 L 186.5 104.0 L 186.5 102.0 L 187.0 100.5 L 187.5 99.0 L 188.0 97.5 L 188.5 96.0 L 189.0 94.5 L 189.5 93.0 L 190.0 91.5 L 190.5 90.0 L 191.5 89.0 L 191.5 87.0 L 192.5 86.0 L 193.5 85.0 L 194.0 83.5 L 194.5 82.0 L 195.0 80.5 L 196.0 79.5 L 196.5 78.0 L 197.5 77.0 L 198.5 76.0 L 199.0 74.5 L 200.0 73.5 L 201.0 72.5 L 201.5 71.0 L 202.5 70.0 L 203.5 69.0 L 204.5 68.0 L 205.5 67.0 L 206.5 66.0 L 207.5 65.0 L 208.5 64.0 L 209.5 63.0 L 210.5 62.0 L 211.5 61.0 L 212.5 60.0 L 213.5 59.0 L 214.5 58.0 L 215.5 57.0 L 216.5 56.0 L 218.0 55.5 L 219.0 54.5 L 220.0 53.5 L 221.0 52.5 L 222.0 51.5 L 223.5 51.0 L 225.0 50.5 L 225.5 52.0 L 224.5 53.0 L 224.5 55.0 L 223.5 56.0 L 223.0 57.5 L 222.5 59.0 L 222.0 60.5 L 221.5 62.0 L 221.5 64.0 L 221.0 65.5 L 220.5 67.0 L 220.5 69.0 L 220.5 71.0 L 220.5 73.0 L 221.5 72.0 L 222.5 71.0 L 222.5 69.0 L 222.5 67.0 L 223.0 65.5 L 223.5 64.0 L 223.5 62.0 L 224.5 61.0 L 224.5 59.0 L 225.5 58.0 L 226.0 56.5 L 226.5 55.0 L 227.5 54.0 L 228.0 52.5 L 229.0 51.5 L 230.0 50.5 L 231.0 49.5 L 232.0 48.5 L 233.0 47.5 L 234.0 46.5 L 235.0 45.5 L 236.5 45.0 L 237.5 44.0 L 238.5 43.0 L 239.5 42.0 L 241.0 41.5 L 242.0 40.5 L 243.0 39.5 L 244.5 39.0 L 246.0 38.5 L 247.5 39.0 L 246.5 40.0 L 245.5 41.0 L 244.5 42.0 L 244.0 43.5 L 243.5 45.0 L 242.5 46.0 L 242.0 47.5 L 241.5 49.0 L 241.0 50.5 L 240.5 52.0 L 240.5 54.0 L 240.0 55.5 L 239.5 57.0 L 239.5 59.0 L 239.5 61.0 L 238.5 62.0 L 238.5 64.0 L 239.5 63.0 L 240.0 61.5 L 240.5 60.0 L 241.5 59.0 L 241.5 57.0 L 242.0 55.5 L 242.5 54.0 L 243.0 52.5 L 243.5 51.0 L 244.0 49.5 L 245.0 48.5 L 245.5 47.0 L 246.5 46.0 L 247.0 44.5 L 248.0 43.5 L 249.0 42.5 L 250.0 41.5 L 251.0 40.5 L 252.0 39.5 L 253.0 38.5 L 254.5 38.0 L 255.5 37.0 L 257.0 36.5 L 258.0 35.5 L 259.0 34.5 L 260.5 34.0 L 261.5 33.0 L 263.0 32.5 L 264.5 32.0 L 266.0 31.5 L 267.0 30.5 L 268.5 30.0 L 270.0 29.5 L 271.0 28.5 L 273.0 28.5 L 274.0 27.5 L 275.5 27.0 L 277.0 26.5 L 278.0 25.5 L 279.5 25.0 L 281.0 24.5 L 282.5 24.0 L 284.0 23.5 L 286.0 23.5 L 287.0 22.5 L 288.5 23.0 L 289.0 24.5 L 290.0 23.5 L 291.5 23.0 L 292.5 22.0 L 294.0 21.5 L 295.0 20.5 L 296.5 20.0 L 298.0 19.5 L 299.5 19.0 L 301.0 18.5 L 302.5 18.0 L 304.0 17.5 L 306.0 17.5 L 307.0 16.5 L 309.0 16.5 L 311.0 16.5 L 312.0 15.5 L 314.0 15.5 L 315.5 15.0 L 317.0 14.5 L 318.5 14.0 L 320.0 13.5 L 322.0 13.5 L 323.5 13.0 L 325.0 12.5 L 327.0 12.5 L 329.0 12.5 L 330.0 11.5 L 332.0 11.5 L 334.0 11.5 L 336.0 11.5 L 338.0 11.5 L 339.5 11.0 L 341.0 10.5 L 343.0 10.5 L 345.0 10.5 L 346.0 11.5 L 348.0 11.5 L 349.5 12.0 L 349.0 13.5 L 348.5 15.0 L 348.0 16.5 L 347.5 18.0 L 346.5 19.0 L 345.5 20.0 L 344.5 21.0 L 344.0 22.5 L 343.0 23.5 L 342.0 24.5 L 341.5 26.0 L 340.5 27.0 L 339.5 28.0 L 338.5 29.0 L 337.5 30.0 L 336.5 31.0 L 336.0 32.5 L 335.0 33.5 L 334.0 34.5 L 333.0 35.5 L 332.0 36.5 L 331.0 37.5 L 330.0 38.5 L 329.0 39.5 L 328.0 40.5 L 327.0 41.5 L 326.0 42.5 L 324.5 43.0 L 323.0 43.5 L 322.0 44.5 L 324.0 44.5 L 325.5 44.0 L 327.0 43.5 L 329.0 43.5 L 328.5 45.0 L 328.0 46.5 L 327.0 47.5 L 326.0 48.5 L 325.0 49.5 L 324.0 50.5 L 323.0 51.5 L 322.0 52.5 L 321.0 53.5 L 320.0 54.5 L 318.5 55.0 L 317.5 56.0 L 316.0 56.5 L 315.0 57.5 L 313.0 57.5 L 312.0 58.5 L 310.0 58.5 L 308.0 58.5 L 307.0 59.5 L 305.0 59.5 L 303.0 59.5 L 301.5 60.0 L 300.0 60.5 L 298.0 60.5 L 296.0 60.5 L 295.0 61.5 L 293.0 61.5 L 291.0 61.5 L 292.0 62.5 L 294.0 62.5 L 296.0 62.5 L 298.0 62.5 L 300.0 62.5 L 302.0 62.5 L 304.0 62.5 L 306.0 62.5 L 308.0 62.5 L 310.0 62.5 L 312.0 62.5 L 314.0 62.5 L 316.0 62.5 L 317.5 63.0 L 316.5 64.0 L 316.0 65.5 L 314.5 66.0 L 313.5 67.0 L 312.5 68.0 L 311.5 69.0 L 310.0 69.5 L 309.0 70.5 L 308.0 71.5 L 307.0 72.5 L 306.0 73.5 L 305.0 74.5 L 304.0 75.5 L 303.5 77.0 L 302.5 78.0 L 301.5 79.0 L 300.5 80.0 L 299.5 81.0 L 298.5 82.0 L 297.5 83.0 L 296.5 84.0 L 295.5 85.0 L 294.5 86.0 L 293.5 87.0 L 292.5 88.0 L 291.5 89.0 L 290.0 89.5 L 289.0 90.5 L 288.0 91.5 L 287.0 92.5 L 286.0 93.5 L 284.5 94.0 L 283.0 94.5 L 282.0 95.5 L 280.5 96.0 L 279.0 96.5 L 278.0 97.5 L 276.5 98.0 L 276.0 99.5 L 274.5 100.0 L 273.0 100.5 L 271.5 101.0 L 270.0 101.5 L 268.0 101.5 L 267.0 102.5 L 265.0 102.5 L 263.0 102.5 L 261.0 102.5 L 260.0 103.5 L 258.0 103.5 L 256.0 103.5 L 254.0 103.5 L 252.0 103.5 L 250.0 103.5 L 248.0 103.5 L 246.0 103.5 L 244.0 103.5 L 242.0 103.5 L 241.0 104.5 L 239.0 104.5 L 237.0 104.5 L 235.0 104.5 L 233.0 104.5 L 231.0 104.5 L 229.5 105.0 L 228.0 105.5 L 226.0 105.5 L 227.0 106.5 L 229.0 106.5 L 231.0 106.5 L 233.0 106.5 L 234.0 107.5 L 236.0 107.5 L 238.0 107.5 L 240.0 107.5 L 242.0 107.5 L 243.5 108.0 L 245.0 108.5 L 247.0 108.5 L 249.0 108.5 L 251.0 108.5 L 253.0 108.5 L 255.0 108.5 L 256.5 108.0 L 258.0 107.5 L 260.0 107.5 L 262.0 107.5 L 263.0 106.5 L 265.0 106.5 L 266.0 105.5 L 268.0 105.5 L 269.0 104.5 L 271.0 104.5 L 272.5 105.0 L 272.0 106.5 L 271.0 107.5 L 270.0 108.5 L 269.0 109.5 L 267.5 110.0 L 266.5 111.0 L 265.0 111.5 L 264.0 112.5 L 263.0 113.5 L 262.0 114.5 L 260.5 115.0 L 259.0 115.5 L 258.0 116.5 L 257.0 117.5 L 255.5 118.0 L 254.0 118.5 L 252.5 119.0 L 251.0 119.5 L 250.0 120.5 L 248.5 121.0 L 247.0 121.5 L 245.0 121.5 L 244.0 122.5 L 242.0 122.5 L 241.0 123.5 L 240.0 124.5 L 239.0 125.5 L 237.0 125.5 L 235.5 126.0 L 234.0 126.5 L 232.0 126.5 L 230.0 126.5 L 228.0 126.5 L 226.0 126.5 L 224.0 126.5 L 222.0 126.5 L 220.0 126.5 L 218.0 126.5 L 216.0 126.5 L 214.0 126.5 L 212.0 126.5 L 210.0 126.5 L 208.5 127.0 L 210.0 127.5 L 212.0 127.5 L 214.0 127.5 L 216.0 127.5 L 218.0 127.5 L 220.0 127.5 L 222.0 127.5 L 224.0 127.5 L 226.0 127.5 L 228.0 127.5 L 230.0 127.5 L 232.0 127.5 L 234.0 127.5 L 236.0 127.5 L 237.5 128.0 L 236.0 128.5 L 235.0 129.5 L 233.5 130.0 L 232.0 130.5 L 230.5 131.0 L 229.0 131.5 L 227.5 132.0 L 226.0 132.5 L 224.5 133.0 L 223.0 133.5 L 221.5 134.0 L 220.0 134.5 L 218.0 134.5 L 216.0 134.5 L 214.5 135.0 L 213.0 135.5 L 211.0 135.5 L 209.0 135.5 L 207.0 135.5 L 205.0 135.5 L 204.0 136.5 L 202.0 136.5 L 200.0 136.5 L 198.0 136.5 L 196.5 137.0 L 195.0 137.5 L 193.0 137.5 L 191.0 137.5 L 190.0 138.5 L 188.0 138.5 L 186.5 139.0 L 185.0 139.5 L 184.0 140.5 L 182.5 141.0 L 181.0 141.5 L 180.0 142.5 L 178.5 143.0 L 177.0 143.5 L 176.0 144.5 L 175.0 145.5 L 174.0 146.5 L 172.5 147.0 L 171.5 148.0 L 170.5 149.0 L 169.0 149.5 L 168.0 150.5 L 167.0 151.5 L 166.0 152.5 L 165.0 153.5 L 163.5 154.0 L 162.5 155.0 L 161.5 156.0 L 160.5 157.0 L 159.5 158.0 L 158.5 159.0 L 157.0 159.5 L 156.0 160.5 L 155.0 161.5 L 154.0 162.5 L 153.0 163.5 L 151.5 164.0 L 150.5 165.0 L 149.0 165.5 L 148.0 166.5 L 146.5 167.0 L 145.0 167.5 L 144.0 168.5 L 143.0 169.5 L 141.0 169.5 L 140.0 170.5 L 138.5 171.0 L 137.0 171.5 L 135.5 172.0 L 134.5 173.0 L 133.0 173.5 L 131.5 174.0 L 130.0 174.5 L 128.5 175.0 L 127.0 175.5 L 126.0 176.5 L 124.5 177.0 L 123.0 177.5 L 122.0 178.5 L 120.0 178.5 L 119.0 179.5 L 117.0 179.5 L 116.0 180.5 L 114.5 181.0 L 113.0 181.5 L 111.5 182.0 L 110.0 182.5 L 108.5 183.0 L 107.0 183.5 L 105.5 184.0 L 104.0 184.5 L 102.5 185.0 L 101.0 185.5 L 99.5 186.0 L 98.0 186.5 L 96.0 186.5 L 95.0 187.5 L 93.0 187.5 L 92.0 188.5 L 90.0 188.5 L 89.0 189.5 L 87.0 189.5 L 85.5 190.0 L 84.0 190.5 L 82.0 190.5 L 80.5 191.0 L 79.0 191.5 L 77.0 191.5 L 75.5 192.0 L 74.0 192.5 L 72.0 192.5 L 71.0 193.5 L 69.0 193.5 L 67.5 194.0 L 66.0 194.5 L 64.0 194.5 L 62.0 194.5 L 60.5 195.0 L 59.0 195.5 L 57.0 195.5 L 55.0 195.5 L 54.0 196.5 L 52.0 196.5 L 50.5 197.0 L 49.0 197.5 L 47.0 197.5 L 45.0 197.5 L 43.5 198.0 L 42.0 198.5 L 40.0 198.5 L 38.0 198.5 L 36.0 198.5 L 34.0 198.5 L 33.0 199.5 L 31.0 199.5 L 29.0 199.5 L 27.0 199.5 L 25.0 199.5 L 24.0 200.5 L 22.0 200.5 L 20.0 200.5 L 18.0 200.5 L 16.0 200.5 L 15.0 201.5 L 13.0 201.5 L 11.0 201.5 L 9.0 201.5 L 7.0 201.5 L 5.0 201.5 L 3.0 201.5 L 1.0 201.5 L 0.0 202.5 Z" fill="#FFF8EE"/>
<path d="M 0.0 200.5 L 2.0 200.5 L 4.0 200.5 L 5.0 199.5 L 7.0 199.5 L 9.0 199.5 L 11.0 199.5 L 13.0 199.5 L 15.0 199.5 L 17.0 199.5 L 18.0 198.5 L 20.0 198.5 L 22.0 198.5 L 24.0 198.5 L 25.5 198.0 L 27.0 197.5 L 29.0 197.5 L 31.0 197.5 L 33.0 197.5 L 35.0 197.5 L 36.0 196.5 L 38.0 196.5 L 40.0 196.5 L 42.0 196.5 L 44.0 196.5 L 45.5 196.0 L 47.0 195.5 L 49.0 195.5 L 51.0 195.5 L 52.0 194.5 L 54.0 194.5 L 55.5 194.0 L 57.0 193.5 L 59.0 193.5 L 61.0 193.5 L 62.0 192.5 L 64.0 192.5 L 66.0 192.5 L 67.5 192.0 L 69.0 191.5 L 71.0 191.5 L 72.5 191.0 L 74.0 190.5 L 75.0 189.5 L 77.0 189.5 L 79.0 189.5 L 80.5 189.0 L 82.0 188.5 L 84.0 188.5 L 86.0 188.5 L 87.0 187.5 L 89.0 187.5 L 90.5 187.0 L 92.0 186.5 L 93.0 185.5 L 95.0 185.5 L 96.5 185.0 L 98.0 184.5 L 100.0 184.5 L 101.0 183.5 L 103.0 183.5 L 104.0 182.5 L 105.5 182.0 L 107.0 181.5 L 108.5 181.0 L 110.0 180.5 L 111.5 180.0 L 113.0 179.5 L 114.5 179.0 L 116.0 178.5 L 117.0 177.5 L 119.0 177.5 L 120.0 176.5 L 122.0 176.5 L 123.0 175.5 L 124.5 175.0 L 126.0 174.5 L 127.0 173.5 L 128.5 173.0 L 130.0 172.5 L 131.5 172.0 L 130.5 171.0 L 132.0 170.5 L 133.5 170.0 L 135.0 169.5 L 137.0 169.5 L 138.0 168.5 L 140.0 168.5 L 141.5 168.0 L 143.0 167.5 L 144.0 166.5 L 145.0 165.5 L 146.5 165.0 L 148.0 164.5 L 149.0 163.5 L 150.5 163.0 L 151.0 161.5 L 152.5 161.0 L 154.0 160.5 L 155.0 159.5 L 156.0 158.5 L 157.0 157.5 L 158.0 156.5 L 159.0 155.5 L 160.5 155.0 L 161.5 154.0 L 162.5 153.0 L 163.5 152.0 L 165.0 151.5 L 166.0 150.5 L 167.0 149.5 L 168.0 148.5 L 169.5 148.0 L 170.5 147.0 L 171.5 146.0 L 172.5 145.0 L 174.0 144.5 L 175.0 143.5 L 176.0 142.5 L 177.5 142.0 L 178.5 141.0 L 180.0 140.5 L 181.5 140.0 L 182.5 139.0 L 184.0 138.5 L 185.0 137.5 L 187.0 137.5 L 188.0 136.5 L 190.0 136.5 L 192.0 136.5 L 193.0 135.5 L 195.0 135.5 L 197.0 135.5 L 198.5 135.0 L 200.0 134.5 L 202.0 134.5 L 204.0 134.5 L 205.5 134.0 L 207.0 133.5 L 209.0 133.5 L 211.0 133.5 L 213.0 133.5 L 215.0 133.5 L 216.5 133.0 L 218.0 132.5 L 220.0 132.5 L 221.5 132.0 L 223.0 131.5 L 225.0 131.5 L 226.0 130.5 L 228.0 130.5 L 227.0 129.5 L 225.0 129.5 L 223.0 129.5 L 221.0 129.5 L 219.0 129.5 L 217.0 129.5 L 215.0 129.5 L 214.0 128.5 L 212.0 128.5 L 210.0 128.5 L 208.0 128.5 L 206.0 128.5 L 204.0 128.5 L 202.0 128.5 L 200.0 128.5 L 198.0 128.5 L 196.0 128.5 L 195.5 127.0 L 196.0 125.5 L 198.0 125.5 L 200.0 125.5 L 202.0 125.5 L 204.0 125.5 L 205.0 124.5 L 207.0 124.5 L 209.0 124.5 L 211.0 124.5 L 213.0 124.5 L 215.0 124.5 L 217.0 124.5 L 218.0 125.5 L 220.0 125.5 L 222.0 125.5 L 224.0 125.5 L 226.0 125.5 L 228.0 125.5 L 230.0 125.5 L 231.0 124.5 L 233.0 124.5 L 235.0 124.5 L 237.0 124.5 L 236.0 123.5 L 234.0 123.5 L 232.0 123.5 L 230.0 123.5 L 228.0 123.5 L 226.0 123.5 L 224.5 123.0 L 223.0 122.5 L 221.0 122.5 L 219.0 122.5 L 217.0 122.5 L 215.0 122.5 L 213.0 122.5 L 211.0 122.5 L 209.0 122.5 L 207.0 122.5 L 205.0 122.5 L 204.0 123.5 L 202.0 123.5 L 201.0 124.5 L 199.5 124.0 L 200.0 122.5 L 201.0 121.5 L 202.5 121.0 L 204.0 120.5 L 205.5 120.0 L 207.0 119.5 L 209.0 119.5 L 211.0 119.5 L 213.0 119.5 L 215.0 119.5 L 217.0 119.5 L 219.0 119.5 L 221.0 119.5 L 223.0 119.5 L 225.0 119.5 L 226.5 120.0 L 228.0 120.5 L 230.0 120.5 L 232.0 120.5 L 234.0 120.5 L 236.0 120.5 L 238.0 120.5 L 240.0 120.5 L 242.0 120.5 L 244.0 120.5 L 245.0 119.5 L 247.0 119.5 L 248.5 119.0 L 250.0 118.5 L 251.0 117.5 L 253.0 117.5 L 254.0 116.5 L 255.5 116.0 L 257.0 115.5 L 258.0 114.5 L 259.0 113.5 L 260.5 113.0 L 262.0 112.5 L 263.0 111.5 L 264.0 110.5 L 265.5 110.0 L 266.5 109.0 L 267.5 108.0 L 266.0 107.5 L 265.0 108.5 L 263.0 108.5 L 261.5 109.0 L 260.0 109.5 L 258.0 109.5 L 256.0 109.5 L 254.0 109.5 L 253.0 110.5 L 251.0 110.5 L 249.0 110.5 L 247.5 110.0 L 246.0 109.5 L 244.0 109.5 L 242.0 109.5 L 240.0 109.5 L 238.0 109.5 L 236.0 109.5 L 235.0 108.5 L 233.0 108.5 L 231.0 108.5 L 229.0 108.5 L 228.0 107.5 L 226.0 107.5 L 225.0 108.5 L 223.0 108.5 L 221.0 108.5 L 219.5 109.0 L 218.0 109.5 L 216.5 109.0 L 215.5 108.0 L 216.5 107.0 L 217.5 106.0 L 219.0 105.5 L 220.5 105.0 L 222.0 104.5 L 224.0 104.5 L 225.5 104.0 L 227.0 103.5 L 229.0 103.5 L 231.0 103.5 L 232.0 102.5 L 234.0 102.5 L 236.0 102.5 L 238.0 102.5 L 240.0 102.5 L 242.0 102.5 L 244.0 102.5 L 246.0 102.5 L 247.5 102.0 L 249.0 101.5 L 251.0 101.5 L 253.0 101.5 L 255.0 101.5 L 257.0 101.5 L 259.0 101.5 L 261.0 101.5 L 263.0 101.5 L 264.0 100.5 L 266.0 100.5 L 268.0 100.5 L 267.0 99.5 L 265.0 99.5 L 263.0 99.5 L 261.0 99.5 L 259.0 99.5 L 257.0 99.5 L 255.0 99.5 L 253.0 99.5 L 251.0 99.5 L 249.0 99.5 L 247.0 99.5 L 245.0 99.5 L 243.0 99.5 L 241.0 99.5 L 239.0 99.5 L 237.0 99.5 L 235.0 99.5 L 233.5 100.0 L 232.0 100.5 L 230.0 100.5 L 228.5 101.0 L 227.0 101.5 L 226.5 100.0 L 227.0 98.5 L 228.5 98.0 L 230.0 97.5 L 232.0 97.5 L 233.5 97.0 L 235.0 96.5 L 237.0 96.5 L 239.0 96.5 L 241.0 96.5 L 243.0 96.5 L 245.0 96.5 L 247.0 96.5 L 249.0 96.5 L 251.0 96.5 L 253.0 96.5 L 255.0 96.5 L 257.0 96.5 L 259.0 96.5 L 261.0 96.5 L 263.0 96.5 L 265.0 96.5 L 267.0 96.5 L 269.0 96.5 L 271.0 96.5 L 273.0 96.5 L 274.5 96.0 L 276.0 95.5 L 278.0 95.5 L 279.0 94.5 L 280.5 94.0 L 282.0 93.5 L 283.0 92.5 L 285.0 92.5 L 286.0 91.5 L 287.0 90.5 L 288.0 89.5 L 289.0 88.5 L 290.5 88.0 L 291.5 87.0 L 292.0 85.5 L 293.5 85.0 L 294.5 84.0 L 295.5 83.0 L 296.5 82.0 L 297.5 81.0 L 298.5 80.0 L 299.5 79.0 L 300.0 77.5 L 301.5 77.0 L 302.0 75.5 L 303.0 74.5 L 304.0 73.5 L 305.0 72.5 L 306.0 71.5 L 307.0 70.5 L 308.0 69.5 L 309.0 68.5 L 310.5 68.0 L 311.5 67.0 L 312.5 66.0 L 313.5 65.0 L 312.0 64.5 L 310.0 64.5 L 308.0 64.5 L 306.0 64.5 L 304.0 64.5 L 302.0 64.5 L 300.0 64.5 L 298.0 64.5 L 297.0 63.5 L 295.0 63.5 L 293.0 63.5 L 291.0 63.5 L 289.0 63.5 L 287.0 63.5 L 285.0 63.5 L 283.0 63.5 L 281.0 63.5 L 280.0 64.5 L 278.0 64.5 L 276.0 64.5 L 275.0 65.5 L 273.0 65.5 L 271.5 66.0 L 270.0 66.5 L 269.5 65.0 L 270.5 64.0 L 272.0 63.5 L 273.5 63.0 L 275.0 62.5 L 276.0 61.5 L 278.0 61.5 L 279.0 60.5 L 281.0 60.5 L 283.0 60.5 L 285.0 60.5 L 286.5 60.0 L 288.0 59.5 L 290.0 59.5 L 292.0 59.5 L 294.0 59.5 L 296.0 59.5 L 297.5 59.0 L 299.0 58.5 L 301.0 58.5 L 303.0 58.5 L 304.5 58.0 L 306.0 57.5 L 308.0 57.5 L 309.5 57.0 L 311.0 56.5 L 313.0 56.5 L 314.0 55.5 L 315.5 55.0 L 317.0 54.5 L 318.0 53.5 L 319.0 52.5 L 320.5 52.0 L 321.5 51.0 L 322.5 50.0 L 323.5 49.0 L 324.5 48.0 L 325.5 47.0 L 324.0 46.5 L 322.0 46.5 L 321.0 47.5 L 319.0 47.5 L 317.0 47.5 L 316.0 48.5 L 314.0 48.5 L 312.0 48.5 L 310.0 48.5 L 308.0 48.5 L 306.5 49.0 L 305.0 49.5 L 303.0 49.5 L 301.0 49.5 L 299.0 49.5 L 297.0 49.5 L 295.0 49.5 L 293.5 49.0 L 292.5 48.0 L 293.5 47.0 L 295.0 46.5 L 297.0 46.5 L 299.0 46.5 L 301.0 46.5 L 302.5 46.0 L 304.0 45.5 L 306.0 45.5 L 308.0 45.5 L 310.0 45.5 L 312.0 45.5 L 313.5 45.0 L 315.0 44.5 L 317.0 44.5 L 318.5 44.0 L 320.0 43.5 L 321.5 43.0 L 322.5 42.0 L 324.0 41.5 L 325.0 40.5 L 326.5 40.0 L 327.5 39.0 L 328.5 38.0 L 329.5 37.0 L 330.5 36.0 L 331.5 35.0 L 332.5 34.0 L 333.5 33.0 L 334.5 32.0 L 335.5 31.0 L 336.0 29.5 L 337.0 28.5 L 338.0 27.5 L 338.5 26.0 L 339.5 25.0 L 340.5 24.0 L 341.5 23.0 L 342.5 22.0 L 343.0 20.5 L 344.0 19.5 L 345.0 18.5 L 345.5 17.0 L 346.5 16.0 L 347.0 14.5 L 347.5 13.0 L 346.0 12.5 L 344.0 12.5 L 342.0 12.5 L 340.0 12.5 L 338.0 12.5 L 336.0 12.5 L 335.0 13.5 L 333.0 13.5 L 331.0 13.5 L 329.0 13.5 L 328.0 14.5 L 326.0 14.5 L 324.0 14.5 L 322.5 15.0 L 321.0 15.5 L 319.0 15.5 L 318.0 16.5 L 316.5 17.0 L 315.0 17.5 L 313.0 17.5 L 311.5 18.0 L 310.0 18.5 L 308.0 18.5 L 306.0 18.5 L 305.0 19.5 L 303.0 19.5 L 301.5 20.0 L 300.0 20.5 L 299.0 21.5 L 297.0 21.5 L 296.0 22.5 L 294.0 22.5 L 293.0 23.5 L 292.0 24.5 L 291.0 25.5 L 289.5 26.0 L 288.5 27.0 L 287.5 28.0 L 286.0 28.5 L 285.0 29.5 L 284.0 30.5 L 283.0 31.5 L 282.0 32.5 L 281.5 34.0 L 280.5 35.0 L 279.5 36.0 L 278.5 37.0 L 277.5 38.0 L 276.0 38.5 L 275.5 37.0 L 276.5 36.0 L 277.5 35.0 L 278.5 34.0 L 279.0 32.5 L 280.0 31.5 L 281.0 30.5 L 281.5 29.0 L 282.5 28.0 L 283.5 27.0 L 284.5 26.0 L 283.0 25.5 L 282.0 26.5 L 280.0 26.5 L 279.0 27.5 L 277.5 28.0 L 276.0 28.5 L 275.0 29.5 L 273.0 29.5 L 272.0 30.5 L 270.5 31.0 L 269.0 31.5 L 267.5 32.0 L 266.5 33.0 L 265.0 33.5 L 264.0 34.5 L 262.0 34.5 L 261.0 35.5 L 259.5 36.0 L 258.5 37.0 L 257.5 38.0 L 256.0 38.5 L 255.0 39.5 L 253.5 40.0 L 252.5 41.0 L 251.5 42.0 L 250.5 43.0 L 249.5 44.0 L 248.5 45.0 L 248.0 46.5 L 247.0 47.5 L 246.5 49.0 L 245.5 50.0 L 245.0 51.5 L 244.5 53.0 L 244.5 55.0 L 243.5 56.0 L 243.5 58.0 L 243.0 59.5 L 242.5 61.0 L 241.5 62.0 L 241.5 64.0 L 240.5 65.0 L 240.5 67.0 L 240.0 68.5 L 239.5 70.0 L 239.0 71.5 L 238.5 73.0 L 237.5 74.0 L 237.0 75.5 L 238.5 75.0 L 239.5 74.0 L 240.5 73.0 L 242.0 72.5 L 243.0 71.5 L 244.0 70.5 L 245.0 69.5 L 246.0 68.5 L 247.5 68.0 L 248.5 67.0 L 249.5 66.0 L 251.0 65.5 L 252.0 64.5 L 253.5 64.0 L 254.5 63.0 L 255.5 62.0 L 257.0 61.5 L 258.0 60.5 L 259.0 59.5 L 260.5 59.0 L 261.5 58.0 L 262.5 57.0 L 264.0 56.5 L 265.0 55.5 L 266.0 54.5 L 267.0 53.5 L 268.5 53.0 L 270.0 52.5 L 271.0 51.5 L 272.0 50.5 L 273.5 50.0 L 274.5 49.0 L 276.0 48.5 L 277.0 47.5 L 278.5 47.0 L 279.5 46.0 L 281.0 45.5 L 282.0 44.5 L 283.0 43.5 L 284.5 43.0 L 285.5 42.0 L 287.0 41.5 L 288.0 40.5 L 289.5 40.0 L 291.0 39.5 L 292.0 38.5 L 293.0 37.5 L 294.5 37.0 L 296.0 36.5 L 297.0 35.5 L 298.5 35.0 L 299.5 34.0 L 301.0 33.5 L 302.5 33.0 L 304.0 32.5 L 305.0 31.5 L 306.5 31.0 L 307.5 30.0 L 309.0 29.5 L 310.0 28.5 L 312.0 28.5 L 313.0 27.5 L 314.5 27.0 L 315.5 26.0 L 317.0 25.5 L 318.0 24.5 L 320.0 24.5 L 321.0 23.5 L 323.0 23.5 L 324.0 22.5 L 325.0 21.5 L 327.0 21.5 L 328.0 20.5 L 329.5 20.0 L 331.0 19.5 L 331.5 21.0 L 330.5 22.0 L 329.0 22.5 L 328.0 23.5 L 326.5 24.0 L 325.0 24.5 L 324.0 25.5 L 322.5 26.0 L 321.0 26.5 L 320.0 27.5 L 318.5 28.0 L 317.5 29.0 L 316.0 29.5 L 315.0 30.5 L 313.0 30.5 L 312.0 31.5 L 311.0 32.5 L 309.5 33.0 L 308.0 33.5 L 307.0 34.5 L 305.5 35.0 L 304.5 36.0 L 303.0 36.5 L 302.0 37.5 L 300.5 38.0 L 299.0 38.5 L 298.0 39.5 L 297.0 40.5 L 295.5 41.0 L 294.5 42.0 L 293.0 42.5 L 292.0 43.5 L 291.0 44.5 L 289.5 45.0 L 288.5 46.0 L 287.0 46.5 L 286.0 47.5 L 284.5 48.0 L 283.5 49.0 L 282.0 49.5 L 281.0 50.5 L 280.0 51.5 L 278.5 52.0 L 277.5 53.0 L 276.5 54.0 L 275.0 54.5 L 274.0 55.5 L 273.0 56.5 L 272.0 57.5 L 270.5 58.0 L 269.5 59.0 L 268.0 59.5 L 267.0 60.5 L 266.0 61.5 L 265.0 62.5 L 263.5 63.0 L 262.5 64.0 L 261.5 65.0 L 260.0 65.5 L 259.0 66.5 L 258.0 67.5 L 256.5 68.0 L 255.5 69.0 L 254.5 70.0 L 253.0 70.5 L 252.0 71.5 L 251.0 72.5 L 250.0 73.5 L 249.0 74.5 L 248.0 75.5 L 246.5 76.0 L 245.5 77.0 L 244.5 78.0 L 243.5 79.0 L 242.5 80.0 L 241.5 81.0 L 240.5 82.0 L 239.0 82.5 L 238.0 83.5 L 237.0 84.5 L 236.0 85.5 L 234.5 86.0 L 233.5 87.0 L 232.5 88.0 L 231.5 89.0 L 230.0 89.5 L 229.0 90.5 L 228.0 91.5 L 227.0 92.5 L 226.0 93.5 L 225.0 94.5 L 224.0 95.5 L 223.0 96.5 L 221.5 97.0 L 220.5 98.0 L 219.5 99.0 L 218.5 100.0 L 217.5 101.0 L 216.5 102.0 L 215.0 102.5 L 214.0 103.5 L 213.0 104.5 L 212.0 105.5 L 211.0 106.5 L 209.5 107.0 L 208.5 108.0 L 208.0 109.5 L 206.5 110.0 L 205.5 111.0 L 204.5 112.0 L 203.5 113.0 L 202.0 113.5 L 201.0 114.5 L 200.0 115.5 L 199.0 116.5 L 198.0 117.5 L 197.0 118.5 L 195.5 119.0 L 194.5 120.0 L 193.5 121.0 L 192.5 122.0 L 191.0 122.5 L 190.0 123.5 L 189.0 124.5 L 188.0 125.5 L 187.0 126.5 L 186.0 127.5 L 185.0 128.5 L 184.0 129.5 L 183.0 130.5 L 181.5 131.0 L 181.0 132.5 L 180.0 133.5 L 179.0 134.5 L 177.5 135.0 L 176.5 136.0 L 175.5 137.0 L 174.5 138.0 L 173.0 138.5 L 172.0 139.5 L 171.0 140.5 L 170.0 141.5 L 169.0 142.5 L 168.0 143.5 L 167.0 144.5 L 166.0 145.5 L 164.5 146.0 L 163.5 147.0 L 162.5 148.0 L 161.5 149.0 L 160.5 150.0 L 159.5 151.0 L 158.0 151.5 L 157.5 153.0 L 156.5 154.0 L 155.0 154.5 L 154.0 155.5 L 153.0 156.5 L 152.0 157.5 L 151.0 158.5 L 149.5 159.0 L 148.5 160.0 L 147.5 161.0 L 146.0 161.5 L 145.0 162.5 L 143.5 163.0 L 142.5 164.0 L 141.0 164.5 L 140.0 165.5 L 138.5 166.0 L 137.0 166.5 L 136.0 167.5 L 134.5 168.0 L 133.5 169.0 L 132.0 169.5 L 130.5 170.0 L 129.0 170.5 L 127.5 171.0 L 126.0 171.5 L 124.5 172.0 L 123.5 173.0 L 122.0 173.5 L 120.5 174.0 L 119.0 174.5 L 117.5 175.0 L 116.0 175.5 L 114.5 176.0 L 113.0 176.5 L 112.0 177.5 L 110.0 177.5 L 108.5 178.0 L 107.0 178.5 L 105.0 178.5 L 104.0 179.5 L 102.0 179.5 L 101.0 180.5 L 99.0 180.5 L 98.0 181.5 L 96.0 181.5 L 94.5 182.0 L 93.0 182.5 L 91.0 182.5 L 89.5 183.0 L 88.0 183.5 L 86.0 183.5 L 85.0 184.5 L 83.5 185.0 L 82.0 185.5 L 80.0 185.5 L 78.0 185.5 L 77.0 186.5 L 75.0 186.5 L 73.0 186.5 L 71.5 187.0 L 70.0 187.5 L 68.0 187.5 L 66.0 187.5 L 65.0 188.5 L 63.0 188.5 L 62.0 189.5 L 60.0 189.5 L 58.0 189.5 L 56.0 189.5 L 54.5 190.0 L 53.0 190.5 L 51.0 190.5 L 49.0 190.5 L 47.0 190.5 L 45.0 190.5 L 43.0 190.5 L 41.5 191.0 L 40.0 191.5 L 38.0 191.5 L 36.0 191.5 L 34.0 191.5 L 32.5 192.0 L 31.0 192.5 L 29.0 192.5 L 27.0 192.5 L 25.0 192.5 L 23.0 192.5 L 21.5 193.0 L 20.0 193.5 L 18.0 193.5 L 16.0 193.5 L 14.0 193.5 L 12.0 193.5 L 10.0 193.5 L 8.0 193.5 L 6.0 193.5 L 4.0 193.5 L 2.0 193.5 L 0.0 193.5 Z" fill="#FFF8EE"/>
<path d="M 265.0 51.5 L 263.0 51.5 L 262.5 50.0 L 263.0 48.5 L 263.5 47.0 L 264.5 46.0 L 265.5 45.0 L 266.0 43.5 L 266.5 42.0 L 267.5 41.0 L 268.0 39.5 L 269.0 38.5 L 270.0 37.5 L 270.5 36.0 L 271.5 35.0 L 272.5 34.0 L 273.5 33.0 L 274.5 32.0 L 275.5 31.0 L 277.0 30.5 L 276.5 32.0 L 275.5 33.0 L 275.0 34.5 L 274.0 35.5 L 273.0 36.5 L 272.5 38.0 L 271.5 39.0 L 270.5 40.0 L 269.5 41.0 L 269.0 42.5 L 268.5 44.0 L 267.5 45.0 L 267.0 46.5 L 266.5 48.0 L 265.5 49.0 L 265.5 51.0 Z" fill="#FFF8EE"/>
<path d="M 243.0 89.5 L 241.5 89.0 L 242.0 87.5 L 243.5 87.0 L 245.0 86.5 L 246.0 85.5 L 247.5 85.0 L 249.0 84.5 L 251.0 84.5 L 252.5 84.0 L 254.0 83.5 L 256.0 83.5 L 257.5 83.0 L 259.0 82.5 L 261.0 82.5 L 262.0 81.5 L 264.0 81.5 L 266.0 81.5 L 267.5 81.0 L 269.0 80.5 L 271.0 80.5 L 273.0 80.5 L 275.0 80.5 L 276.0 79.5 L 278.0 79.5 L 280.0 79.5 L 282.0 79.5 L 284.0 79.5 L 286.0 79.5 L 288.0 79.5 L 290.0 79.5 L 292.0 79.5 L 291.0 80.5 L 289.5 81.0 L 288.0 81.5 L 286.0 81.5 L 284.0 81.5 L 282.0 81.5 L 281.0 82.5 L 279.0 82.5 L 277.0 82.5 L 275.0 82.5 L 273.0 82.5 L 271.5 83.0 L 270.0 83.5 L 268.0 83.5 L 266.0 83.5 L 264.5 84.0 L 263.0 84.5 L 261.0 84.5 L 260.0 85.5 L 258.0 85.5 L 256.5 86.0 L 255.0 86.5 L 253.0 86.5 L 251.0 86.5 L 250.0 87.5 L 248.0 87.5 L 246.0 87.5 L 245.0 88.5 L 243.5 89.0 Z" fill="#FFF8EE"/>
<path d="M 0.0 82.5 L 2.0 82.5 L 3.0 83.5 L 5.0 83.5 L 6.0 84.5 L 7.0 85.5 L 8.0 86.5 L 8.5 88.0 L 8.5 90.0 L 8.5 92.0 L 8.5 94.0 L 8.5 96.0 L 7.5 97.0 L 7.0 98.5 L 6.0 99.5 L 5.0 100.5 L 4.5 102.0 L 3.0 102.5 L 2.0 103.5 L 1.0 104.5 L 0.0 105.5 Z" fill="#FFF8EE"/>
<path d="M 0.0 128.5 L 1.5 128.0 L 2.5 127.0 L 3.0 125.5 L 4.0 124.5 L 5.5 124.0 L 6.0 122.5 L 7.0 121.5 L 8.0 120.5 L 9.0 119.5 L 9.5 118.0 L 10.5 117.0 L 11.0 115.5 L 13.0 115.5 L 13.5 117.0 L 12.5 118.0 L 12.0 119.5 L 11.5 121.0 L 11.0 122.5 L 10.5 124.0 L 10.0 125.5 L 9.5 127.0 L 9.0 128.5 L 8.5 130.0 L 8.5 132.0 L 7.5 133.0 L 7.5 135.0 L 6.5 136.0 L 6.5 138.0 L 5.5 139.0 L 5.5 141.0 L 4.5 142.0 L 5.0 143.5 L 7.0 143.5 L 9.0 143.5 L 11.0 143.5 L 12.0 142.5 L 14.0 142.5 L 15.0 141.5 L 16.0 140.5 L 16.5 139.0 L 17.5 138.0 L 18.5 137.0 L 19.0 135.5 L 19.5 134.0 L 20.5 133.0 L 21.5 132.0 L 22.0 130.5 L 22.5 129.0 L 23.5 128.0 L 24.5 127.0 L 25.5 126.0 L 26.0 124.5 L 26.5 123.0 L 27.5 122.0 L 28.5 121.0 L 29.5 120.0 L 30.0 118.5 L 30.5 117.0 L 31.5 116.0 L 32.5 115.0 L 33.5 114.0 L 34.0 112.5 L 35.0 111.5 L 36.0 110.5 L 37.0 109.5 L 37.5 108.0 L 38.5 107.0 L 39.5 106.0 L 40.5 105.0 L 41.5 104.0 L 42.5 103.0 L 43.0 101.5 L 44.0 100.5 L 45.5 100.0 L 46.5 99.0 L 47.0 97.5 L 48.0 96.5 L 49.5 96.0 L 50.5 95.0 L 52.0 94.5 L 53.5 95.0 L 54.5 96.0 L 54.5 98.0 L 54.5 100.0 L 54.5 102.0 L 53.5 103.0 L 53.5 105.0 L 53.0 106.5 L 52.5 108.0 L 52.5 110.0 L 51.5 111.0 L 51.5 113.0 L 50.5 114.0 L 49.5 115.0 L 49.0 116.5 L 48.5 118.0 L 48.0 119.5 L 47.5 121.0 L 47.0 122.5 L 46.0 123.5 L 45.5 125.0 L 45.0 126.5 L 44.5 128.0 L 44.0 129.5 L 43.5 131.0 L 43.0 132.5 L 42.5 134.0 L 41.5 135.0 L 41.0 136.5 L 40.5 138.0 L 40.5 140.0 L 39.5 141.0 L 40.5 142.0 L 42.0 142.5 L 44.0 142.5 L 46.0 142.5 L 48.0 142.5 L 49.0 141.5 L 50.5 141.0 L 51.5 140.0 L 52.0 138.5 L 53.0 137.5 L 53.5 136.0 L 54.5 135.0 L 55.0 133.5 L 56.0 132.5 L 57.0 131.5 L 57.5 130.0 L 58.5 129.0 L 59.5 128.0 L 60.0 126.5 L 61.0 125.5 L 61.5 124.0 L 62.5 123.0 L 63.0 121.5 L 64.0 120.5 L 64.5 119.0 L 65.5 118.0 L 66.5 117.0 L 67.0 115.5 L 68.0 114.5 L 69.0 113.5 L 70.0 112.5 L 70.5 111.0 L 71.5 110.0 L 72.5 109.0 L 73.5 108.0 L 74.5 107.0 L 75.0 105.5 L 76.0 104.5 L 77.0 103.5 L 78.0 102.5 L 78.5 101.0 L 79.5 100.0 L 80.5 99.0 L 81.5 98.0 L 82.5 97.0 L 83.5 96.0 L 85.0 95.5 L 86.0 94.5 L 87.0 93.5 L 89.0 93.5 L 91.0 93.5 L 91.5 95.0 L 91.5 97.0 L 91.5 99.0 L 91.0 100.5 L 90.5 102.0 L 89.5 103.0 L 89.0 104.5 L 88.5 106.0 L 87.5 107.0 L 87.5 109.0 L 86.5 110.0 L 85.5 111.0 L 85.0 112.5 L 84.5 114.0 L 84.0 115.5 L 83.5 117.0 L 82.5 118.0 L 82.0 119.5 L 81.5 121.0 L 80.5 122.0 L 80.5 124.0 L 80.0 125.5 L 79.5 127.0 L 79.5 129.0 L 78.5 130.0 L 78.0 131.5 L 77.5 133.0 L 77.5 135.0 L 77.5 137.0 L 77.5 139.0 L 78.0 140.5 L 79.0 141.5 L 80.0 142.5 L 81.0 143.5 L 82.5 144.0 L 84.0 144.5 L 86.0 144.5 L 87.5 144.0 L 89.0 143.5 L 90.5 143.0 L 92.0 142.5 L 93.0 141.5 L 94.5 141.0 L 95.5 140.0 L 97.0 139.5 L 98.0 138.5 L 99.0 137.5 L 100.5 137.0 L 101.5 136.0 L 103.0 135.5 L 104.5 136.0 L 104.5 138.0 L 104.5 140.0 L 105.5 141.0 L 105.5 143.0 L 106.5 144.0 L 107.5 145.0 L 108.5 146.0 L 109.5 147.0 L 110.5 148.0 L 112.0 148.5 L 113.0 149.5 L 115.0 149.5 L 116.0 150.5 L 118.0 150.5 L 119.0 151.5 L 121.0 151.5 L 123.0 151.5 L 125.0 151.5 L 127.0 151.5 L 128.0 150.5 L 130.0 150.5 L 131.0 149.5 L 133.0 149.5 L 134.0 148.5 L 136.0 148.5 L 137.0 147.5 L 138.0 146.5 L 139.0 145.5 L 140.5 145.0 L 141.5 144.0 L 142.5 143.0 L 143.5 142.0 L 144.0 140.5 L 145.0 139.5 L 145.5 138.0 L 146.5 137.0 L 146.5 135.0 L 146.5 133.0 L 146.5 131.0 L 146.5 129.0 L 146.5 127.0 L 146.5 125.0 L 145.5 124.0 L 145.0 122.5 L 144.0 121.5 L 143.5 120.0 L 143.0 118.5 L 142.0 117.5 L 141.5 116.0 L 140.5 115.0 L 139.5 114.0 L 139.0 112.5 L 138.5 111.0 L 137.5 110.0 L 136.5 109.0 L 135.5 108.0 L 135.0 106.5 L 134.5 105.0 L 134.0 103.5 L 133.5 102.0 L 133.5 100.0 L 133.5 98.0 L 133.5 96.0 L 134.0 94.5 L 134.5 93.0 L 135.5 92.0 L 136.0 90.5 L 137.0 89.5 L 138.5 89.0 L 140.0 88.5 L 141.0 87.5 L 143.0 87.5 L 145.0 87.5 L 147.0 87.5 L 148.5 88.0 L 150.0 88.5 L 151.0 89.5 L 152.5 90.0 L 153.0 91.5 L 154.0 92.5 L 154.5 94.0 L 155.5 95.0 L 155.5 97.0 L 157.0 96.5 L 157.5 95.0 L 158.5 94.0 L 158.5 92.0 L 157.5 91.0 L 157.0 89.5 L 156.0 88.5 L 155.0 87.5 L 154.0 86.5 L 152.5 86.0 L 151.0 85.5 L 149.0 85.5 L 147.0 85.5 L 145.0 85.5 L 143.0 85.5 L 141.0 85.5 L 139.0 85.5 L 138.0 86.5 L 136.0 86.5 L 135.0 87.5 L 133.5 88.0 L 132.5 89.0 L 131.0 89.5 L 130.0 90.5 L 129.0 91.5 L 128.0 92.5 L 127.0 93.5 L 126.0 94.5 L 125.5 96.0 L 124.5 97.0 L 124.5 99.0 L 124.0 100.5 L 123.5 102.0 L 123.5 104.0 L 123.5 106.0 L 123.5 108.0 L 123.5 110.0 L 124.5 111.0 L 125.0 112.5 L 126.0 113.5 L 126.5 115.0 L 127.5 116.0 L 128.5 117.0 L 129.0 118.5 L 129.5 120.0 L 130.5 121.0 L 131.5 122.0 L 132.0 123.5 L 132.5 125.0 L 133.5 126.0 L 134.5 127.0 L 135.0 128.5 L 135.5 130.0 L 136.0 131.5 L 136.5 133.0 L 136.5 135.0 L 136.5 137.0 L 136.0 138.5 L 135.5 140.0 L 135.5 142.0 L 134.5 143.0 L 133.5 144.0 L 132.5 145.0 L 132.0 146.5 L 130.5 147.0 L 129.0 147.5 L 128.0 148.5 L 127.0 149.5 L 125.0 149.5 L 123.0 149.5 L 121.0 149.5 L 119.5 149.0 L 118.0 148.5 L 117.0 147.5 L 115.5 147.0 L 114.5 146.0 L 113.5 145.0 L 112.5 144.0 L 111.5 143.0 L 111.0 141.5 L 110.5 140.0 L 110.0 138.5 L 109.5 137.0 L 109.5 135.0 L 109.5 133.0 L 110.0 131.5 L 110.5 130.0 L 110.5 128.0 L 111.5 127.0 L 112.0 125.5 L 113.0 124.5 L 114.0 123.5 L 114.5 122.0 L 115.5 121.0 L 116.5 120.0 L 117.5 119.0 L 118.0 117.5 L 119.0 116.5 L 119.5 115.0 L 118.0 115.5 L 117.5 114.0 L 118.5 113.0 L 119.5 112.0 L 121.0 111.5 L 121.5 110.0 L 121.5 108.0 L 121.5 106.0 L 121.5 104.0 L 121.5 102.0 L 122.0 100.5 L 122.5 99.0 L 122.5 97.0 L 123.5 96.0 L 124.0 94.5 L 125.0 93.5 L 126.0 92.5 L 127.0 91.5 L 127.5 90.0 L 129.0 89.5 L 130.0 88.5 L 131.0 87.5 L 132.0 86.5 L 133.5 86.0 L 135.0 85.5 L 136.0 84.5 L 138.0 84.5 L 139.0 83.5 L 141.0 83.5 L 143.0 83.5 L 144.0 82.5 L 146.0 82.5 L 148.0 82.5 L 149.0 83.5 L 151.0 83.5 L 152.5 84.0 L 154.0 84.5 L 155.0 85.5 L 156.5 86.0 L 157.0 87.5 L 158.0 88.5 L 159.0 89.5 L 159.5 91.0 L 159.5 93.0 L 159.5 95.0 L 159.0 96.5 L 158.0 97.5 L 157.0 98.5 L 156.0 99.5 L 154.5 99.0 L 153.5 98.0 L 153.5 96.0 L 153.5 94.0 L 152.5 93.0 L 151.5 92.0 L 150.5 91.0 L 149.0 90.5 L 148.0 89.5 L 146.0 89.5 L 145.0 88.5 L 143.5 89.0 L 142.0 89.5 L 140.5 90.0 L 139.0 90.5 L 138.0 91.5 L 137.0 92.5 L 136.0 93.5 L 135.5 95.0 L 135.5 97.0 L 134.5 98.0 L 134.5 100.0 L 135.5 101.0 L 135.5 103.0 L 136.5 104.0 L 136.5 106.0 L 137.5 107.0 L 138.0 108.5 L 139.0 109.5 L 139.5 111.0 L 140.5 112.0 L 141.5 113.0 L 142.0 114.5 L 143.0 115.5 L 143.5 117.0 L 144.5 118.0 L 145.0 119.5 L 146.0 120.5 L 146.5 122.0 L 147.5 123.0 L 147.5 125.0 L 148.5 126.0 L 148.5 128.0 L 148.5 130.0 L 148.5 132.0 L 148.5 134.0 L 148.5 136.0 L 147.5 137.0 L 147.5 139.0 L 146.5 140.0 L 145.5 141.0 L 145.0 142.5 L 144.0 143.5 L 143.5 145.0 L 142.0 145.5 L 141.0 146.5 L 140.0 147.5 L 139.0 148.5 L 137.5 149.0 L 136.5 150.0 L 135.0 150.5 L 133.5 151.0 L 132.0 151.5 L 130.5 152.0 L 129.0 152.5 L 127.0 152.5 L 125.0 152.5 L 124.0 153.5 L 122.0 153.5 L 120.5 153.0 L 119.0 152.5 L 117.0 152.5 L 116.0 151.5 L 114.0 151.5 L 113.0 150.5 L 111.0 150.5 L 110.0 149.5 L 109.0 148.5 L 108.0 147.5 L 106.5 147.0 L 106.0 145.5 L 105.0 144.5 L 104.5 143.0 L 103.5 142.0 L 103.5 140.0 L 102.5 139.0 L 102.0 137.5 L 101.0 138.5 L 100.0 139.5 L 98.5 140.0 L 97.5 141.0 L 96.0 141.5 L 95.0 142.5 L 93.5 143.0 L 92.0 143.5 L 91.0 144.5 L 89.5 145.0 L 88.0 145.5 L 86.0 145.5 L 84.0 145.5 L 82.0 145.5 L 80.5 145.0 L 79.0 144.5 L 78.0 143.5 L 77.5 142.0 L 76.5 141.0 L 75.5 140.0 L 75.5 138.0 L 75.5 136.0 L 75.5 134.0 L 75.5 132.0 L 76.5 131.0 L 76.5 129.0 L 77.5 128.0 L 77.5 126.0 L 78.5 125.0 L 78.5 123.0 L 79.5 122.0 L 79.5 120.0 L 80.5 119.0 L 81.0 117.5 L 81.5 116.0 L 82.5 115.0 L 83.0 113.5 L 83.5 112.0 L 84.5 111.0 L 85.0 109.5 L 85.5 108.0 L 86.5 107.0 L 86.5 105.0 L 87.5 104.0 L 87.5 102.0 L 88.5 101.0 L 89.0 99.5 L 89.5 98.0 L 89.5 96.0 L 88.0 95.5 L 86.5 96.0 L 85.5 97.0 L 84.5 98.0 L 83.5 99.0 L 82.5 100.0 L 81.5 101.0 L 80.5 102.0 L 79.5 103.0 L 78.5 104.0 L 77.5 105.0 L 76.5 106.0 L 75.5 107.0 L 75.0 108.5 L 74.0 109.5 L 73.0 110.5 L 72.5 112.0 L 71.5 113.0 L 70.5 114.0 L 69.5 115.0 L 68.5 116.0 L 68.0 117.5 L 67.0 118.5 L 66.0 119.5 L 65.5 121.0 L 64.5 122.0 L 64.0 123.5 L 63.0 124.5 L 62.5 126.0 L 61.5 127.0 L 60.5 128.0 L 60.0 129.5 L 59.5 131.0 L 58.5 132.0 L 57.5 133.0 L 57.0 134.5 L 56.0 135.5 L 55.5 137.0 L 54.5 138.0 L 53.5 139.0 L 53.0 140.5 L 52.0 141.5 L 51.0 142.5 L 50.0 143.5 L 48.5 144.0 L 47.0 144.5 L 45.0 144.5 L 43.0 144.5 L 41.0 144.5 L 40.0 143.5 L 38.5 143.0 L 38.5 141.0 L 38.5 139.0 L 39.0 137.5 L 39.5 136.0 L 40.0 134.5 L 40.5 133.0 L 41.5 132.0 L 41.5 130.0 L 42.5 129.0 L 42.5 127.0 L 43.5 126.0 L 44.0 124.5 L 44.5 123.0 L 45.5 122.0 L 45.5 120.0 L 46.5 119.0 L 46.5 117.0 L 47.5 116.0 L 48.0 114.5 L 48.5 113.0 L 49.5 112.0 L 49.5 110.0 L 50.5 109.0 L 50.5 107.0 L 51.5 106.0 L 51.5 104.0 L 52.5 103.0 L 52.5 101.0 L 53.0 99.5 L 53.5 98.0 L 52.5 97.0 L 51.0 96.5 L 50.0 97.5 L 49.0 98.5 L 48.0 99.5 L 47.0 100.5 L 46.0 101.5 L 45.0 102.5 L 44.0 103.5 L 43.0 104.5 L 42.0 105.5 L 41.0 106.5 L 40.0 107.5 L 39.5 109.0 L 38.5 110.0 L 37.5 111.0 L 36.5 112.0 L 35.5 113.0 L 35.0 114.5 L 34.0 115.5 L 33.0 116.5 L 32.5 118.0 L 31.5 119.0 L 30.5 120.0 L 30.0 121.5 L 29.0 122.5 L 28.5 124.0 L 27.5 125.0 L 27.0 126.5 L 26.0 127.5 L 25.5 129.0 L 24.5 130.0 L 23.5 131.0 L 23.0 132.5 L 22.0 133.5 L 21.5 135.0 L 20.5 136.0 L 20.0 137.5 L 19.5 139.0 L 18.5 140.0 L 17.5 141.0 L 16.5 142.0 L 16.0 143.5 L 14.5 144.0 L 13.0 144.5 L 11.0 144.5 L 9.0 144.5 L 8.0 145.5 L 6.0 145.5 L 4.5 145.0 L 3.0 144.5 L 2.5 143.0 L 3.0 141.5 L 3.5 140.0 L 4.0 138.5 L 4.5 137.0 L 5.0 135.5 L 5.5 134.0 L 6.0 132.5 L 6.5 131.0 L 6.5 129.0 L 7.5 128.0 L 7.5 126.0 L 8.5 125.0 L 9.0 123.5 L 9.5 122.0 L 8.0 122.5 L 7.5 124.0 L 6.5 125.0 L 5.5 126.0 L 4.5 127.0 L 3.5 128.0 L 2.5 129.0 L 1.5 130.0 L 0.5 131.0 Z" fill="#FFF8EE"/>
<path d="M 197.0 102.5 L 196.0 101.5 L 195.5 100.0 L 196.0 98.5 L 196.5 97.0 L 196.5 95.0 L 197.5 94.0 L 197.5 92.0 L 197.5 90.0 L 198.0 88.5 L 198.5 87.0 L 198.5 85.0 L 199.5 84.0 L 200.5 83.0 L 201.5 84.0 L 201.5 86.0 L 200.5 87.0 L 200.5 89.0 L 200.5 91.0 L 199.5 92.0 L 199.5 94.0 L 199.5 96.0 L 198.5 97.0 L 198.5 99.0 L 198.0 100.5 L 197.5 102.0 Z" fill="#FFF8EE"/>
<path d="M 0.0 103.5 L 1.0 102.5 L 2.0 101.5 L 3.0 100.5 L 4.0 99.5 L 5.0 98.5 L 5.5 97.0 L 6.5 96.0 L 6.5 94.0 L 7.0 92.5 L 7.5 91.0 L 6.5 90.0 L 6.5 88.0 L 6.0 86.5 L 5.0 85.5 L 3.5 85.0 L 2.0 84.5 L 0.0 84.5 Z" fill="#FFF8EE"/>
<path d="M 0.0 124.5 L 1.0 123.5 L 2.0 122.5 L 2.5 121.0 L 3.5 120.0 L 4.5 119.0 L 5.5 118.0 L 6.5 117.0 L 7.5 116.0 L 8.5 115.0 L 9.0 113.5 L 10.0 112.5 L 11.0 111.5 L 11.5 110.0 L 12.5 109.0 L 13.5 108.0 L 13.5 106.0 L 14.5 105.0 L 15.0 103.5 L 15.5 102.0 L 16.0 100.5 L 16.5 99.0 L 17.5 98.0 L 18.0 96.5 L 18.5 95.0 L 19.0 93.5 L 19.5 92.0 L 20.5 91.0 L 21.5 90.0 L 22.0 88.5 L 23.0 87.5 L 24.5 87.0 L 25.5 86.0 L 27.0 85.5 L 29.0 85.5 L 30.5 85.0 L 32.0 84.5 L 34.0 84.5 L 35.5 85.0 L 36.5 86.0 L 36.5 88.0 L 36.0 89.5 L 35.5 91.0 L 34.5 92.0 L 34.5 94.0 L 33.5 95.0 L 33.5 97.0 L 32.5 98.0 L 32.5 100.0 L 31.5 101.0 L 31.0 102.5 L 30.5 104.0 L 29.5 105.0 L 29.5 107.0 L 28.5 108.0 L 28.5 110.0 L 27.5 111.0 L 27.5 113.0 L 26.5 114.0 L 26.0 115.5 L 25.5 117.0 L 26.5 116.0 L 27.5 115.0 L 28.5 114.0 L 29.5 113.0 L 30.5 112.0 L 31.0 110.5 L 32.0 109.5 L 33.0 108.5 L 34.0 107.5 L 34.5 106.0 L 35.5 105.0 L 36.5 104.0 L 37.5 103.0 L 38.5 102.0 L 39.0 100.5 L 40.0 99.5 L 41.0 98.5 L 42.0 97.5 L 43.0 96.5 L 44.0 95.5 L 45.0 94.5 L 46.0 93.5 L 47.0 92.5 L 48.5 92.0 L 49.5 91.0 L 50.5 90.0 L 51.5 89.0 L 53.0 88.5 L 54.0 87.5 L 55.0 86.5 L 56.5 86.0 L 58.0 85.5 L 59.5 85.0 L 61.0 84.5 L 62.0 85.5 L 64.0 85.5 L 65.0 86.5 L 66.0 87.5 L 66.5 89.0 L 67.5 90.0 L 68.0 91.5 L 68.5 93.0 L 68.5 95.0 L 68.0 96.5 L 67.5 98.0 L 67.5 100.0 L 66.5 101.0 L 66.0 102.5 L 65.5 104.0 L 65.0 105.5 L 64.5 107.0 L 64.0 108.5 L 63.5 110.0 L 63.0 111.5 L 62.5 113.0 L 61.5 114.0 L 61.0 115.5 L 60.5 117.0 L 61.0 118.5 L 61.5 117.0 L 62.5 116.0 L 63.5 115.0 L 64.0 113.5 L 65.0 112.5 L 66.0 111.5 L 66.5 110.0 L 67.5 109.0 L 68.5 108.0 L 69.5 107.0 L 70.5 106.0 L 71.0 104.5 L 72.0 103.5 L 73.0 102.5 L 74.0 101.5 L 75.0 100.5 L 76.0 99.5 L 77.0 98.5 L 78.0 97.5 L 79.0 96.5 L 80.0 95.5 L 81.0 94.5 L 82.0 93.5 L 83.0 92.5 L 84.0 91.5 L 85.0 90.5 L 86.0 89.5 L 87.5 89.0 L 89.0 88.5 L 90.0 87.5 L 91.0 86.5 L 92.5 86.0 L 94.0 85.5 L 96.0 85.5 L 98.0 85.5 L 100.0 85.5 L 101.0 86.5 L 102.0 87.5 L 103.0 88.5 L 103.5 90.0 L 104.5 91.0 L 104.5 93.0 L 104.5 95.0 L 104.5 97.0 L 104.5 99.0 L 103.5 100.0 L 103.5 102.0 L 103.0 103.5 L 102.5 105.0 L 101.5 106.0 L 101.0 107.5 L 100.5 109.0 L 100.0 110.5 L 99.5 112.0 L 98.5 113.0 L 98.0 114.5 L 97.5 116.0 L 96.5 117.0 L 96.5 119.0 L 95.5 120.0 L 95.0 121.5 L 94.0 122.5 L 93.5 124.0 L 93.0 125.5 L 92.5 127.0 L 92.0 128.5 L 91.5 130.0 L 91.0 131.5 L 90.5 133.0 L 90.0 134.5 L 89.5 136.0 L 91.0 136.5 L 92.0 137.5 L 93.0 136.5 L 95.0 136.5 L 96.0 135.5 L 97.5 135.0 L 98.5 134.0 L 99.5 133.0 L 101.0 132.5 L 102.0 131.5 L 102.5 130.0 L 104.0 129.5 L 105.0 128.5 L 106.0 127.5 L 107.0 126.5 L 108.0 125.5 L 109.0 124.5 L 110.0 123.5 L 111.0 122.5 L 111.5 121.0 L 113.0 120.5 L 113.5 119.0 L 114.5 118.0 L 115.5 117.0 L 116.5 116.0 L 117.5 117.0 L 116.5 118.0 L 115.5 119.0 L 115.0 120.5 L 114.0 121.5 L 113.0 122.5 L 112.0 123.5 L 111.0 124.5 L 110.0 125.5 L 109.0 126.5 L 108.0 127.5 L 107.0 128.5 L 106.0 129.5 L 105.0 130.5 L 104.0 131.5 L 103.0 132.5 L 102.0 133.5 L 101.0 134.5 L 99.5 135.0 L 98.5 136.0 L 97.5 137.0 L 96.0 137.5 L 95.0 138.5 L 93.0 138.5 L 91.0 138.5 L 89.5 138.0 L 88.5 137.0 L 88.5 135.0 L 88.5 133.0 L 89.0 131.5 L 89.5 130.0 L 90.0 128.5 L 90.5 127.0 L 91.0 125.5 L 91.5 124.0 L 92.0 122.5 L 93.0 121.5 L 93.5 120.0 L 94.5 119.0 L 94.5 117.0 L 95.5 116.0 L 96.0 114.5 L 96.5 113.0 L 97.5 112.0 L 98.0 110.5 L 98.5 109.0 L 99.0 107.5 L 99.5 106.0 L 100.0 104.5 L 101.0 103.5 L 101.5 102.0 L 102.0 100.5 L 102.5 99.0 L 102.5 97.0 L 102.5 95.0 L 102.5 93.0 L 102.5 91.0 L 101.5 90.0 L 101.0 88.5 L 99.5 88.0 L 98.0 87.5 L 96.0 87.5 L 94.0 87.5 L 92.5 88.0 L 91.5 89.0 L 90.0 89.5 L 88.5 90.0 L 87.5 91.0 L 86.5 92.0 L 85.5 93.0 L 84.0 93.5 L 83.0 94.5 L 82.0 95.5 L 81.0 96.5 L 80.0 97.5 L 79.0 98.5 L 78.0 99.5 L 77.0 100.5 L 76.0 101.5 L 75.0 102.5 L 74.0 103.5 L 73.5 105.0 L 72.5 106.0 L 71.5 107.0 L 70.5 108.0 L 69.5 109.0 L 68.5 110.0 L 68.0 111.5 L 67.0 112.5 L 66.0 113.5 L 65.5 115.0 L 64.5 116.0 L 63.5 117.0 L 63.0 118.5 L 62.0 119.5 L 61.0 120.5 L 60.5 122.0 L 59.5 123.0 L 58.0 123.5 L 57.5 122.0 L 57.5 120.0 L 58.5 119.0 L 58.5 117.0 L 59.0 115.5 L 59.5 114.0 L 60.0 112.5 L 61.0 111.5 L 61.5 110.0 L 62.5 109.0 L 62.5 107.0 L 63.5 106.0 L 63.5 104.0 L 64.5 103.0 L 65.0 101.5 L 65.5 100.0 L 65.5 98.0 L 66.5 97.0 L 66.5 95.0 L 66.5 93.0 L 66.0 91.5 L 65.5 90.0 L 64.5 89.0 L 63.5 88.0 L 62.5 87.0 L 61.0 86.5 L 59.0 86.5 L 58.0 87.5 L 56.5 88.0 L 55.0 88.5 L 54.0 89.5 L 53.0 90.5 L 51.5 91.0 L 50.5 92.0 L 49.5 93.0 L 48.5 94.0 L 47.0 94.5 L 46.0 95.5 L 45.0 96.5 L 44.0 97.5 L 43.0 98.5 L 42.0 99.5 L 41.5 101.0 L 40.5 102.0 L 39.5 103.0 L 38.5 104.0 L 37.5 105.0 L 36.5 106.0 L 35.5 107.0 L 35.0 108.5 L 34.0 109.5 L 33.0 110.5 L 32.5 112.0 L 31.5 113.0 L 30.5 114.0 L 29.5 115.0 L 28.5 116.0 L 28.0 117.5 L 27.0 118.5 L 26.0 119.5 L 25.5 121.0 L 24.5 122.0 L 23.0 122.5 L 21.5 122.0 L 22.5 121.0 L 22.5 119.0 L 23.5 118.0 L 23.5 116.0 L 24.5 115.0 L 25.0 113.5 L 25.5 112.0 L 26.5 111.0 L 26.5 109.0 L 27.5 108.0 L 27.5 106.0 L 28.5 105.0 L 29.0 103.5 L 29.5 102.0 L 30.0 100.5 L 30.5 99.0 L 31.0 97.5 L 31.5 96.0 L 32.0 94.5 L 32.5 93.0 L 33.5 92.0 L 33.5 90.0 L 34.5 89.0 L 34.5 87.0 L 33.0 86.5 L 31.0 86.5 L 29.0 86.5 L 28.0 87.5 L 26.0 87.5 L 25.0 88.5 L 24.0 89.5 L 23.0 90.5 L 22.0 91.5 L 21.5 93.0 L 20.5 94.0 L 20.0 95.5 L 19.5 97.0 L 19.0 98.5 L 18.5 100.0 L 17.5 101.0 L 17.0 102.5 L 16.5 104.0 L 16.0 105.5 L 15.5 107.0 L 15.0 108.5 L 14.5 110.0 L 13.5 111.0 L 12.5 112.0 L 11.5 113.0 L 11.0 114.5 L 10.0 115.5 L 9.0 116.5 L 8.0 117.5 L 7.0 118.5 L 6.0 119.5 L 5.5 121.0 L 4.5 122.0 L 3.5 123.0 L 2.5 124.0 L 1.5 125.0 L 0.5 126.0 Z" fill="#FFF8EE"/>
<path d="M 127.5 147.0 L 128.5 146.0 L 130.0 145.5 L 131.0 144.5 L 132.0 143.5 L 132.5 142.0 L 133.5 141.0 L 133.5 139.0 L 134.5 138.0 L 134.5 136.0 L 134.5 134.0 L 134.5 132.0 L 133.5 131.0 L 133.5 129.0 L 132.5 128.0 L 132.0 126.5 L 131.0 125.5 L 130.5 124.0 L 129.5 123.0 L 129.0 121.5 L 128.0 120.5 L 127.5 119.0 L 126.5 118.0 L 126.0 116.5 L 125.0 115.5 L 124.5 114.0 L 123.0 113.5 L 122.0 114.5 L 121.5 116.0 L 120.5 117.0 L 119.5 118.0 L 119.0 119.5 L 118.0 120.5 L 117.5 122.0 L 116.5 123.0 L 115.5 124.0 L 114.5 125.0 L 113.5 126.0 L 113.0 127.5 L 112.5 129.0 L 111.5 130.0 L 111.5 132.0 L 111.5 134.0 L 111.5 136.0 L 111.5 138.0 L 112.0 139.5 L 112.5 141.0 L 113.5 142.0 L 114.0 143.5 L 115.0 144.5 L 116.0 145.5 L 117.5 146.0 L 118.5 147.0 L 120.0 147.5 L 122.0 147.5 L 124.0 147.5 L 126.0 147.5 L 127.5 147.0 Z" fill="#FFF8EE"/>
<path d="M 0.0 247.5 L 0.5 249.0 L 1.0 250.5 L 1.5 252.0 L 2.0 253.5 L 2.5 255.0 L 3.5 256.0 L 4.0 257.5 L 4.5 259.0 L 5.0 260.5 L 6.0 259.5 L 6.5 258.0 L 7.0 256.5 L 7.5 255.0 L 8.5 254.0 L 9.5 253.0 L 9.5 251.0 L 10.5 250.0 L 10.5 248.0 L 11.5 247.0 L 12.0 245.5 L 12.5 244.0 L 13.5 243.0 L 13.5 241.0 L 15.0 240.5 L 16.0 239.5 L 18.0 239.5 L 20.0 239.5 L 22.0 239.5 L 22.5 241.0 L 21.5 242.0 L 20.5 243.0 L 19.5 244.0 L 20.0 245.5 L 20.5 247.0 L 20.5 249.0 L 20.5 251.0 L 20.5 253.0 L 20.5 255.0 L 20.5 257.0 L 20.5 259.0 L 20.5 261.0 L 20.5 263.0 L 20.5 265.0 L 20.5 267.0 L 21.5 268.0 L 22.0 269.5 L 23.5 270.0 L 24.5 271.0 L 23.5 272.0 L 22.0 272.5 L 20.0 272.5 L 18.0 272.5 L 16.0 272.5 L 14.0 272.5 L 12.5 272.0 L 11.5 271.0 L 12.0 269.5 L 13.0 268.5 L 14.5 268.0 L 14.5 266.0 L 14.5 264.0 L 14.5 262.0 L 14.5 260.0 L 14.5 258.0 L 14.5 256.0 L 14.5 254.0 L 14.5 252.0 L 14.0 250.5 L 12.5 251.0 L 12.0 252.5 L 11.5 254.0 L 11.0 255.5 L 10.5 257.0 L 9.5 258.0 L 9.0 259.5 L 8.5 261.0 L 8.0 262.5 L 7.5 264.0 L 6.5 265.0 L 6.0 266.5 L 5.5 268.0 L 4.5 269.0 L 3.0 269.5 L 2.0 268.5 L 1.5 267.0 L 1.0 265.5 L 0.5 264.0 Z" fill="#FFF8EE"/>
<path d="M 16.5 254.0 L 16.5 252.0 L 16.5 250.0 L 16.5 248.0 L 16.5 246.0 L 17.0 244.5 L 18.0 245.5 L 18.5 244.0 L 18.5 242.0 L 17.0 241.5 L 15.5 242.0 L 15.0 243.5 L 14.5 245.0 L 15.0 246.5 L 15.5 248.0 L 15.5 250.0 L 15.5 252.0 L 15.5 254.0 Z" fill="#FFF8EE"/>
<path d="M 43.0 272.5 L 41.0 272.5 L 39.0 272.5 L 37.5 272.0 L 36.0 271.5 L 34.5 271.0 L 33.5 270.0 L 32.0 269.5 L 31.5 268.0 L 30.5 267.0 L 29.5 266.0 L 29.5 264.0 L 28.5 263.0 L 28.5 261.0 L 28.5 259.0 L 28.5 257.0 L 29.5 256.0 L 29.5 254.0 L 30.5 253.0 L 31.0 251.5 L 32.0 250.5 L 33.0 249.5 L 34.5 249.0 L 36.0 248.5 L 37.5 248.0 L 39.0 247.5 L 41.0 247.5 L 43.0 247.5 L 44.0 248.5 L 46.0 248.5 L 47.5 249.0 L 48.5 250.0 L 49.5 251.0 L 50.5 252.0 L 51.5 253.0 L 52.0 254.5 L 52.5 256.0 L 53.0 257.5 L 53.5 259.0 L 53.5 261.0 L 53.0 262.5 L 52.5 264.0 L 52.0 265.5 L 51.0 266.5 L 50.5 268.0 L 49.5 269.0 L 48.5 270.0 L 47.0 270.5 L 46.0 271.5 L 44.0 271.5 L 43.0 272.5 Z" fill="#FFF8EE"/>
<path d="M 83.0 272.5 L 82.0 271.5 L 80.0 271.5 L 78.0 271.5 L 76.5 271.0 L 77.0 269.5 L 78.0 268.5 L 78.5 267.0 L 78.5 265.0 L 78.5 263.0 L 78.5 261.0 L 78.5 259.0 L 78.5 257.0 L 77.5 258.0 L 76.5 259.0 L 76.5 261.0 L 75.5 262.0 L 75.0 263.5 L 74.0 264.5 L 73.5 266.0 L 73.0 267.5 L 72.5 269.0 L 71.5 270.0 L 70.0 270.5 L 69.0 269.5 L 68.0 268.5 L 67.5 267.0 L 66.5 266.0 L 66.5 264.0 L 65.5 263.0 L 65.0 261.5 L 64.5 260.0 L 63.5 259.0 L 63.0 257.5 L 62.5 259.0 L 62.5 261.0 L 62.5 263.0 L 62.5 265.0 L 62.5 267.0 L 63.0 268.5 L 64.0 269.5 L 64.5 271.0 L 63.0 271.5 L 61.0 271.5 L 59.0 271.5 L 57.5 271.0 L 58.0 269.5 L 59.0 268.5 L 59.5 267.0 L 59.5 265.0 L 59.5 263.0 L 59.5 261.0 L 59.5 259.0 L 59.5 257.0 L 59.5 255.0 L 59.5 253.0 L 59.0 251.5 L 58.0 250.5 L 57.5 249.0 L 59.0 248.5 L 61.0 248.5 L 63.0 248.5 L 64.5 249.0 L 65.0 250.5 L 65.5 252.0 L 66.5 253.0 L 67.0 254.5 L 67.5 256.0 L 68.5 257.0 L 69.0 258.5 L 69.5 260.0 L 70.5 261.0 L 71.0 262.5 L 72.5 262.0 L 73.0 260.5 L 73.5 259.0 L 74.5 258.0 L 74.5 256.0 L 75.5 255.0 L 76.0 253.5 L 77.0 252.5 L 77.5 251.0 L 78.0 249.5 L 79.0 248.5 L 81.0 248.5 L 82.5 248.0 L 84.0 248.5 L 85.5 249.0 L 84.5 250.0 L 83.5 251.0 L 83.5 253.0 L 83.5 255.0 L 83.5 257.0 L 83.5 259.0 L 83.5 261.0 L 83.5 263.0 L 83.5 265.0 L 84.0 266.5 L 84.5 268.0 L 85.0 269.5 L 85.5 271.0 L 84.0 271.5 L 83.0 272.5 Z" fill="#FFF8EE"/>
<path d="M 159.0 271.5 L 157.0 271.5 L 155.0 271.5 L 153.0 271.5 L 151.0 271.5 L 149.5 271.0 L 150.0 269.5 L 151.5 269.0 L 151.5 267.0 L 151.5 265.0 L 151.5 263.0 L 151.5 261.0 L 151.5 259.0 L 151.5 257.0 L 151.5 255.0 L 151.5 253.0 L 151.0 251.5 L 150.0 250.5 L 148.5 251.0 L 147.0 251.5 L 146.5 253.0 L 145.5 254.0 L 144.0 253.5 L 143.5 252.0 L 143.5 250.0 L 144.0 248.5 L 145.0 247.5 L 146.5 248.0 L 148.0 248.5 L 150.0 248.5 L 152.0 248.5 L 154.0 248.5 L 156.0 248.5 L 158.0 248.5 L 160.0 248.5 L 162.0 248.5 L 164.0 248.5 L 164.5 250.0 L 165.5 251.0 L 165.5 253.0 L 164.0 253.5 L 162.5 253.0 L 162.0 251.5 L 160.0 251.5 L 159.0 250.5 L 157.5 251.0 L 156.5 252.0 L 156.5 254.0 L 156.5 256.0 L 156.5 258.0 L 156.5 260.0 L 156.5 262.0 L 156.5 264.0 L 156.5 266.0 L 156.5 268.0 L 157.5 269.0 L 158.5 270.0 L 159.5 271.0 Z" fill="#FFF8EE"/>
<path d="M 180.0 272.5 L 178.0 272.5 L 176.0 272.5 L 174.0 272.5 L 173.0 271.5 L 171.0 271.5 L 170.5 270.0 L 169.5 269.0 L 169.5 267.0 L 170.0 265.5 L 172.0 265.5 L 172.5 267.0 L 173.5 268.0 L 174.5 269.0 L 176.0 269.5 L 178.0 269.5 L 179.5 269.0 L 180.5 268.0 L 181.5 267.0 L 181.0 265.5 L 180.0 264.5 L 179.0 263.5 L 177.5 263.0 L 176.0 262.5 L 175.0 261.5 L 174.0 260.5 L 172.5 260.0 L 171.5 259.0 L 170.5 258.0 L 170.0 256.5 L 169.5 255.0 L 170.0 253.5 L 170.5 252.0 L 171.0 250.5 L 172.0 249.5 L 173.5 249.0 L 175.0 248.5 L 176.0 247.5 L 178.0 247.5 L 180.0 247.5 L 181.0 248.5 L 183.0 248.5 L 184.0 249.5 L 184.5 251.0 L 184.5 253.0 L 184.0 254.5 L 182.5 254.0 L 182.0 252.5 L 181.0 251.5 L 180.0 250.5 L 178.0 250.5 L 176.0 250.5 L 175.0 251.5 L 174.5 253.0 L 175.0 254.5 L 176.0 255.5 L 177.0 256.5 L 178.5 257.0 L 180.0 257.5 L 181.0 258.5 L 182.0 259.5 L 183.5 260.0 L 184.5 261.0 L 185.5 262.0 L 185.5 264.0 L 186.5 265.0 L 186.0 266.5 L 185.5 268.0 L 184.5 269.0 L 184.0 270.5 L 182.5 271.0 L 181.0 271.5 L 180.0 272.5 Z" fill="#FFF8EE"/>
<path d="M 109.0 271.5 L 107.0 271.5 L 105.0 271.5 L 103.0 271.5 L 101.0 271.5 L 99.0 271.5 L 97.0 271.5 L 95.0 271.5 L 93.0 271.5 L 91.5 271.0 L 92.5 270.0 L 93.5 269.0 L 94.5 268.0 L 94.5 266.0 L 94.5 264.0 L 94.5 262.0 L 94.5 260.0 L 94.5 258.0 L 94.5 256.0 L 94.5 254.0 L 94.5 252.0 L 93.5 251.0 L 92.5 250.0 L 91.5 249.0 L 93.0 248.5 L 95.0 248.5 L 97.0 248.5 L 99.0 248.5 L 101.0 248.5 L 103.0 248.5 L 105.0 248.5 L 107.0 248.5 L 108.5 249.0 L 109.0 250.5 L 109.5 252.0 L 108.5 253.0 L 107.0 252.5 L 106.0 251.5 L 104.0 251.5 L 102.5 251.0 L 101.0 250.5 L 100.0 251.5 L 98.5 252.0 L 98.5 254.0 L 98.5 256.0 L 99.0 257.5 L 101.0 257.5 L 103.0 257.5 L 104.0 256.5 L 105.0 255.5 L 105.5 257.0 L 105.5 259.0 L 105.5 261.0 L 105.0 262.5 L 103.5 262.0 L 102.5 261.0 L 101.0 260.5 L 99.5 261.0 L 98.5 262.0 L 98.5 264.0 L 98.5 266.0 L 98.5 268.0 L 100.0 268.5 L 102.0 268.5 L 104.0 268.5 L 106.0 268.5 L 106.5 267.0 L 107.5 266.0 L 109.0 265.5 L 109.5 267.0 L 109.5 269.0 L 109.5 271.0 Z" fill="#FFF8EE"/>
<path d="M 136.0 271.5 L 134.0 271.5 L 133.0 270.5 L 132.0 269.5 L 131.0 268.5 L 130.0 267.5 L 129.5 266.0 L 128.5 265.0 L 127.5 264.0 L 126.5 263.0 L 125.5 262.0 L 124.5 261.0 L 124.0 259.5 L 123.0 258.5 L 122.0 257.5 L 121.5 256.0 L 123.0 256.5 L 124.0 257.5 L 125.0 258.5 L 126.0 259.5 L 127.0 260.5 L 128.0 261.5 L 128.5 263.0 L 129.5 264.0 L 130.5 265.0 L 131.5 266.0 L 132.5 267.0 L 133.0 268.5 L 134.0 269.5 L 134.5 268.0 L 134.5 266.0 L 133.0 265.5 L 132.0 264.5 L 131.0 263.5 L 130.5 262.0 L 129.5 261.0 L 128.5 260.0 L 127.0 259.5 L 126.0 258.5 L 126.5 257.0 L 125.5 256.0 L 124.5 255.0 L 123.5 254.0 L 122.5 253.0 L 121.5 252.0 L 120.5 251.0 L 119.0 250.5 L 120.0 251.5 L 119.5 253.0 L 121.0 253.5 L 122.5 254.0 L 121.5 255.0 L 120.5 256.0 L 120.5 258.0 L 120.5 260.0 L 120.5 262.0 L 120.5 264.0 L 120.5 266.0 L 120.5 268.0 L 121.5 269.0 L 122.5 270.0 L 123.5 271.0 L 122.0 271.5 L 120.0 271.5 L 118.0 271.5 L 116.0 271.5 L 114.5 271.0 L 115.5 270.0 L 116.5 269.0 L 117.5 268.0 L 117.5 266.0 L 117.5 264.0 L 117.5 262.0 L 117.5 260.0 L 117.5 258.0 L 117.5 256.0 L 117.5 254.0 L 117.5 252.0 L 116.5 251.0 L 115.5 250.0 L 114.5 249.0 L 116.0 248.5 L 118.0 248.5 L 120.0 248.5 L 121.5 249.0 L 122.5 250.0 L 123.5 251.0 L 124.0 252.5 L 125.0 253.5 L 126.0 254.5 L 127.0 255.5 L 128.0 256.5 L 128.5 258.0 L 129.5 259.0 L 130.5 260.0 L 131.5 261.0 L 132.5 262.0 L 133.0 263.5 L 133.5 262.0 L 133.5 260.0 L 133.5 258.0 L 133.5 256.0 L 133.5 254.0 L 133.5 252.0 L 133.0 250.5 L 131.5 250.0 L 132.0 248.5 L 134.0 248.5 L 136.0 248.5 L 138.0 248.5 L 139.5 249.0 L 138.5 250.0 L 137.5 251.0 L 136.5 252.0 L 136.5 254.0 L 136.5 256.0 L 136.5 258.0 L 136.5 260.0 L 136.5 262.0 L 136.5 264.0 L 136.5 266.0 L 136.5 268.0 L 136.5 270.0 L 136.0 271.5 Z" fill="#FFF8EE"/>
<path d="M 43.5 269.0 L 45.0 268.5 L 46.0 267.5 L 46.5 266.0 L 47.0 264.5 L 47.5 263.0 L 47.5 261.0 L 47.5 259.0 L 47.5 257.0 L 47.0 255.5 L 46.5 254.0 L 46.0 252.5 L 45.0 251.5 L 43.5 251.0 L 42.0 250.5 L 40.0 250.5 L 38.0 250.5 L 36.5 251.0 L 35.5 252.0 L 35.0 253.5 L 34.5 255.0 L 33.5 256.0 L 33.5 258.0 L 33.5 260.0 L 33.5 262.0 L 34.5 263.0 L 34.5 265.0 L 35.5 266.0 L 36.0 267.5 L 37.0 268.5 L 38.5 269.0 L 40.0 269.5 L 42.0 269.5 L 43.5 269.0 Z" fill="#FFF8EE"/>
<path d="M 65.5 257.0 L 66.5 256.0 L 65.5 255.0 L 65.0 253.5 L 64.0 252.5 L 63.5 251.0 L 62.0 250.5 L 61.5 252.0 L 62.0 253.5 L 63.0 254.5 L 64.0 255.5 L 65.5 256.0 L 64.5 257.0 Z" fill="#FFF8EE"/>
<path d="M 0.0 258.5 L 0.5 260.0 L 1.0 261.5 L 1.5 263.0 L 2.5 264.0 L 3.0 265.5 L 4.0 266.5 L 5.0 265.5 L 3.5 265.0 L 3.0 263.5 L 2.5 262.0 L 4.0 262.5 L 3.5 261.0 L 3.0 259.5 L 2.0 260.5 L 1.5 259.0 L 2.5 258.0 L 2.0 256.5 L 1.5 255.0 L 0.5 254.0 L 0.0 252.5 Z" fill="#FFF8EE"/>
<path d="M 34.5 268.0 L 33.5 267.0 L 33.0 265.5 L 32.5 264.0 L 32.0 262.5 L 31.5 261.0 L 31.5 259.0 L 31.5 257.0 L 32.0 255.5 L 30.5 256.0 L 30.5 258.0 L 30.5 260.0 L 30.5 262.0 L 30.5 264.0 L 31.5 265.0 L 32.0 266.5 L 33.0 267.5 L 34.0 268.5 Z" fill="#FFF8EE"/>
<path d="M 183.5 264.0 L 183.0 262.5 L 182.0 261.5 L 181.0 260.5 L 180.0 259.5 L 178.5 259.0 L 177.0 258.5 L 176.0 257.5 L 174.5 257.0 L 173.5 256.0 L 173.0 254.5 L 171.5 255.0 L 172.0 256.5 L 172.5 258.0 L 173.5 259.0 L 175.0 259.5 L 176.0 260.5 L 178.0 260.5 L 179.0 261.5 L 180.5 262.0 L 181.5 263.0 L 182.5 264.0 Z" fill="#FFF8EE"/>
<path d="M 50.5 265.0 L 50.5 263.0 L 51.5 262.0 L 51.5 260.0 L 51.5 258.0 L 51.0 256.5 L 50.0 255.5 L 48.5 256.0 L 49.0 257.5 L 49.5 259.0 L 49.5 261.0 L 49.0 262.5 L 48.5 264.0 L 49.5 265.0 Z" fill="#FFF8EE"/>
<path d="M 68.5 264.0 L 69.5 263.0 L 69.0 261.5 L 68.5 260.0 L 67.0 260.5 L 66.5 259.0 L 67.5 258.0 L 66.0 258.5 L 65.5 260.0 L 66.5 261.0 L 67.0 262.5 L 68.0 261.5 L 68.5 263.0 L 67.5 264.0 Z" fill="#FFF8EE"/>
<path d="M 19.5 270.0 L 19.5 268.0 L 19.5 266.0 L 18.5 265.0 L 18.5 263.0 L 18.5 261.0 L 18.0 259.5 L 17.5 261.0 L 16.5 262.0 L 16.5 264.0 L 17.5 265.0 L 17.5 267.0 L 18.0 268.5 L 17.0 269.5 L 16.0 268.5 L 15.5 270.0 L 17.0 270.5 L 19.0 270.5 Z" fill="#FFF8EE"/>
</svg>